<svg version="1.0" xmlns="http://www.w3.org/2000/svg"
 width="500.000000pt" height="500.000000pt" viewBox="0 0 500.000000 500.000000"
 preserveAspectRatio="xMidYMid meet">
<g transform="translate(0.000000,853.000000) scale(0.100000,-0.100000)"
fill="#000000" stroke="none">
<path d="M0 4265 l0 -4265 3200 0 3200 0 0 2636 c0 1754 -3 2633 -10 2629 -6
-3 -10 -13 -10 -21 0 -21 -76 -163 -110 -206 -17 -20 -30 -41 -30 -47 0 -5 -4
-11 -8 -13 -10 -4 -117 -147 -164 -218 -30 -47 -88 -161 -88 -175 0 -22 -131
-271 -183 -347 -240 -352 -219 -312 -359 -668 -58 -146 -136 -359 -173 -475
-37 -115 -95 -280 -130 -365 -34 -85 -84 -220 -110 -300 -114 -350 -206 -450
-402 -438 -58 4 -79 10 -96 26 l-20 21 23 -6 c20 -5 22 -3 18 15 -5 18 -2 22
18 22 13 0 43 12 65 26 33 20 48 24 78 19 45 -7 72 13 46 35 -26 22 -18 67 21
110 20 22 45 40 55 40 25 0 41 36 69 152 21 87 22 99 8 120 -31 49 -30 74 8
155 20 43 71 152 114 243 47 100 80 184 84 213 7 57 50 188 78 237 11 19 42
91 70 159 45 113 56 132 110 186 64 64 130 182 203 365 35 88 35 90 29 197 -6
103 -5 110 17 142 26 37 97 81 132 81 32 1 51 19 79 75 36 72 41 105 24 156
-9 24 -16 63 -16 86 0 23 -5 43 -11 45 -17 6 1 36 26 42 13 3 41 26 62 51 55
66 171 185 181 185 4 0 18 14 32 30 14 17 31 30 38 30 7 0 11 4 8 9 -3 5 1 14
9 21 8 7 15 10 15 7 0 -14 -24 -57 -32 -57 -4 0 -8 -5 -8 -12 0 -18 68 52 95
99 14 23 25 51 25 62 0 12 5 21 10 21 6 0 10 5 10 11 0 5 -4 7 -10 4 -14 -9
-13 -4 16 67 48 115 54 127 72 137 16 9 17 101 20 1460 l2 1451 -3200 0 -3200
0 0 -4265z m6083 2839 c9 -3 13 -13 9 -26 -3 -11 1 -24 9 -29 11 -6 9 -10 -6
-16 -11 -4 -20 -13 -20 -20 0 -14 -103 -123 -116 -123 -14 0 -5 39 14 60 31
36 2 21 -38 -20 -21 -21 -42 -37 -45 -35 -4 3 -7 -3 -6 -13 1 -12 -7 -17 -25
-18 l-26 -1 16 49 c16 52 38 80 112 140 59 48 94 63 122 52z m-286 -186 c18
-23 22 -96 6 -109 -22 -19 -40 -58 -58 -128 -20 -76 -130 -300 -138 -280 -4 9
-5 7 -5 -6 2 -45 -3 -76 -11 -71 -11 7 -23 -22 -14 -36 3 -6 2 -8 -4 -5 -12 8
-47 -138 -37 -154 4 -8 3 -9 -4 -5 -13 8 -13 11 -17 -124 -1 -47 -7 -103 -14
-126 -18 -65 -30 -138 -51 -299 -27 -207 -61 -300 -130 -355 -52 -41 -120
-114 -120 -128 0 -8 5 -10 13 -6 6 4 4 -1 -6 -12 -83 -86 -119 -132 -129 -165
-9 -31 -14 -37 -25 -28 -8 7 -10 16 -5 23 5 6 12 22 15 36 3 14 22 41 41 60
20 19 36 41 36 48 0 15 49 94 64 104 6 4 8 8 3 8 -4 0 3 17 17 38 66 105 100
207 167 502 29 125 51 214 105 410 38 138 48 192 48 255 1 44 -2 89 -7 99 -7
18 -8 18 -30 -3 -13 -11 -28 -21 -34 -21 -6 0 -25 -37 -43 -82 -18 -46 -41
-101 -51 -123 -37 -86 -89 -225 -89 -240 0 -9 -5 -26 -12 -38 -8 -15 -12 -80
-13 -197 l-1 -175 -32 -60 c-18 -33 -42 -76 -53 -95 -36 -61 -157 -217 -183
-238 -14 -11 -26 -22 -26 -25 0 -3 -22 -38 -50 -78 -62 -90 -65 -83 -5 11 25
39 45 72 45 75 0 12 46 75 55 75 10 1 61 76 122 180 36 61 46 140 18 140 -8 0
-15 7 -15 15 0 9 -9 34 -20 57 -11 23 -27 76 -36 119 -16 73 -16 82 -1 130 10
28 17 57 17 64 0 8 16 31 35 53 28 31 43 39 72 40 21 1 44 9 54 19 23 24 70
183 71 242 2 61 -25 96 -66 85 -14 -3 -26 -10 -26 -15 0 -5 -13 -9 -28 -9 -15
0 -33 -5 -40 -12 -15 -15 -37 -20 -83 -18 -74 2 -309 -145 -348 -218 -11 -20
-9 -27 13 -53 39 -46 36 -52 -27 -63 -27 -5 -37 -4 -32 3 3 6 -1 11 -9 11 -25
0 -66 -22 -60 -32 3 -5 0 -8 -7 -7 -27 6 -68 -11 -170 -70 -57 -33 -106 -58
-109 -55 -2 3 1 8 7 12 7 4 28 41 49 82 56 114 131 185 559 521 110 87 190
138 289 184 139 66 196 69 196 11 0 -12 9 -27 20 -34 17 -10 24 -8 55 22 19
19 35 38 35 43 0 12 216 233 228 233 5 0 14 -6 19 -12z m17 -906 c-14 -50 -19
-96 -16 -158 2 -31 7 -43 21 -47 23 -6 33 1 48 33 11 24 12 24 12 3 1 -12 -3
-25 -9 -28 -12 -8 -13 -112 -1 -119 5 -3 9 -35 10 -71 0 -40 -3 -64 -9 -60 -5
3 -12 -6 -16 -20 -3 -14 -10 -25 -15 -25 -5 0 -12 -18 -15 -40 -8 -50 -19 -51
-42 -2 -19 42 -34 56 -43 41 -8 -13 -19 14 -19 44 0 18 -2 20 -11 7 -8 -12
-10 -8 -6 15 3 17 11 68 19 115 11 74 14 81 19 50 5 -28 7 -23 7 25 0 70 10
128 28 163 7 13 10 31 7 38 -3 8 0 14 5 14 6 0 14 17 18 38 4 20 9 31 12 24 2
-7 0 -25 -4 -40z m-1124 -44 l25 -4 -26 -11 c-15 -7 -29 -23 -33 -37 -10 -39
-95 -119 -165 -154 -62 -31 -129 -43 -116 -22 4 6 11 8 16 5 5 -4 9 -1 9 5 0
5 12 21 28 35 88 80 118 105 127 105 6 0 30 18 55 41 25 22 39 38 33 34 -9 -4
-11 -1 -7 10 4 10 10 12 18 6 6 -5 22 -11 36 -13z m142 -48 c15 -7 29 -19 32
-27 6 -15 -29 -52 -49 -53 -5 0 -23 -7 -38 -15 -15 -8 -36 -16 -45 -17 -9 -2
-19 -5 -22 -9 -15 -16 -114 -70 -154 -83 -42 -14 -132 -22 -96 -9 8 3 17 9 20
12 3 4 27 18 55 31 27 14 56 31 63 38 7 6 20 12 28 12 8 0 14 7 14 16 0 8 4
13 9 9 12 -7 51 33 51 52 0 7 4 13 9 13 5 0 13 10 17 23 12 39 34 40 106 7z
m-607 -171 c-25 -23 -45 -48 -45 -55 0 -7 -12 -20 -27 -28 -27 -15 -25 -15 32
-10 80 8 128 5 140 -7 7 -7 7 -10 0 -8 -5 1 -17 -1 -25 -4 -8 -4 -58 -14 -110
-22 -127 -22 -220 -54 -359 -125 -220 -112 -440 -269 -594 -421 -91 -91 -142
-129 -173 -129 -7 0 -22 -12 -33 -26 -22 -28 -28 -50 -11 -39 17 10 11 0 -15
-31 -14 -16 -38 -50 -53 -76 -15 -27 -30 -48 -34 -48 -5 0 -8 -8 -8 -19 0 -10
-7 -24 -15 -31 -15 -13 -21 -2 -7 16 12 16 -28 -29 -64 -71 -27 -32 -31 -42
-21 -55 10 -13 10 -13 -4 -2 -14 10 -21 6 -51 -33 -19 -24 -38 -41 -42 -38 -4
4 -4 0 -1 -8 8 -22 -103 -134 -190 -191 -171 -110 -213 -137 -255 -158 -25
-13 -47 -23 -50 -22 -3 0 -14 -5 -25 -11 -11 -6 -24 -10 -29 -9 -5 2 -6 -4 -3
-12 4 -11 1 -13 -10 -9 -12 5 -14 3 -8 -7 6 -9 4 -11 -5 -5 -7 4 -16 2 -20 -5
-4 -7 -10 -8 -13 -3 -4 6 69 59 161 119 360 235 562 425 697 654 48 82 134
209 188 279 75 98 262 236 482 359 132 73 627 331 637 331 4 1 -13 -18 -37
-40z m1667 -283 c1 -24 4 -32 10 -24 6 10 10 10 18 -2 12 -19 140 -22 140 -3
0 8 7 10 17 6 11 -5 13 -8 4 -11 -8 -3 -7 -8 5 -16 12 -9 14 -15 6 -20 -7 -4
-12 -2 -12 3 0 6 -4 11 -10 11 -5 0 -10 -8 -10 -17 0 -25 -78 -72 -132 -79
-56 -8 -68 7 -34 41 24 23 26 55 5 55 -5 0 -17 16 -26 35 -9 19 -20 32 -25 29
-4 -3 -8 0 -8 5 0 6 9 11 20 11 11 0 20 5 20 12 0 29 11 -3 12 -36z m-3215
-611 c-5 -44 -4 -109 2 -162 6 -54 6 -92 0 -97 -5 -6 -9 -1 -9 13 0 13 -9 34
-20 48 -11 14 -20 37 -20 52 0 14 -14 46 -30 70 -23 34 -27 47 -19 57 6 8 9
14 5 14 -4 0 1 14 9 31 9 17 14 37 11 45 -3 8 1 14 8 14 7 0 19 7 27 16 11 14
14 13 29 -6 13 -18 15 -33 7 -95z m1793 -180 c0 -24 32 -56 45 -45 8 7 18 4
29 -9 17 -19 16 -21 -24 -50 -29 -21 -70 -36 -138 -51 -130 -30 -140 -35 -304
-143 -145 -96 -275 -170 -383 -219 -33 -15 -170 -77 -305 -138 -274 -124 -332
-159 -570 -349 -211 -168 -394 -299 -540 -386 -231 -137 -244 -148 -455 -354
-202 -198 -268 -257 -406 -368 -72 -56 -151 -132 -202 -191 -112 -130 -356
-353 -449 -410 -26 -16 -49 -22 -75 -20 -67 5 -56 32 58 144 165 162 261 263
360 379 116 136 110 130 189 189 83 63 306 289 425 431 51 61 128 144 171 185
80 76 111 98 374 253 180 106 490 308 551 359 26 21 182 119 344 216 100 59
237 154 293 202 16 14 206 80 230 80 9 0 -13 -15 -50 -34 -36 -18 -128 -74
-205 -123 -76 -50 -196 -126 -266 -169 -71 -43 -179 -117 -240 -163 -62 -46
-161 -120 -222 -164 -130 -94 -120 -86 -113 -93 13 -13 132 63 358 227 267
195 323 225 625 344 199 78 309 135 471 242 140 92 339 215 374 230 35 16 50
15 50 -2z m-2741 -905 c-22 -18 -16 -30 7 -12 5 4 -6 -7 -25 -25 -20 -17 -37
-30 -39 -29 -6 7 -185 -180 -229 -239 -77 -103 -115 -148 -178 -212 -40 -40
-71 -75 -69 -78 2 -3 1 -3 -2 -1 -5 4 -79 -73 -171 -179 -24 -27 -43 -45 -43
-39 0 19 76 108 235 274 107 112 145 157 198 232 18 26 53 69 79 95 78 83 240
233 250 233 6 0 0 -9 -13 -20z m952 -535 c25 -109 59 -344 59 -403 0 -35 6
-48 29 -70 l30 -27 -34 -1 c-24 0 -35 4 -38 18 -7 26 -31 22 -47 -7 -7 -14
-17 -25 -22 -25 -18 0 -40 83 -59 220 -18 138 -56 346 -66 363 -2 4 0 7 5 7 6
0 12 -10 16 -23 13 -53 99 -219 106 -207 5 7 6 18 4 24 -2 6 -6 36 -8 66 -2
30 -16 93 -30 139 -21 67 -23 87 -14 104 10 20 13 17 30 -33 11 -30 28 -95 39
-145z m-222 69 c-28 -36 -58 -84 -66 -107 -10 -29 -17 -123 -24 -307 -7 -228
-19 -356 -45 -497 -5 -27 -2 -34 29 -55 33 -22 224 -239 275 -312 66 -94 90
-268 52 -369 -22 -58 -79 -127 -105 -127 -7 0 -22 12 -33 28 -23 32 -62 152
-62 191 0 29 -77 149 -168 261 -29 36 -52 68 -52 72 0 5 9 8 21 8 22 0 22 14
2 66 -5 13 -3 15 8 9 8 -5 11 -4 6 0 -9 10 -26 15 -79 22 -63 8 -63 12 -48
221 7 103 15 318 17 478 l4 292 47 25 c26 14 96 57 156 96 60 39 111 71 113
71 3 0 -19 -30 -48 -66z m1458 -223 c90 -75 100 -205 21 -278 -27 -26 -82 -40
-92 -24 -4 5 -14 7 -24 4 -15 -6 -15 -5 -3 10 13 16 12 43 -4 80 -5 12 -3 17
8 17 9 0 29 12 46 26 19 16 39 24 50 21 36 -9 44 7 22 47 -23 41 -26 50 -11
41 21 -13 9 14 -19 44 -32 34 -29 41 6 12z m-3215 -483 c-11 -18 -30 -51 -43
-73 -12 -22 -34 -60 -48 -85 -22 -39 -25 -56 -24 -120 1 -48 -3 -86 -12 -105
l-15 -30 5 30 c7 47 -8 98 -33 111 l-21 10 29 61 c15 34 26 64 23 66 -7 8 28
57 41 57 6 0 33 25 59 55 55 62 68 70 39 23z m2391 -127 c114 -130 137 -283
56 -376 -39 -44 -64 -52 -91 -28 -20 17 -21 17 -15 1 9 -26 -7 -22 -40 8 -23
21 -23 23 -4 10 20 -13 26 -13 38 -1 12 12 11 20 -7 54 -20 40 -20 40 -1 51
11 5 29 25 40 44 20 31 25 34 56 29 43 -7 45 9 11 80 -13 26 -19 47 -14 47 14
0 -6 30 -78 115 -79 92 -38 63 49 -34z m-2544 -33 c-7 -13 -23 -41 -37 -62
-13 -21 -25 -49 -27 -62 -3 -30 -24 -56 -38 -47 -5 3 -7 1 -4 -4 4 -6 -32 -48
-79 -94 -124 -121 -127 -124 -143 -124 -8 0 -16 -6 -19 -14 -3 -9 0 -11 8 -6
10 6 11 2 5 -16 -4 -13 -7 -34 -7 -47 0 -49 71 -95 164 -107 34 -4 55 -11 52
-17 -9 -14 -91 0 -135 23 -51 26 -109 96 -109 131 0 23 24 53 133 161 74 73
146 154 162 182 34 60 76 125 82 125 2 0 -2 -10 -8 -22z"/>
<path d="M2312 2292 c-7 -2 -12 -19 -12 -39 0 -29 8 -42 53 -83 28 -26 90 -82
136 -124 46 -43 86 -75 88 -72 3 3 -21 40 -53 82 -32 42 -78 102 -102 133 -53
69 -95 108 -110 103z"/>
</g>
</svg>
