<?xml version="1.0" standalone="no"?>
<!DOCTYPE svg PUBLIC "-//W3C//DTD SVG 20010904//EN"
 "http://www.w3.org/TR/2001/REC-SVG-20010904/DTD/svg10.dtd">
<svg version="1.0" xmlns="http://www.w3.org/2000/svg"
 width="640.000000pt" height="853.000000pt" viewBox="0 0 640.000000 853.000000"
 preserveAspectRatio="xMidYMid meet">
<metadata>
Created by potrace 1.16, written by Peter Selinger 2001-2019
</metadata>
<g transform="translate(0.000000,853.000000) scale(0.100000,-0.100000)"
fill="#000000" stroke="none">
<path d="M2640 7833 c1 -38 5 -88 10 -113 5 -25 16 -232 25 -460 21 -591 22
-596 18 -90 -3 250 -9 478 -14 505 -5 28 -9 77 -10 110 0 73 -8 115 -20 115
-5 0 -9 -30 -9 -67z"/>
<path d="M4269 6710 c-33 -28 -59 -38 -59 -22 0 15 16 30 35 35 18 4 18 5 -2
6 -39 2 -53 -35 -51 -127 3 -78 4 -80 21 -61 10 10 22 19 27 19 5 0 18 10 29
22 19 20 21 20 27 3 4 -10 2 -26 -4 -36 -10 -16 -8 -21 12 -34 33 -22 38 -49
14 -75 -11 -12 -18 -24 -15 -27 3 -3 36 -8 73 -11 52 -4 70 -2 78 9 6 8 33 25
60 38 49 22 59 39 15 23 -21 -7 -47 -8 -104 -3 -27 2 -16 43 21 77 44 42 34
45 -13 4 -43 -38 -97 -42 -107 -7 -8 32 -8 31 19 63 14 16 25 34 25 39 -1 6
-14 -6 -31 -25 l-30 -35 3 72 c1 40 0 74 -3 77 -3 3 -21 -8 -40 -24z"/>
<path d="M1553 5274 c3 -49 16 -132 28 -184 42 -184 21 -464 -43 -568 -13 -21
-23 -39 -23 -42 0 -7 -47 -74 -60 -83 -5 -5 5 -6 24 -3 34 6 34 6 16 -14 -10
-12 -26 -19 -34 -17 -9 2 -29 -3 -46 -10 l-30 -14 24 21 c32 27 12 26 -25 -2
-22 -18 -28 -30 -26 -52 2 -16 -2 -34 -9 -40 -9 -8 -10 -4 -5 22 3 21 2 31 -4
27 -11 -7 -13 -55 -4 -79 8 -21 24 -21 24 0 0 8 5 12 10 9 6 -3 10 1 10 10 0
9 5 13 10 10 6 -3 10 -1 10 4 0 6 5 11 10 11 6 0 10 -7 10 -15 0 -8 4 -15 9
-15 4 0 16 -25 26 -56 14 -44 16 -78 13 -151 -3 -52 -10 -99 -17 -106 -8 -8
-11 -5 -11 13 -1 14 -7 39 -15 55 -11 24 -14 26 -15 10 -1 -18 -3 -17 -12 5
-6 14 -12 28 -13 33 -2 4 -4 10 -5 15 -3 9 -6 24 -9 37 -3 19 -21 -20 -21 -46
0 -37 20 -89 33 -86 6 1 13 -8 15 -20 2 -13 -1 -23 -7 -23 -6 0 -11 -10 -12
-22 0 -13 -8 5 -16 40 -21 81 -38 67 -23 -19 6 -35 14 -80 17 -100 3 -20 -2
-96 -12 -168 -10 -85 -13 -137 -7 -144 6 -7 6 -35 2 -70 -10 -69 -20 -86 -20
-34 0 20 -4 39 -10 42 -6 4 -10 -19 -11 -62 l-1 -68 -15 45 c-9 25 -19 101
-24 170 -17 225 -21 250 -39 250 -19 0 -48 -77 -59 -155 -34 -237 -58 -815
-40 -963 13 -103 4 -232 -16 -232 -22 0 -27 18 -8 30 15 8 12 10 -17 8 -30 -3
-36 -8 -44 -36 -5 -19 -20 -41 -33 -49 -13 -9 -23 -25 -23 -38 0 -15 -7 -25
-21 -28 -21 -6 -21 -6 -2 -31 10 -14 20 -26 23 -26 3 0 16 18 30 40 14 22 28
40 32 40 3 0 12 15 18 34 16 48 36 53 60 13 11 -17 20 -39 20 -47 1 -8 6 -2
13 14 l13 29 26 -69 c38 -97 63 -183 55 -190 -4 -4 -13 -1 -22 6 -30 25 -16
-15 20 -57 19 -23 35 -44 35 -48 0 -15 33 -75 41 -75 5 0 6 7 3 15 -14 34 17
11 50 -37 19 -29 55 -77 80 -106 25 -30 46 -55 46 -57 0 -2 -10 -1 -22 2 l-23
6 23 -24 c19 -20 24 -22 32 -9 8 12 10 11 10 -7 0 -14 10 -27 29 -36 l28 -14
-35 96 c-52 143 -89 308 -107 471 -20 188 -45 352 -55 365 -5 6 -14 48 -20 95
-6 47 -17 113 -25 146 -8 34 -17 93 -20 130 -4 38 -11 81 -17 97 -8 20 -7 31
2 42 7 9 19 39 26 68 10 44 12 47 13 20 1 -46 21 -41 21 5 1 20 7 60 14 87
l14 50 4 -40 5 -40 1 48 c1 26 7 47 12 47 16 0 11 -110 -9 -211 -26 -130 -16
-245 34 -389 25 -72 57 -235 75 -380 15 -120 74 -395 102 -477 14 -39 26 -59
34 -56 7 3 15 -8 19 -29 7 -29 9 -30 16 -13 6 16 8 17 8 3 1 -10 7 -32 15 -50
8 -18 18 -51 22 -73 l8 -40 6 45 6 45 10 -35 c6 -19 23 -53 38 -74 15 -23 24
-47 21 -57 -3 -10 1 -23 11 -31 9 -7 30 -26 47 -43 16 -16 32 -30 36 -31 30
-4 61 -18 61 -28 0 -21 -11 -25 -37 -15 l-25 9 23 -37 c19 -31 14 -28 -31 21
-64 69 -94 111 -121 169 l-20 42 7 -40 c4 -22 11 -48 16 -59 6 -10 6 -16 1
-13 -5 3 -15 2 -23 -3 -11 -7 -9 -13 12 -29 16 -13 26 -30 26 -47 0 -19 21
-48 86 -113 47 -47 86 -91 86 -97 0 -6 25 -44 55 -85 30 -41 66 -90 80 -109
24 -31 24 -36 10 -46 -15 -11 -14 -14 7 -27 12 -8 50 -18 83 -21 72 -8 136 9
310 83 66 28 134 51 152 51 41 0 51 17 19 32 -34 15 -19 34 34 43 23 4 40 13
43 23 3 9 7 24 11 32 12 31 -8 42 -43 24 -18 -9 -36 -13 -40 -8 -15 22 -53 7
-91 -35 -22 -25 -40 -46 -40 -48 0 -2 14 -2 31 -1 47 4 44 -14 -7 -38 -43 -20
-69 -15 -45 9 16 16 14 47 -3 47 -8 0 -22 9 -30 21 -8 12 -19 18 -25 14 -17
-10 -13 6 18 67 25 50 27 57 13 61 -12 3 -10 5 5 6 12 0 24 5 27 10 3 5 29 14
57 21 39 10 53 18 61 39 11 28 5 162 -8 183 -10 16 -5 190 6 202 5 4 11 -17
15 -48 5 -38 12 -56 21 -56 8 0 14 -4 14 -9 0 -5 3 -18 6 -28 5 -15 4 -16 -5
-3 -9 12 -10 6 -5 -25 4 -22 13 -44 20 -48 16 -9 19 -37 5 -37 -15 0 22 -238
38 -250 4 -3 22 -31 40 -62 18 -32 34 -58 36 -58 7 0 -15 53 -26 67 -6 7 -19
28 -29 48 -17 34 -17 36 0 58 l19 22 17 -23 c12 -17 19 -21 27 -13 6 6 21 11
33 11 13 0 30 10 38 22 9 12 17 20 19 17 2 -2 11 -16 20 -31 17 -27 17 -28 -3
-28 -33 0 -34 -25 -5 -83 39 -77 63 -105 73 -89 5 7 7 25 5 40 -3 25 -2 24 12
-6 15 -33 12 -77 -5 -67 -5 3 -11 1 -15 -5 -8 -12 -95 -13 -128 -1 -13 5 -38
23 -55 41 l-32 31 -9 -24 c-6 -16 -23 -29 -45 -37 -20 -6 -36 -15 -36 -19 0
-15 218 -111 266 -118 26 -3 59 -12 74 -20 36 -19 222 -17 291 3 33 10 108 52
194 109 176 117 206 131 395 195 213 71 412 172 395 200 -3 5 5 10 17 12 18 3
7 11 -47 38 -68 34 -85 56 -55 70 8 4 29 14 45 22 17 8 51 21 78 28 53 14 52
13 62 124 4 50 15 87 41 140 36 71 83 141 90 134 2 -3 29 20 60 49 64 60 73
86 74 207 0 121 31 206 131 371 27 44 55 102 63 128 20 67 42 97 71 97 13 0
27 5 30 10 3 6 11 10 16 10 6 0 -1 -15 -15 -33 -27 -35 -34 -67 -15 -67 12 0
7 -19 -27 -106 -15 -38 -29 -111 -40 -200 -9 -76 -23 -154 -30 -173 -19 -46
-18 -97 2 -105 13 -5 15 -16 11 -52 -3 -32 -1 -47 8 -51 21 -7 34 -56 41 -151
6 -79 4 -92 -18 -143 -29 -64 -104 -133 -110 -102 -2 13 -15 2 -46 -41 -40
-57 -49 -82 -19 -57 12 9 16 4 25 -31 7 -27 8 -46 2 -52 -7 -7 -10 -4 -10 7 0
19 -11 22 -27 6 -7 -7 -20 -6 -45 4 -29 12 -38 12 -59 1 -37 -20 -43 -17 -20
12 12 15 21 32 21 38 0 16 94 160 132 202 18 19 37 43 43 52 5 10 12 112 16
227 4 116 10 219 14 230 7 20 6 20 -9 1 -9 -11 -16 -29 -16 -40 0 -34 -33
-117 -45 -112 -16 6 -60 -35 -74 -70 -15 -38 -20 -150 -9 -183 l9 -25 21 35
c19 31 22 32 29 14 10 -27 10 -38 -1 -55 -9 -13 -11 -13 -19 -1 -7 11 -13 6
-25 -24 -9 -20 -16 -43 -16 -50 0 -28 -40 -105 -75 -144 -20 -22 -34 -44 -31
-49 3 -6 -4 -12 -15 -15 -15 -4 -19 -2 -15 9 4 11 -5 14 -40 14 -25 0 -43 -3
-41 -7 3 -5 -22 -9 -54 -9 -47 -1 -65 -6 -83 -23 -19 -18 -31 -21 -62 -16
l-39 6 49 -27 c120 -64 209 -83 193 -41 -5 14 18 27 51 27 19 0 -29 -59 -48
-59 -29 -2 13 -28 79 -50 115 -38 290 -22 441 39 84 35 130 66 147 101 63 131
163 362 159 367 -4 3 -18 -5 -32 -19 -19 -18 -27 -21 -33 -10 -7 10 -14 10
-40 -4 -18 -9 -41 -13 -52 -10 -17 6 -19 3 -17 -17 2 -12 -1 -24 -7 -26 -5 -1
-11 8 -13 20 -6 47 -13 69 -21 64 -15 -10 -18 40 -4 60 15 21 18 94 3 94 -15
0 -12 36 4 50 8 6 12 18 9 26 -4 10 2 17 16 21 16 4 20 10 15 22 -4 9 -7 33
-6 54 1 31 -2 39 -23 47 -13 5 -29 18 -34 29 -13 23 -13 87 -2 116 5 12 3 33
-5 53 l-13 33 32 -3 c31 -3 32 -1 35 35 3 36 2 38 -17 28 -29 -16 -44 -14 -70
10 -20 19 -22 27 -16 72 8 55 29 112 45 122 5 3 10 -1 10 -9 0 -8 -4 -18 -10
-21 -17 -11 -11 -61 11 -89 11 -15 39 -36 61 -47 l40 -20 24 22 c13 12 24 31
24 40 0 18 11 48 55 145 13 29 21 54 19 57 -3 3 -19 1 -35 -5 -25 -8 -34 -7
-50 8 -20 18 -21 18 -34 1 -6 -9 -18 -17 -24 -17 -6 0 -28 -8 -49 -19 -69 -34
-75 -5 -20 98 16 29 26 56 23 59 -3 4 -10 0 -14 -7 -5 -7 -14 -11 -20 -7 -5 4
-28 -3 -51 -14 -51 -26 -55 -5 -5 28 19 12 35 27 35 32 0 6 18 10 41 10 29 0
38 -3 33 -12 -6 -9 -3 -9 9 0 22 18 3 50 -33 54 -31 4 -34 38 -5 53 11 5 36
20 55 31 19 12 52 25 73 28 44 8 59 33 31 53 -25 18 -49 12 -49 -12 0 -16 -8
-21 -42 -23 -35 -3 -53 -13 -114 -68 -40 -36 -77 -73 -83 -83 -6 -10 -21 -36
-32 -57 -26 -47 -104 -114 -104 -89 0 9 7 30 16 46 8 17 13 33 10 36 -14 14
-38 -12 -62 -64 -14 -32 -42 -89 -61 -128 -20 -38 -45 -88 -56 -110 -13 -26
-22 -67 -24 -115 -2 -41 -8 -79 -13 -84 -15 -15 -21 97 -10 189 6 50 14 131
17 180 3 50 9 95 13 100 8 11 -2 111 -13 121 -3 4 -18 -1 -32 -10 -14 -9 -29
-14 -34 -12 -9 6 3 88 15 108 4 6 2 8 -4 4 -6 -3 -15 2 -21 11 -7 14 -13 15
-22 6 -13 -13 -2 -36 13 -27 8 5 9 1 5 -10 -4 -10 -7 -19 -7 -21 0 -2 -9 -1
-20 2 -16 4 -18 8 -9 19 14 17 -2 18 -21 2 -8 -7 -1 4 16 24 34 42 76 55 127
39 40 -13 52 -34 37 -61 -13 -24 -13 -70 0 -70 6 0 10 10 10 23 0 41 17 52 24
15 7 -29 9 -30 16 -13 9 23 48 59 73 68 14 5 17 1 17 -23 0 -36 -37 -78 -77
-86 -26 -5 -31 -12 -42 -56 -17 -76 -16 -82 14 -62 23 15 25 15 31 0 15 -39
77 56 71 109 -1 15 5 21 25 23 15 2 53 27 90 59 83 75 171 130 233 148 36 11
56 23 68 44 22 37 185 192 261 249 60 44 136 109 136 116 0 2 -12 7 -27 11
-24 6 -26 8 -10 16 9 6 17 15 17 21 0 6 -10 2 -22 -9 -41 -37 -80 -51 -123
-44 l-40 7 27 18 c15 10 35 15 45 12 20 -6 95 36 168 94 33 27 40 29 45 15 5
-15 7 -15 21 2 9 10 19 27 23 37 7 20 7 20 -15 0 -11 -10 -30 -18 -41 -16 -11
2 -30 -5 -42 -16 -32 -28 -118 -84 -123 -79 -2 3 7 17 22 32 27 30 58 117 49
140 -3 7 4 23 15 34 27 27 27 50 0 25 -15 -13 -22 -15 -28 -6 -5 8 -17 9 -44
1 -49 -13 -47 -21 3 -13 26 4 40 3 40 -4 0 -15 -38 -26 -84 -23 -48 2 -60 9
-48 24 6 7 6 21 1 36 -9 23 -10 23 -29 6 -11 -10 -20 -27 -20 -37 0 -25 -18
-58 -31 -58 -6 0 -7 14 -3 38 4 20 8 44 9 52 13 109 21 144 45 193 l29 57 -28
0 c-34 0 -74 -35 -66 -59 7 -24 -4 -51 -20 -51 -8 0 -16 -9 -20 -19 -3 -11
-13 -22 -21 -25 -12 -4 -15 -2 -11 9 4 8 0 21 -8 29 -8 8 -15 20 -15 27 0 8
-7 6 -19 -5 -11 -10 -33 -18 -49 -19 -32 -2 -55 -18 -169 -114 -116 -98 -123
-78 -14 35 34 34 70 62 80 62 10 0 40 23 66 51 48 51 84 68 145 69 19 0 21 -3
12 -12 -16 -16 -15 -28 1 -28 20 0 79 79 60 81 -59 8 -163 -6 -163 -22 0 -5
-7 -9 -15 -9 -8 0 -22 -12 -31 -26 -20 -29 -90 -68 -99 -55 -3 6 9 27 27 47
l33 38 -30 -19 c-120 -76 -208 -162 -249 -243 -14 -28 -26 -56 -26 -61 0 -12
41 -11 58 2 20 15 14 -11 -10 -43 -19 -27 -20 -32 -8 -55 12 -22 12 -28 -2
-41 -19 -19 -38 -11 -38 17 0 10 -7 19 -15 19 -7 0 -19 8 -24 18 -8 13 -10 2
-11 -46 0 -46 -3 -63 -13 -60 -18 6 -19 53 -4 141 7 42 10 77 6 77 -16 0 -73
-165 -63 -181 11 -18 -10 -80 -37 -111 -16 -18 -29 -41 -29 -51 0 -11 -8 -21
-17 -24 -10 -2 -29 -20 -43 -39 -33 -46 -106 -94 -144 -95 -99 -3 -141 -13
-131 -29 4 -6 58 -9 146 -7 157 3 161 1 117 -68 -26 -39 -43 -44 -51 -15 -12
47 -62 3 -52 -46 5 -31 2 -35 -50 -74 -46 -34 -55 -45 -50 -63 6 -21 5 -21 -9
-3 -8 10 -19 15 -24 12 -17 -10 -21 -60 -7 -87 9 -17 11 -29 4 -36 -11 -11 -1
-45 12 -37 22 13 129 -74 129 -107 0 -12 8 -23 19 -26 11 -3 22 -15 24 -26 33
-136 35 -410 4 -445 -17 -19 -47 -26 -47 -10 0 4 -9 8 -21 8 -53 0 -101 89
-64 120 8 7 15 21 15 31 0 11 5 28 12 38 9 14 8 26 -2 50 -17 43 -38 40 -42
-6 -2 -26 -8 -38 -18 -38 -45 0 8 121 71 160 22 14 42 32 45 40 10 25 -12 47
-47 50 -19 1 -52 14 -73 28 -21 15 -44 27 -51 27 -14 0 -27 -75 -19 -106 4
-14 -3 -24 -25 -37 -35 -20 -67 -21 -100 -3 -14 8 -31 12 -37 9 -7 -2 -20 7
-29 20 -14 23 -20 24 -46 15 -32 -11 -35 -18 -18 -35 9 -9 8 -21 -5 -48 -16
-33 -16 -37 1 -66 l18 -30 -34 -28 c-32 -26 -33 -30 -25 -66 10 -39 33 -61 30
-28 -1 13 7 19 27 21 30 4 36 -12 11 -26 -12 -7 -4 -11 33 -16 53 -7 143 -58
143 -81 0 -7 -15 -23 -32 -34 -18 -12 -46 -33 -63 -47 l-30 -25 49 25 c27 15
60 26 73 26 23 0 23 0 6 -27 l-17 -26 29 7 c17 4 47 10 68 13 33 5 54 23 25
23 -7 0 3 11 22 25 35 26 65 32 75 15 3 -5 24 -10 46 -10 36 0 40 -2 34 -20
-10 -30 0 -24 28 19 15 22 40 54 57 71 l30 31 -4 -58 c-3 -35 -10 -59 -18 -62
-7 -2 -40 -31 -73 -64 l-60 -60 58 52 c88 77 93 61 7 -20 -72 -69 -107 -88
-121 -66 -4 5 -14 -4 -23 -21 -23 -44 -20 -59 5 -36 22 19 22 19 9 -5 -6 -13
-20 -25 -30 -28 -9 -3 -25 -19 -34 -36 -13 -26 -15 -27 -10 -7 3 14 14 42 25
63 10 21 19 43 19 50 -1 17 -27 -19 -56 -75 -21 -41 -29 -48 -55 -48 -38 0
-65 14 -81 43 -16 29 -19 108 -4 126 9 11 7 13 -12 7 -14 -5 -22 -3 -22 5 0 8
-7 6 -20 -6 -13 -12 -17 -22 -11 -33 5 -9 5 -25 -1 -37 -9 -21 -11 -21 -44 -6
-38 18 -42 28 -17 46 9 7 13 17 8 24 -9 15 -38 -28 -49 -72 -3 -15 -11 -25
-16 -22 -5 3 -13 -3 -19 -12 -9 -17 -10 -17 -16 0 -4 9 -1 24 6 34 9 10 14 43
14 92 0 42 3 81 7 87 11 17 -19 51 -52 58 -20 4 -56 -3 -102 -18 -40 -14 -76
-22 -82 -19 -5 4 -7 -1 -3 -11 4 -10 7 -32 7 -49 0 -24 3 -28 12 -19 19 19
125 16 136 -4 6 -11 11 -13 16 -5 11 17 26 13 26 -7 0 -23 -30 -52 -55 -52
-14 0 -15 3 -5 15 10 12 9 15 -5 15 -15 0 -16 2 -4 17 12 15 12 16 -5 10 -50
-19 -110 -27 -120 -17 -6 6 -11 59 -12 123 -1 62 -7 125 -14 141 -6 17 -24 90
-40 165 -28 125 -40 165 -40 129 0 -16 47 -279 56 -313 3 -11 -6 -1 -21 22
-31 51 -61 134 -71 200 -7 44 -8 46 -14 18 -5 -27 -9 -22 -33 50 -14 44 -38
125 -51 180 -14 55 -34 126 -45 157 -12 32 -21 64 -21 73 0 19 -77 165 -97
185 -14 13 -15 9 -10 -45 3 -33 13 -82 22 -108 25 -74 56 -259 65 -388 5 -86
13 -128 30 -165 30 -66 50 -141 50 -189 0 -22 7 -80 15 -130 8 -49 18 -105 21
-123 4 -26 9 -32 23 -27 15 4 21 -2 29 -32 6 -21 15 -53 21 -72 l10 -33 -22
18 c-12 11 -25 24 -29 29 -5 6 -12 4 -18 -5 -7 -11 -4 -17 9 -22 10 -3 24 -20
31 -37 13 -31 25 -40 32 -21 2 6 11 -9 20 -34 17 -45 17 -46 -5 -58 -12 -6
-31 -23 -42 -37 -45 -58 -98 -110 -106 -105 -5 3 -23 -6 -40 -20 -17 -14 -35
-26 -41 -26 -6 0 -8 -7 -4 -15 7 -20 0 -19 -23 4 -24 24 -25 77 -2 92 12 7 13
12 4 15 -7 3 -13 17 -13 30 0 20 -5 24 -30 24 -33 0 -38 11 -14 31 24 20 74
111 73 134 0 14 -6 8 -21 -20 -25 -47 -78 -118 -85 -111 -2 2 3 18 11 35 9 17
19 59 22 93 l5 63 -25 -55 c-14 -30 -26 -68 -26 -85 -1 -16 -5 -39 -9 -50 -5
-11 -5 -27 0 -36 4 -8 3 -22 -2 -30 -8 -14 -10 -11 -13 21 -4 33 -27 100 -38
106 -8 5 -9 2 -5 -9 4 -10 10 -24 13 -32 9 -22 -14 -18 -26 5 -6 11 -19 20
-28 20 -24 0 -74 54 -101 107 -36 73 -29 115 35 211 57 84 57 84 50 143 -7 75
-21 100 -121 230 -46 58 -97 132 -115 165 -85 154 -99 183 -119 244 -12 36
-25 106 -31 155 -5 50 -14 121 -20 160 -6 38 -8 81 -5 95 16 75 20 113 18 197
-2 79 0 92 15 97 20 6 42 4 60 -7 8 -5 12 -2 12 8 0 10 12 26 26 37 24 20 32
34 48 86 6 18 4 22 -13 22 -14 0 -21 -6 -21 -20 0 -12 -7 -32 -17 -46 -16 -25
-19 -25 -88 -19 -49 5 -75 4 -79 -4 -12 -19 -26 -12 -43 24 -21 44 -9 61 31
45 15 -5 37 -10 49 -10 20 0 19 2 -8 18 -45 28 -58 48 -51 78 4 14 4 53 0 87
-5 46 -13 66 -32 84 -27 25 -54 31 -50 11 3 -19 -12 -58 -23 -58 -12 0 -12
-46 0 -68 6 -11 4 -31 -5 -57 -16 -49 -11 -57 11 -16 20 40 27 39 23 -1 -2
-22 1 -32 10 -30 13 2 16 -10 5 -21 -3 -4 -12 1 -19 11 -12 16 -13 16 -19 -1
-5 -12 1 -25 20 -41 16 -14 22 -25 16 -27 -9 -3 -9 -22 -2 -74 38 -269 54
-467 22 -279 -20 119 -24 79 -7 -68 9 -73 15 -173 14 -223 -1 -49 4 -115 11
-145 7 -30 15 -66 18 -79 3 -19 6 -22 13 -11 7 11 11 8 20 -15 8 -21 13 -26
19 -16 6 9 10 6 14 -11 4 -13 20 -44 36 -68 17 -26 34 -70 40 -105 6 -33 24
-99 41 -147 16 -49 34 -128 39 -180 5 -51 22 -131 36 -178 14 -47 30 -127 34
-178 12 -132 27 -135 19 -4 -4 66 -14 132 -28 172 -11 36 -32 124 -45 195 -14
72 -34 162 -44 200 -11 39 -20 84 -20 102 -1 17 -6 44 -11 59 -18 47 14 11 37
-43 12 -26 43 -95 69 -151 40 -90 47 -112 46 -165 -5 -240 -3 -274 17 -354 12
-45 32 -104 46 -131 18 -35 23 -59 19 -80 -5 -25 -2 -33 19 -47 15 -9 30 -34
38 -61 8 -25 18 -43 25 -40 6 2 19 -9 28 -26 14 -23 17 -41 11 -84 -3 -30 -11
-54 -16 -54 -5 0 -9 6 -10 13 0 6 -4 2 -9 -11 -11 -25 -35 -29 -44 -6 -3 8
-11 12 -17 8 -11 -7 -9 -125 7 -299 7 -80 9 -83 37 -78 14 3 30 -2 39 -10 11
-12 18 -13 27 -4 8 8 11 5 11 -11 0 -12 -4 -22 -9 -22 -14 0 -23 -32 -11 -44
5 -5 10 -21 10 -33 0 -29 -32 -93 -37 -76 -4 10 -9 9 -20 -3 -11 -11 -26 -14
-45 -10 -20 4 -30 1 -34 -9 -4 -8 -14 -15 -24 -15 -17 0 -17 3 1 63 10 34 19
85 19 112 0 28 6 69 13 93 10 32 10 62 3 120 -9 70 -11 239 -5 352 2 27 -6 73
-19 110 -12 36 -28 88 -36 115 l-14 50 -3 -40 c-1 -22 -2 -46 -1 -54 0 -8 -6
-21 -15 -29 -9 -10 -13 -25 -9 -42 2 -15 1 -31 -3 -36 -5 -5 -12 -20 -16 -34
-6 -20 -5 -23 6 -13 21 20 53 17 44 -4 -3 -10 -10 -37 -15 -61 -9 -53 -16 -60
-36 -40 -24 24 -30 102 -10 133 15 22 15 25 1 25 -23 0 -65 -45 -65 -70 0 -11
-5 -20 -11 -20 -18 0 -36 62 -42 140 -3 41 -3 66 0 56 4 -15 7 -16 13 -5 6 8
24 13 49 12 40 -2 41 -1 41 32 0 31 -3 35 -37 42 -21 4 -40 7 -43 6 -3 -1 -3
34 -2 77 3 45 -3 119 -12 172 -9 51 -20 145 -25 208 -11 123 -32 207 -87 332
-95 216 -134 381 -154 650 -11 165 -61 446 -96 543 -14 39 -35 96 -46 128 -30
85 -33 63 -4 -34 28 -99 59 -285 81 -494 40 -376 48 -433 76 -541 31 -124 35
-150 16 -119 -15 25 -17 25 -145 32 l-105 6 7 -49 c14 -102 29 -163 37 -158 5
3 47 -2 93 -11 61 -11 91 -12 111 -5 14 5 28 10 29 10 12 0 51 -283 60 -432
l5 -87 -54 -30 c-30 -17 -63 -31 -74 -31 -11 0 -23 -4 -26 -10 -9 -15 -25 -12
-25 5 0 22 -13 18 -46 -12 l-29 -27 -6 37 c-3 20 -13 54 -22 74 -24 54 -87
304 -75 297 11 -7 3 125 -12 187 -8 33 -8 33 -10 -16 -2 -47 -2 -48 -11 -20
-6 17 -12 179 -14 360 -2 287 -6 376 -20 555 -2 19 -4 127 -6 240 -3 201 -3
199 -9 -110 -7 -312 -28 -690 -40 -690 -10 0 -59 251 -72 367 -7 65 -16 109
-21 106 -6 -4 -8 6 -4 23 7 35 -12 178 -58 449 -35 200 -62 308 -65 255 l-2
-25 -7 25 c-10 32 -50 110 -57 110 -2 0 0 -9 6 -19 5 -11 10 -27 10 -37 0 -16
-1 -16 -20 1 -19 17 -20 17 -20 -1 -1 -15 -4 -13 -16 9 -28 52 -25 21 8 -74
32 -94 32 -95 39 -354 3 -143 9 -267 12 -275 3 -8 11 -82 17 -165 6 -82 22
-229 35 -325 13 -96 26 -217 29 -267 9 -139 59 -342 119 -484 9 -19 32 -91 52
-159 20 -68 59 -174 87 -234 48 -107 87 -221 88 -259 0 -11 -16 -37 -35 -60
-19 -22 -33 -43 -30 -45 8 -9 -16 -42 -30 -42 -22 0 -76 -36 -67 -45 4 -4 -1
-5 -11 -2 -10 4 -27 7 -37 7 -18 0 -35 46 -19 55 4 3 -3 17 -15 30 -17 18 -34
25 -60 25 l-37 0 41 38 c22 22 40 45 40 52 0 7 -22 -8 -50 -34 -56 -52 -85
-62 -46 -15 27 31 34 63 16 74 -12 7 -38 -33 -46 -73 -3 -17 -2 -45 4 -62 11
-31 5 -39 -16 -18 -9 9 -12 9 -12 -2 0 -7 -3 -10 -6 -7 -4 4 -1 14 7 23 11 14
10 17 -4 25 -9 6 -17 16 -17 24 0 8 -5 17 -12 21 -8 5 -9 2 -5 -9 7 -18 -8
-24 -18 -7 -3 5 -14 10 -24 10 -25 0 -99 66 -120 109 -11 20 -36 91 -56 156
-31 101 -38 143 -45 260 -6 82 -18 173 -30 220 -85 327 -117 484 -124 615 l-5
105 37 77 c30 63 43 79 69 88 43 15 103 73 114 112 15 54 9 65 -12 23 -29 -60
-53 -79 -98 -80 -43 -1 -69 -17 -82 -52 -5 -13 -14 -23 -20 -23 -8 0 -9 26 -6
88 10 142 7 355 -4 389 -8 26 -7 38 7 62 17 29 17 33 1 83 -9 29 -21 100 -27
158 -27 273 -27 285 16 325 l26 24 -26 7 c-14 3 -26 9 -26 13 0 19 30 42 70
55 25 8 37 14 26 15 -12 1 -16 6 -12 17 3 9 16 69 27 133 27 146 29 389 5 426
-8 13 -18 54 -20 92 -4 46 -3 60 3 43 7 -20 9 -14 9 30 1 63 -16 121 -37 128
-12 4 -13 -10 -8 -84z m3612 -1364 c9 -15 -34 -92 -74 -129 -20 -18 -55 -47
-78 -63 -23 -17 -44 -36 -47 -43 -2 -7 -36 -23 -75 -35 -107 -33 -115 -17 -45
87 58 85 67 93 110 86 21 -3 34 -1 34 5 0 13 28 42 41 42 5 0 9 -14 9 -31 0
-34 23 -37 28 -3 7 43 26 74 51 83 35 13 39 13 46 1z m-3041 -495 c9 -44 27
-138 40 -210 14 -71 59 -269 102 -440 42 -170 78 -323 80 -340 4 -30 4 -30
-10 5 -101 237 -158 438 -220 780 -26 143 -31 191 -27 280 3 65 9 51 35 -75z
m601 -1372 c5 -46 3 -68 -5 -73 -8 -5 -7 -9 4 -13 25 -10 20 -55 -6 -59 -16
-2 -23 -10 -23 -25 0 -11 -3 -25 -7 -29 -5 -4 -8 -2 -8 4 0 7 -5 12 -11 12 -6
0 -9 -7 -5 -15 3 -8 2 -15 -2 -15 -5 0 -14 16 -22 35 -8 19 -18 35 -22 35 -5
0 -4 -9 2 -19 15 -29 12 -41 -10 -41 -16 0 -20 7 -20 31 0 23 -4 30 -15 25 -9
-3 -19 3 -26 16 -8 15 -13 17 -19 8 -6 -9 -10 -8 -19 6 -9 17 -11 16 -12 -11
-1 -24 -3 -21 -10 15 -11 61 -20 157 -11 110 6 -32 10 -35 37 -32 54 4 75 12
75 27 0 16 -34 38 -44 28 -3 -3 -6 -1 -6 5 0 7 5 12 10 12 6 0 10 6 10 13 0 8
24 13 79 14 l79 2 7 -66z m942 -142 c0 -22 -5 -37 -9 -35 -4 3 -8 -12 -8 -33
0 -33 -9 -74 -34 -163 l-7 -25 21 25 c16 20 19 21 13 5 -4 -11 -15 -33 -25
-50 -30 -51 -31 -56 -19 -91 7 -19 9 -39 5 -46 -5 -8 -2 -9 12 -3 10 4 27 7
37 7 21 -1 61 81 54 110 -3 10 -2 18 3 18 17 0 19 65 4 133 -13 61 -14 78 -2
111 16 49 32 55 54 21 23 -35 71 -175 80 -230 3 -24 12 -50 20 -56 9 -8 14
-33 14 -75 0 -49 4 -65 17 -73 10 -5 14 -13 10 -17 -4 -4 -13 -2 -19 4 -17 17
-28 15 -28 -6 0 -10 -5 -23 -11 -29 -13 -13 -1 -39 30 -68 20 -17 24 -18 49
-3 15 8 40 18 55 22 29 7 110 79 118 105 4 11 13 9 42 -10 20 -13 35 -28 34
-34 -5 -16 -96 -62 -191 -96 -78 -28 -91 -30 -100 -17 -7 10 -17 12 -26 7 -30
-16 -159 -69 -169 -69 -5 0 -21 -11 -35 -25 -18 -18 -36 -25 -63 -25 -27 0
-34 3 -24 9 14 9 34 67 47 139 5 22 3 32 -6 32 -8 0 -10 13 -6 43 5 39 5 40
-5 10 -5 -18 -13 -33 -18 -33 -25 0 -62 -164 -38 -173 9 -4 9 -7 -1 -18 -10
-11 -15 -10 -30 4 -22 23 -21 109 3 192 9 33 18 76 19 95 1 19 14 56 29 82
l28 46 -21 36 c-21 38 -27 91 -11 100 5 3 18 26 30 52 16 33 19 49 11 59 -8
10 -2 18 25 34 19 11 35 25 35 31 0 5 2 10 4 10 3 0 4 -18 3 -39z m-306 -194
c9 -7 24 -42 33 -79 18 -73 13 -98 -24 -118 -17 -9 -20 -8 -20 9 0 22 -40 40
-100 44 -23 2 -25 5 -21 42 5 57 28 98 51 92 11 -3 24 1 31 9 14 17 29 17 50
1z m799 -92 c25 -14 24 -14 -20 -17 -25 -1 -61 -1 -79 0 -19 1 -38 -4 -43 -11
-6 -9 -8 -9 -8 1 0 10 -5 10 -21 2 -11 -7 -28 -9 -36 -6 -13 5 -14 4 -3 -9 7
-8 27 -15 44 -16 52 -2 71 -12 74 -41 2 -22 -1 -28 -17 -28 -11 0 -23 5 -26
10 -3 6 -15 10 -26 10 -11 0 -22 6 -25 14 -3 8 -11 13 -17 10 -12 -4 -77 57
-77 71 0 4 9 5 20 2 11 -3 20 -2 20 3 0 4 24 6 53 4 28 -2 59 1 67 6 22 14 91
11 120 -5z"/>
<path d="M2707 5233 c-16 -300 -4 -430 39 -426 10 1 27 -10 38 -25 22 -27 57
-127 48 -137 -3 -3 -28 -5 -56 -5 -28 0 -57 -4 -65 -9 -20 -13 3 -23 34 -15
19 5 25 2 25 -10 0 -18 37 -22 60 -5 12 8 8 9 -15 5 -28 -4 -27 -4 7 12 32 14
38 22 38 49 0 34 -63 139 -99 164 -39 27 -50 106 -44 328 3 110 4 201 1 201
-3 0 -8 -57 -11 -127z"/>
<path d="M5195 4900 c3 -30 10 -92 15 -138 8 -66 7 -103 -5 -175 -19 -109 -42
-177 -61 -177 -18 0 -18 -5 2 -35 19 -30 43 -23 36 10 -5 29 22 75 44 75 10 0
14 -6 10 -15 -4 -11 1 -15 17 -15 31 0 47 18 47 52 0 30 -9 35 -29 16 -19 -20
-51 28 -51 76 0 30 3 37 15 32 9 -3 18 0 20 7 7 17 -42 304 -55 325 -9 13 -10
5 -5 -38z"/>
<path d="M4096 4644 c-12 -31 -6 -62 12 -66 16 -5 21 -27 36 -179 9 -96 22
-202 27 -237 5 -35 9 -98 8 -141 -2 -76 13 -135 25 -101 3 8 7 58 10 110 3 52
9 140 15 195 5 55 12 146 15 203 4 92 2 102 -13 102 -26 0 -32 10 -20 32 12
22 -3 49 -15 29 -14 -23 -35 -11 -34 19 1 35 1 35 -33 44 -19 4 -29 1 -33 -10z"/>
<path d="M2514 4552 c5 -8 0 -12 -13 -12 -12 0 -20 -5 -18 -11 1 -6 -7 -13
-18 -15 -11 -1 -28 -13 -37 -24 -23 -29 -9 -55 28 -55 26 0 29 -4 36 -44 6
-38 4 -48 -17 -73 -30 -36 -31 -60 -4 -105 18 -28 64 -63 84 -63 16 0 0 31
-35 65 -41 40 -51 65 -25 65 8 0 15 -8 15 -19 0 -10 11 -26 25 -35 24 -16 34
-10 16 10 -17 18 -21 61 -7 79 13 18 15 17 54 -13 22 -18 43 -32 46 -32 23 0
-25 117 -67 162 -14 15 -23 28 -21 31 6 6 -71 2 -81 -4 -5 -4 -16 -1 -22 6
-18 19 37 57 82 57 19 0 39 6 46 14 9 11 7 14 -14 14 -14 0 -33 3 -43 7 -12 4
-15 3 -10 -5z"/>
<path d="M1071 4467 c-24 -29 -42 -91 -40 -140 0 -29 0 -81 0 -116 -1 -38 3
-68 10 -75 8 -8 13 -8 16 2 4 10 8 10 19 1 17 -14 18 -31 2 -47 -7 -7 -13 -18
-14 -25 -2 -28 -17 -77 -24 -77 -4 0 -10 -30 -13 -67 -6 -69 -71 -240 -104
-273 -14 -13 -14 -13 -4 7 6 12 11 31 11 42 0 46 -35 3 -86 -106 -30 -62 -56
-113 -58 -113 -6 0 43 129 79 208 19 41 35 80 35 86 0 6 9 22 20 36 11 14 20
34 20 46 0 28 43 151 68 196 14 24 18 40 11 44 -7 4 -9 24 -5 53 9 62 -7 33
-24 -44 -7 -33 -23 -78 -35 -100 -13 -22 -49 -116 -80 -210 -31 -93 -67 -197
-80 -230 -13 -33 -26 -79 -29 -102 -2 -23 -11 -54 -20 -70 -23 -46 -55 -143
-47 -143 12 0 -5 -81 -17 -89 -12 -7 -27 -93 -38 -213 -5 -59 -3 -78 6 -78 9
0 10 -13 5 -47 -8 -53 -23 -90 -26 -63 -3 27 -17 -44 -18 -90 0 -34 2 -41 10
-28 5 10 16 15 24 12 11 -4 15 1 15 17 0 12 3 19 7 15 9 -9 41 131 38 169 -1
17 -3 42 -4 57 0 17 -6 27 -13 25 -9 -1 -14 17 -16 62 -3 65 12 122 30 118 6
-1 15 12 21 28 20 60 30 61 44 4 15 -66 16 -92 3 -84 -6 4 -11 -9 -12 -29 -1
-20 -2 -44 -2 -53 -1 -10 5 -17 12 -16 16 4 15 -17 -1 -42 -20 -30 -58 -129
-58 -151 1 -52 14 -121 27 -141 19 -29 18 -32 -7 -26 -18 5 -20 2 -18 -23 3
-44 0 -64 -10 -64 -5 0 -11 10 -13 23 -3 12 -8 -4 -12 -35 -9 -64 3 -153 21
-153 6 0 15 -3 19 -7 4 -4 12 -3 19 2 18 15 81 -45 77 -75 -5 -39 16 -38 24 1
l7 37 15 -29 c8 -16 26 -41 40 -56 14 -15 26 -36 27 -45 2 -28 14 -43 34 -43
10 0 29 -16 42 -35 13 -19 31 -35 40 -35 36 0 74 -62 84 -140 8 -64 14 -75 89
-161 31 -35 56 -71 56 -80 0 -23 42 -59 69 -59 23 0 83 -37 152 -95 47 -39
119 -79 119 -67 0 6 -45 47 -100 92 -107 89 -130 116 -130 154 0 13 -6 27 -12
29 -9 4 -8 6 2 6 8 1 21 10 28 21 11 19 10 20 -11 15 -21 -6 -27 1 -55 53 -18
33 -32 67 -32 76 0 9 -4 16 -8 16 -5 0 -21 22 -36 50 -30 55 -46 70 -46 44 0
-13 -3 -15 -11 -7 -7 7 -8 17 -1 28 7 13 4 29 -11 59 -11 23 -24 51 -30 64 -7
15 -19 22 -39 22 -31 0 -34 6 -14 29 13 16 39 81 31 81 -2 0 -15 -20 -29 -45
-15 -25 -31 -45 -37 -45 -6 0 -7 5 -3 11 12 20 22 79 14 84 -11 7 -30 -41 -30
-75 0 -17 -3 -30 -6 -30 -13 0 -101 54 -125 76 -29 28 -83 132 -104 202 -14
44 -14 49 8 89 15 31 33 47 59 58 21 8 38 20 38 26 0 6 7 17 15 25 20 20 38
91 30 121 -9 36 -46 83 -66 83 -42 0 -65 92 -48 196 7 40 16 71 20 68 4 -2 10
4 13 14 4 10 18 25 31 32 14 8 39 34 55 59 16 25 45 68 65 96 19 27 35 56 34
65 0 12 -3 11 -12 -4 -60 -93 -74 -110 -103 -122 -51 -21 -94 -64 -120 -118
l-24 -51 5 65 c5 62 58 239 103 341 11 25 29 79 40 120 11 41 39 111 61 156
31 62 43 102 50 160 10 88 32 147 61 165 28 18 25 25 -10 20 -37 -5 -36 -11
-9 154 11 69 18 129 15 132 -4 3 -6 -3 -6 -14 0 -16 -2 -17 -11 -4 -8 13 -12
11 -27 -9 -9 -13 -22 -38 -29 -55 -11 -29 -12 -30 -12 -6 -1 28 31 104 48 114
13 8 15 26 2 26 -5 0 -14 -6 -20 -13z m-234 -1624 c14 -32 27 -65 29 -74 3 -8
-11 -39 -30 -68 -20 -29 -36 -59 -36 -67 0 -19 -16 -18 -24 1 -5 15 9 209 19
254 7 30 12 24 42 -46z"/>
<path d="M3209 4403 c17 -34 14 -45 -11 -37 -21 6 -21 5 4 -24 15 -18 29 -46
33 -63 l7 -32 18 23 18 24 10 -39 c6 -22 16 -67 22 -100 13 -67 44 -190 55
-217 5 -13 2 -18 -8 -18 -9 0 -18 4 -22 9 -3 6 -19 16 -35 24 l-29 15 -6 -53
c-9 -66 -4 -87 52 -238 25 -67 63 -178 85 -246 30 -92 42 -121 49 -109 5 9 6
27 2 40 -5 13 -6 64 -3 113 5 83 6 88 18 61 7 -16 17 -47 22 -70 5 -22 21 -70
34 -105 14 -35 44 -136 66 -225 22 -89 48 -188 59 -221 22 -69 20 -68 174 -85
56 -6 115 -13 130 -17 24 -5 28 -3 25 12 -1 10 -18 25 -35 35 -55 29 -62 39
-65 92 -4 74 -19 80 -116 46 -83 -30 -107 -34 -116 -19 -4 5 -13 44 -22 87
-16 74 -15 78 2 91 11 8 28 22 39 31 20 17 280 131 345 151 56 17 217 40 239
34 24 -6 35 -34 26 -63 -5 -15 -12 -19 -25 -15 -31 10 -44 -28 -29 -84 20 -76
45 -95 51 -38 2 26 8 33 29 35 22 3 25 7 21 27 -3 18 4 32 29 55 36 33 30 50
-14 44 -17 -3 -32 10 -64 51 -29 37 -38 55 -28 57 12 2 11 7 -3 26 l-17 22
-42 -20 c-23 -11 -48 -20 -55 -21 -7 0 -2 -5 11 -10 37 -15 17 -26 -88 -48
-52 -12 -121 -30 -155 -42 -84 -30 -278 -110 -293 -122 -9 -6 -14 -5 -17 4
-15 48 -65 230 -71 259 -4 19 -38 136 -75 260 -37 124 -80 277 -95 340 -44
186 -55 220 -75 230 -10 5 -20 20 -24 32 -3 13 -15 34 -27 48 -17 21 -19 22
-10 3z"/>
<path d="M1616 4343 c-4 -5 -11 -8 -14 -9 -27 -3 -62 -18 -62 -26 0 -12 42 1
52 16 14 20 8 -5 -8 -35 -12 -23 -18 -28 -28 -20 -19 16 -43 4 -50 -25 -7 -27
11 -185 25 -221 5 -13 15 -23 23 -23 7 0 21 10 30 23 14 21 16 21 29 5 13 -17
87 -54 87 -43 0 2 -16 21 -36 41 -21 20 -42 55 -50 82 -16 50 -19 178 -5 186
5 3 11 17 13 31 6 27 5 29 -6 18z"/>
<path d="M4141 3791 c-24 -104 -67 -205 -112 -262 -36 -46 -33 -69 10 -69 28
0 29 2 24 38 -5 39 10 92 26 92 5 0 14 -13 20 -30 12 -35 30 -38 56 -10 10 11
22 17 26 14 10 -6 12 43 9 175 -1 60 -7 92 -20 113 l-18 30 -21 -91z"/>
<path d="M1667 3792 c-19 -20 -23 -77 -7 -87 6 -3 10 2 10 12 0 15 2 16 10 3
5 -8 10 -29 10 -47 0 -25 -4 -31 -15 -27 -12 5 -15 -2 -15 -29 0 -43 15 -55
40 -32 26 23 41 74 43 139 2 78 -36 112 -76 68z"/>
<path d="M3995 3245 c-34 -12 -74 -47 -75 -66 0 -3 26 -11 58 -18 83 -18 175
-65 207 -107 30 -39 28 -60 -7 -69 -37 -9 -100 -125 -68 -125 8 0 61 45 132
113 27 25 23 36 -35 98 -54 56 -119 105 -169 127 -16 6 -28 16 -28 21 0 6 12
17 28 25 34 19 9 20 -43 1z"/>
<path d="M3265 3228 c8 -25 26 -221 20 -226 -1 -2 -15 8 -29 21 -32 30 -35 62
-6 54 14 -4 20 0 20 13 0 12 -12 21 -42 28 -23 6 -44 9 -46 7 -2 -2 -7 -36
-11 -77 -5 -54 -14 -83 -33 -110 -21 -30 -25 -46 -21 -77 5 -35 3 -40 -17 -43
-32 -4 -48 -33 -33 -55 7 -10 21 -37 32 -60 20 -44 37 -59 26 -23 -3 10 1 30
9 43 9 13 22 44 30 70 8 25 21 53 30 62 9 10 16 33 16 56 0 73 37 106 58 52
16 -42 31 -119 41 -203 8 -69 9 -63 10 76 1 190 -28 414 -55 414 -3 0 -3 -10
1 -22z"/>
<path d="M1894 3123 c0 -54 -1 -177 -3 -273 -3 -163 -4 -172 -16 -125 -6 28
-18 61 -24 74 -16 29 -8 85 13 107 17 16 23 79 7 69 -5 -3 -12 -1 -16 5 -4 6
-11 5 -21 -4 -22 -23 -36 -146 -50 -458 -6 -155 2 -194 54 -235 26 -21 52 -60
82 -119 41 -83 44 -95 48 -187 l4 -97 -37 -34 c-28 -26 -35 -39 -30 -55 5 -16
2 -21 -13 -21 -34 0 -43 -23 -19 -46 31 -29 48 -38 43 -22 -3 7 17 31 43 53
32 26 51 52 57 75 14 55 46 53 83 -7 17 -26 31 -57 31 -68 0 -16 2 -17 10 -5
12 19 5 71 -19 148 -11 34 -25 88 -31 120 -19 106 -60 255 -84 306 -62 131
-88 314 -92 640 -2 132 -7 243 -12 248 -6 6 -9 -31 -8 -89z m105 -848 c44
-113 108 -385 94 -399 -9 -9 -65 53 -58 64 5 8 10 8 21 -1 11 -9 14 -7 14 15
0 17 -4 25 -11 21 -6 -4 -17 2 -25 13 -8 12 -21 19 -28 16 -26 -10 -51 116
-26 131 6 3 10 19 10 35 0 15 5 30 11 32 7 2 9 13 5 26 -8 25 -26 30 -26 6 0
-9 -6 -14 -12 -12 -8 3 -16 32 -20 74 -3 38 -15 103 -27 144 -33 116 -24 126
13 15 19 -55 48 -136 65 -180z"/>
<path d="M3227 2717 c-31 -80 -1 -274 60 -397 51 -101 55 -65 10 77 -23 70
-38 140 -42 197 -9 108 -18 148 -28 123z"/>
<path d="M3180 2272 c-7 -23 -19 -47 -27 -53 -18 -16 -16 -85 5 -130 19 -42
42 -59 42 -31 0 9 9 23 20 29 38 24 38 115 0 153 -10 10 -20 31 -22 47 -4 26
-5 26 -18 -15z"/>
<path d="M874 2169 c7 -24 17 -52 21 -61 4 -11 3 -18 -4 -18 -21 0 -11 -28 44
-115 61 -97 84 -126 190 -235 39 -41 85 -97 101 -124 15 -28 50 -77 77 -110
36 -46 45 -62 33 -64 -21 -5 -20 -29 2 -36 9 -3 37 -24 62 -47 55 -50 110 -83
181 -108 30 -10 119 -50 199 -88 80 -38 152 -68 160 -68 27 0 19 20 -13 31
-48 16 -100 39 -236 108 -99 49 -125 67 -126 84 -1 12 -9 30 -18 40 -9 10 -17
24 -17 31 0 17 -48 63 -59 57 -9 -6 -25 23 -18 31 2 2 25 -6 51 -18 87 -38 70
-13 -34 49 -70 42 -114 62 -136 62 -35 0 -70 35 -130 130 -15 25 -49 70 -76
101 -26 32 -74 106 -106 166 -47 86 -129 212 -158 242 -2 3 2 -15 10 -40z"/>
<path d="M5157 2163 c-7 -35 -3 -40 33 -48 38 -8 40 -36 5 -77 -14 -16 -25
-41 -25 -54 0 -31 38 -48 76 -34 19 8 24 15 19 30 -3 10 -6 43 -6 72 -1 56
-25 118 -46 118 -7 0 -13 5 -13 10 0 6 -8 10 -19 10 -12 0 -20 -9 -24 -27z"/>
<path d="M4601 2011 c-7 -13 -13 -40 -13 -60 -1 -51 -60 -209 -69 -184 -4 10
-8 13 -8 6 -1 -7 -9 -20 -20 -30 -10 -10 -21 -28 -24 -40 -5 -22 -2 -23 48
-23 34 0 59 5 68 15 8 8 27 48 42 90 23 63 26 80 16 98 -6 12 -15 51 -19 87
-7 61 -9 63 -21 41z"/>
</g>
</svg>
