<svg version="1.0" xmlns="http://www.w3.org/2000/svg"
 width="640.000000pt" height="853.000000pt" viewBox="0 0 640.000000 853.000000"
 preserveAspectRatio="xMidYMid meet">
<g transform="translate(0.000000,853.000000) scale(0.100000,-0.100000)"
fill="#000000" stroke="none">
<path d="M0 4265 l0 -4265 3200 0 3200 0 0 4265 0 4265 -3200 0 -3200 0 0
-4265z m4120 3548 c72 -42 117 -191 130 -428 24 -460 24 -432 2 -570 -19 -124
-23 -185 -12 -185 9 0 60 159 67 207 3 25 32 97 64 162 33 64 59 125 59 137 0
11 4 24 9 30 13 14 41 105 41 134 0 36 32 158 65 250 25 68 85 158 103 153 9
-2 42 28 42 39 0 12 -40 -10 -74 -41 -25 -23 -27 -23 -18 -5 15 29 69 74 109
91 44 18 138 17 179 -3 46 -22 84 -87 84 -145 0 -24 -7 -84 -14 -134 -15 -91
-28 -226 -46 -459 -8 -113 -13 -136 -41 -195 -36 -74 -79 -210 -109 -346 -12
-49 -33 -130 -47 -180 l-27 -90 -86 -67 c-47 -38 -124 -93 -170 -124 -85 -56
-119 -88 -120 -111 0 -20 26 -15 36 6 9 19 28 34 199 152 192 133 510 401 537
452 6 12 -16 -3 -48 -33 -124 -114 -322 -275 -331 -267 -2 3 11 15 29 28 56
39 281 234 329 285 25 27 78 98 117 157 76 113 175 220 243 263 23 14 38 28
35 31 -3 3 -17 -2 -32 -11 -38 -26 -40 -13 -2 19 44 37 126 75 163 75 53 0
105 -20 146 -57 93 -84 89 -128 -27 -290 -31 -43 -75 -119 -98 -168 -72 -153
-250 -414 -419 -612 -89 -105 -155 -167 -210 -194 -21 -11 -54 -38 -75 -61
-20 -22 -82 -78 -137 -124 -55 -45 -116 -99 -136 -121 -64 -67 -267 -351 -283
-395 -161 -442 -193 -518 -317 -755 -113 -216 -110 -197 -107 -757 3 -414 1
-488 -20 -725 -13 -146 -25 -268 -27 -271 -3 -4 -9 -78 -15 -164 -10 -154 -30
-279 -50 -317 -6 -10 -18 -67 -26 -126 -21 -139 -34 -172 -30 -71 2 42 7 81
11 87 3 6 -1 18 -10 27 -15 15 -15 14 -10 -12 5 -21 4 -25 -3 -15 -8 11 -13 5
-22 -28 -6 -23 -9 -48 -6 -54 2 -7 5 -4 5 6 1 17 2 17 18 2 15 -16 15 -18 1
-26 -21 -12 -35 -56 -43 -139 -4 -36 -10 -69 -14 -75 -16 -19 -31 -168 -42
-395 -9 -198 -9 -242 5 -339 14 -93 15 -119 4 -149 -16 -48 -27 -62 -48 -62
-27 0 -41 24 -47 82 -4 43 -2 58 12 71 14 14 15 23 6 49 -6 17 -11 82 -11 144
0 68 -4 114 -10 114 -5 0 -17 17 -26 38 -18 43 -74 249 -83 307 -10 65 -23 16
-28 -115 -4 -82 -1 -139 11 -201 19 -102 20 -165 3 -199 -16 -32 -48 -37 -71
-11 -23 25 -35 113 -16 109 20 -5 33 55 36 167 2 80 1 91 -6 56 -11 -50 -14
-56 -29 -46 -6 3 -11 38 -11 78 0 60 3 75 20 90 15 13 20 29 20 66 0 28 5 53
11 57 6 3 22 31 36 62 13 30 39 72 57 94 37 43 54 90 57 166 3 57 -12 85 -33
64 -7 -7 -19 -12 -27 -11 -10 0 -7 4 7 9 12 5 22 13 22 17 0 4 -25 51 -55 103
-30 52 -63 112 -72 132 -10 21 -23 38 -28 38 -6 0 -27 13 -47 30 -47 39 -78
50 -138 50 -63 0 -102 14 -94 35 4 10 0 15 -10 15 -9 0 -16 5 -16 10 0 6 -15
10 -33 10 -45 0 -153 54 -160 80 -4 17 -2 20 13 15 10 -3 21 -1 25 5 3 5 1 10
-5 10 -12 0 -11 183 2 218 5 15 3 35 -7 58 -8 19 -17 51 -20 72 -3 20 -9 61
-14 90 -7 43 -5 55 6 59 18 7 24 0 32 -37 8 -40 21 -38 47 8 13 24 29 38 45
40 25 4 96 61 92 74 -2 4 13 18 32 30 35 23 46 52 23 61 -9 3 0 18 23 43 23
25 41 56 48 86 16 68 25 308 13 338 -9 22 -11 18 -12 -30 -1 -94 -19 -239 -34
-275 -15 -35 -40 -44 -80 -29 -23 9 -21 44 2 44 45 0 76 79 87 218 l7 92 -25
-9 c-14 -6 -43 -8 -66 -6 -38 3 -40 2 -40 -23 0 -15 -4 -63 -9 -107 l-8 -80
-8 87 c-11 117 3 189 30 147 10 -17 106 -3 122 18 11 16 12 15 13 -3 0 -18 1
-18 8 -1 9 25 25 23 33 -5 5 -21 6 -21 7 -3 1 17 7 21 34 20 19 -1 44 -9 58
-18 29 -21 46 -22 29 -2 -14 16 -10 18 14 9 9 -3 14 -10 11 -14 -2 -4 21 -16
53 -27 l57 -19 -2 -59 c-1 -32 -14 -92 -29 -134 -20 -59 -26 -94 -25 -156 1
-85 -16 -198 -29 -190 -4 3 -10 -29 -12 -71 -2 -47 -8 -78 -16 -83 -9 -5 -11
-17 -6 -35 3 -15 1 -32 -5 -40 -8 -10 -7 -21 5 -46 14 -27 16 -51 10 -138 -3
-58 -11 -111 -17 -119 -9 -10 -6 -28 15 -77 31 -72 67 -188 61 -194 -4 -4 -26
45 -40 88 -7 22 -8 22 -20 6 -11 -14 -11 -22 1 -44 8 -15 12 -39 9 -53 -4 -17
0 -30 11 -40 16 -13 17 -12 11 9 -5 23 -5 23 13 7 27 -25 32 -55 9 -55 -23 0
-24 4 4 -61 33 -80 75 -153 96 -166 16 -10 21 -8 34 18 12 26 15 28 21 13 4
-10 2 -20 -3 -23 -6 -4 -6 -12 -2 -20 6 -10 13 -5 24 18 11 22 12 31 4 31 -7
0 -2 8 11 18 20 16 25 34 38 147 11 86 14 174 11 260 -4 99 -2 140 9 170 8 22
19 84 24 139 5 54 14 104 21 112 6 7 8 18 4 24 -4 6 -1 17 5 25 7 9 13 64 14
147 2 73 8 153 15 178 13 54 31 282 31 399 0 60 -7 106 -22 154 -19 60 -25 70
-56 83 -40 17 -51 11 -34 -16 7 -12 8 -20 2 -20 -5 0 -10 -10 -10 -23 0 -12
-13 -35 -30 -50 -33 -32 -35 -40 -18 -87 10 -30 12 -32 19 -14 10 25 9 -101
-1 -141 l-8 -30 -2 30 c-1 17 -8 -10 -15 -60 -18 -131 -25 -224 -15 -200 7 16
9 11 8 -20 0 -22 -4 -51 -8 -65 l-8 -25 -2 25 c-3 42 -39 -117 -55 -245 -8
-66 -21 -160 -27 -210 -14 -103 -17 -397 -5 -500 4 -38 6 -67 3 -64 -17 16
-58 258 -63 365 -8 159 0 210 38 245 29 27 29 29 15 57 -34 66 -42 195 -15
263 8 20 7 36 -5 64 -23 55 -20 101 13 159 22 40 31 74 40 156 16 138 15 134
45 215 13 38 33 75 42 82 14 11 15 16 5 26 -10 9 -14 8 -22 -5 -11 -21 -39
-24 -39 -5 -1 7 -6 5 -14 -5 -7 -10 -17 -18 -21 -18 -4 0 -21 -10 -38 -22 -25
-18 -45 -22 -104 -23 -45 0 -72 4 -70 10 5 16 89 18 98 3 7 -10 11 -10 21 0 9
9 9 12 -2 12 -7 0 4 16 26 36 25 22 35 37 27 40 -7 3 -13 12 -13 20 0 8 -4 14
-9 14 -18 0 -73 -58 -67 -69 5 -7 -4 -11 -23 -11 -16 0 -33 5 -36 10 -3 5 -15
10 -26 10 -10 0 -19 7 -19 15 0 9 -10 15 -26 15 -14 0 -33 4 -43 10 -14 7 -23
4 -40 -14 -24 -26 -12 -48 14 -26 22 18 105 -17 105 -44 0 -10 -18 -6 -32 7
-17 17 -67 20 -85 5 -11 -9 -16 -9 -23 2 -5 8 -7 17 -4 21 10 17 -24 29 -51
19 -35 -13 -129 -7 -175 12 -19 8 -56 22 -82 32 -54 20 -91 53 -108 99 -7 17
-26 60 -43 95 -38 79 -56 81 -92 8 -24 -49 -26 -63 -26 -187 0 -74 -3 -140 -8
-148 -12 -19 -101 73 -101 106 0 14 4 21 10 18 6 -4 8 -11 5 -16 -4 -5 -1 -9
5 -9 11 0 9 15 -10 66 -12 30 -58 58 -75 44 -8 -6 -30 -8 -56 -4 -118 18 -221
121 -269 268 -10 31 -21 42 -56 57 -46 21 -65 40 -46 47 7 2 12 16 12 31 0 37
8 43 34 26 23 -17 56 -20 56 -5 0 6 -5 10 -11 10 -6 0 -27 12 -47 28 -29 22
-35 24 -29 8 6 -16 5 -17 -8 -6 -16 14 -18 10 -15 -34 3 -47 -17 -21 -25 32
-3 26 -21 85 -39 132 -31 80 -35 110 -15 110 4 0 26 -26 48 -57 21 -32 55 -73
75 -92 32 -31 38 -33 61 -23 17 8 23 16 18 29 -5 14 -1 13 25 -6 27 -18 32
-29 32 -61 0 -38 23 -146 39 -185 5 -11 19 -49 31 -85 29 -85 71 -130 120
-130 40 0 57 14 84 67 12 24 27 35 56 43 28 7 47 21 64 46 21 32 25 34 34 18
10 -17 12 -17 65 1 46 15 61 17 82 7 57 -26 127 -4 209 67 26 23 51 40 53 37
3 -3 0 -19 -6 -37 -34 -98 17 -185 122 -203 23 -4 59 -25 92 -52 62 -50 71
-47 21 8 -19 20 -31 40 -27 43 3 4 -1 5 -10 3 -19 -4 -119 49 -119 63 0 11 10
6 55 -26 51 -37 61 -39 32 -7 -22 22 -27 36 -22 52 5 17 4 20 -5 15 -8 -5 -11
-3 -8 5 8 26 28 22 28 -4 0 -36 113 -174 118 -144 2 11 -1 40 -7 64 -13 52
-14 124 -2 143 11 17 12 12 35 -178 9 -68 13 -128 10 -133 -4 -6 -1 -8 7 -6 8
3 13 16 11 32 -1 14 2 26 8 26 5 0 10 -13 10 -28 0 -15 5 -33 12 -40 9 -9 4
-12 -24 -12 -41 0 -68 -8 -68 -20 0 -5 8 -8 18 -8 9 1 29 -2 45 -5 17 -5 27
-3 27 3 0 6 4 9 8 6 5 -3 23 4 40 15 36 21 46 24 37 9 -3 -5 -2 -10 4 -10 13
0 32 35 24 43 -3 4 -13 2 -22 -2 -15 -9 -54 -14 -77 -12 -6 1 -11 52 -13 144
-3 199 -14 237 -58 204 -10 -7 -12 -2 -7 24 8 44 8 41 -1 62 -10 23 3 36 16
17 8 -13 10 -13 18 -1 5 8 15 11 23 8 19 -7 58 -158 59 -227 1 -69 17 -39 18
33 1 59 24 61 29 3 3 -31 6 -35 18 -25 21 17 18 101 -4 130 -24 31 -46 154
-39 215 7 63 32 85 92 80 42 -3 75 -23 75 -45 0 -14 37 -24 63 -17 13 3 27 18
33 35 12 29 12 29 -21 24 -27 -4 -33 -2 -38 16 -4 15 1 26 14 34 11 7 34 33
50 60 38 58 64 64 55 11 -4 -19 -10 -43 -13 -52 -15 -40 39 25 72 87 41 76 42
81 16 81 -14 0 -18 5 -14 20 6 21 15 25 27 13 4 -4 22 -9 39 -11 85 -7 107 -6
119 7 10 11 10 12 1 7 -7 -4 -13 -5 -13 -3 0 2 29 52 64 111 36 59 72 131 80
160 9 30 34 93 56 141 22 48 40 93 40 100 0 7 7 18 15 25 8 7 15 22 15 34 0
11 9 36 21 55 26 43 18 52 -12 12 -13 -17 -34 -38 -47 -47 -22 -14 -23 -14
-14 3 5 10 12 35 16 55 9 50 43 89 107 122 41 21 54 24 61 14 13 -21 10 -26
-38 -75 -26 -25 -39 -43 -29 -39 56 21 106 28 120 16 18 -15 19 -3 5 36 -6 15
-12 46 -14 68 -3 40 -3 40 8 13 7 -15 15 -24 19 -20 4 3 4 -7 1 -24 -4 -20 -2
-33 7 -38 9 -6 11 -2 6 16 l-6 24 17 -22 c21 -27 81 -41 93 -22 7 11 11 10 22
-4 12 -17 13 -15 15 23 3 48 16 85 33 96 7 4 28 8 47 9 21 1 40 9 48 20 17 23
18 39 2 29 -18 -12 -5 14 57 110 41 64 60 85 68 77 8 -8 6 -15 -6 -28 -15 -17
-14 -19 10 -30 23 -11 25 -10 20 7 -5 20 8 29 15 9 2 -5 11 -7 21 -3 10 3 16
12 13 19 -3 8 2 16 11 19 19 8 32 -2 16 -12 -8 -5 -9 -13 -3 -22 14 -22 25 -3
38 65 6 33 14 71 17 85 6 25 6 25 -11 -2 -30 -45 -47 -43 -23 3 11 23 15 38 9
34 -18 -11 -3 29 37 97 19 32 38 56 44 53 5 -4 12 2 16 12 3 10 15 29 25 42
10 13 18 32 18 42 0 23 7 24 25 5 12 -11 12 -17 -1 -34 -13 -19 -12 -22 12
-41 30 -23 58 -28 51 -8 -2 6 -10 11 -16 9 -6 -1 -11 4 -11 12 0 9 8 12 25 8
36 -6 31 11 -7 26 -17 6 -29 14 -26 17 3 3 17 1 31 -4 21 -8 26 -7 30 10 6 23
30 25 47 4 7 -8 21 -15 31 -15 16 0 18 5 14 28 -6 26 -6 26 9 8 19 -23 15 -27
55 54 30 62 30 64 6 37 -31 -35 -31 -30 0 24 32 56 32 69 0 39 -14 -13 -25
-19 -25 -13 0 6 7 16 16 24 14 11 14 13 0 21 -19 11 -21 45 -4 50 6 2 20 26
29 54 l17 49 1 -37 c1 -20 -3 -49 -9 -65 -10 -31 -13 -34 42 51 15 22 36 52
47 66 10 14 21 47 24 73 4 44 3 47 -12 34 -9 -8 -23 -18 -31 -22 -13 -8 -13
-6 -1 8 7 9 11 23 8 31 -3 8 1 20 9 26 8 7 14 9 14 5 0 -5 16 9 36 31 l35 39
-4 -45 c-3 -25 -8 -54 -11 -65 -4 -11 5 3 19 30 14 28 23 40 21 28 -2 -13 -1
-23 4 -23 12 0 40 78 34 95 -3 8 -1 15 5 15 6 0 13 -11 17 -25 4 -17 -4 -45
-30 -95 -20 -38 -35 -70 -33 -70 2 0 25 31 51 70 27 38 52 67 57 64 5 -3 9 4
9 15 0 11 5 23 10 26 15 10 12 35 -5 35 -8 0 -15 7 -15 16 0 10 5 14 16 10 10
-4 13 -2 8 6 -19 30 -38 46 -50 41 -8 -3 -14 1 -14 11 0 20 -36 39 -61 33 -10
-3 -17 -1 -13 4 3 5 0 9 -5 9 -6 0 -11 -5 -11 -11 0 -6 -7 -9 -15 -5 -8 3 -15
1 -15 -4 0 -6 -6 -10 -13 -10 -15 0 -87 -59 -72 -60 6 0 24 9 41 19 38 23 138
38 148 22 4 -6 2 -11 -3 -11 -19 0 -12 -17 11 -27 20 -9 34 -63 16 -63 -4 0
-8 10 -9 23 0 12 -3 16 -6 9 -3 -9 -9 -10 -17 -3 -13 11 -65 -29 -149 -116
-28 -29 -55 -53 -61 -53 -6 0 -17 -10 -25 -22 -12 -19 -14 -20 -22 -5 -11 18
21 77 60 111 11 11 21 24 21 29 0 6 7 19 17 29 15 17 15 18 -2 18 -12 0 -15 5
-11 16 5 13 1 15 -21 10 -51 -12 -89 -66 -256 -357 -14 -25 -69 -85 -122 -134
-53 -49 -124 -118 -158 -153 -34 -36 -105 -93 -157 -127 -52 -34 -137 -97
-189 -141 -192 -161 -184 -156 -262 -163 -62 -6 -74 -10 -91 -34 -26 -36 -78
-63 -88 -47 -10 16 -65 -12 -80 -40 -6 -11 -16 -20 -23 -20 -17 0 -118 -105
-195 -202 -38 -47 -56 -78 -47 -78 8 0 24 -10 36 -22 12 -13 19 -17 15 -10 -9
16 45 82 81 99 27 12 27 12 -12 7 l-40 -6 54 48 c63 57 81 69 81 54 0 -16 30
-12 37 6 3 9 15 14 32 12 14 -1 31 1 38 5 19 12 27 -13 12 -39 -8 -16 -18 -22
-29 -19 -14 4 -17 -1 -19 -27 -3 -81 1 -133 9 -136 6 -2 10 -11 10 -20 1 -14
3 -14 16 3 8 11 12 30 9 43 -7 29 11 63 30 56 19 -8 11 -51 -26 -134 -15 -36
-33 -90 -39 -121 -8 -40 -26 -77 -65 -133 -59 -86 -80 -138 -101 -254 l-13
-77 3 90 c5 108 36 204 88 267 45 56 53 71 72 145 9 34 19 70 23 80 15 40 -28
-11 -52 -62 -14 -28 -46 -78 -73 -111 -26 -33 -58 -84 -70 -112 -42 -97 -54
-220 -26 -260 8 -12 11 -22 6 -22 -16 0 -29 23 -42 77 -10 44 -9 66 4 131 17
83 20 125 10 135 -9 8 -44 -24 -61 -57 -19 -37 -129 -170 -178 -215 -19 -18
-42 -46 -50 -61 -8 -16 -30 -41 -48 -57 -39 -32 -82 -106 -123 -212 -17 -44
-44 -91 -66 -114 -21 -22 -38 -43 -38 -46 0 -3 -9 -17 -19 -31 -16 -20 -21
-22 -35 -11 -13 11 -17 9 -26 -13 -13 -36 -21 -33 -13 6 4 22 3 29 -5 24 -7
-4 -12 -18 -12 -31 0 -57 -26 -75 -33 -22 l-3 32 -8 -32 c-9 -33 -26 -45 -26
-18 0 8 -9 15 -20 15 -11 0 -20 6 -20 14 0 18 17 30 22 15 7 -21 38 4 48 40 6
20 17 45 26 56 16 20 16 20 10 -2 -18 -69 -18 -69 3 -38 12 17 21 37 21 45 0
8 11 25 25 38 14 13 27 40 30 60 8 55 102 234 170 325 33 44 75 101 94 126
l35 46 -37 -34 c-46 -44 -47 -35 -2 27 19 27 32 52 29 55 -8 8 35 62 49 62 7
1 11 6 9 13 -4 22 66 115 109 144 49 32 41 37 -13 8 -43 -23 -57 -12 -28 21
11 13 19 19 20 13 0 -5 -6 -16 -12 -23 -7 -7 16 6 52 30 71 46 80 55 80 82 1
111 -361 -333 -585 -718 -32 -55 -86 -145 -120 -200 -35 -55 -65 -109 -69
-120 -5 -18 -69 -85 -160 -170 -45 -42 -78 -50 -131 -30 -35 14 -53 15 -84 8
-62 -16 -68 -5 -37 73 27 72 57 131 120 247 21 38 36 71 33 74 -3 2 -11 -5
-17 -17 -10 -18 -14 -20 -21 -9 -6 10 -9 5 -9 -17 0 -18 -13 -50 -30 -75 -16
-24 -30 -49 -30 -56 0 -6 -8 -18 -18 -25 -24 -17 -67 -93 -82 -145 -7 -24 -17
-43 -22 -43 -5 0 -6 5 -3 10 3 6 1 10 -6 10 -15 0 -59 39 -59 52 0 5 -9 21
-21 37 -27 37 -18 81 18 81 22 0 24 2 12 16 -11 14 -10 19 9 34 28 23 28 28
-3 40 -14 5 -28 18 -32 27 -3 10 -21 37 -40 61 -47 58 -20 53 39 -8 49 -51 58
-57 58 -40 0 34 -165 164 -179 141 -18 -29 -91 30 -78 63 3 7 -3 26 -14 42
-22 34 -25 64 -5 64 8 0 36 -20 64 -45 68 -61 222 -165 244 -165 33 0 19 21
-29 42 -50 22 -105 62 -186 136 -55 50 -128 86 -164 79 -18 -3 -23 0 -21 12 2
12 20 18 68 23 36 4 88 10 117 14 68 8 117 -15 213 -99 44 -40 92 -73 119 -82
64 -21 123 -19 155 6 35 27 33 15 -10 -67 -47 -90 -19 -62 45 44 75 125 87
163 72 222 -7 27 -10 54 -6 60 4 6 2 17 -4 24 -6 7 -9 42 -7 82 2 38 2 61 -1
52 -3 -14 -14 -18 -46 -17 -23 0 -51 4 -62 8 -18 7 -17 9 11 24 17 9 36 23 43
31 12 14 10 16 -11 16 -13 0 -31 8 -39 18 -39 46 -222 124 -250 107 -7 -5 0
-18 18 -37 23 -24 25 -30 13 -38 -23 -14 -52 -12 -122 10 -69 22 -118 26 -118
10 0 -5 4 -10 9 -10 5 0 23 -13 39 -28 17 -16 41 -28 54 -28 14 1 22 -4 20
-13 -1 -7 5 -19 15 -27 16 -12 11 -13 -39 -14 -31 0 -60 -4 -63 -10 -3 -5 -17
-10 -31 -10 -22 0 -93 -31 -159 -68 -11 -6 -54 -28 -95 -47 -106 -51 -109 -55
-103 -123 3 -31 0 -83 -6 -115 -9 -52 -8 -63 9 -97 26 -50 25 -50 -10 -37 -26
10 -31 8 -52 -16 -13 -15 -32 -27 -42 -27 -23 0 -44 -21 -38 -39 3 -8 0 -11
-7 -7 -6 4 -30 45 -53 92 -22 46 -44 84 -49 84 -15 0 -26 -33 -32 -94 -6 -55
-17 -75 -43 -76 -18 0 -44 127 -32 161 12 34 50 40 68 12 10 -16 11 -16 5 2
-21 60 -28 72 -60 93 -19 12 -37 22 -40 22 -3 0 -3 -17 0 -37 16 -99 12 -101
-19 -13 -18 52 -41 110 -50 129 -13 24 -15 36 -7 44 6 6 11 17 11 25 0 8 11
25 24 37 13 12 25 27 28 35 3 10 8 10 25 -1 19 -11 30 -10 78 5 31 10 70 30
86 45 36 34 37 44 4 29 -27 -12 -41 -6 -30 11 3 6 21 11 39 11 47 0 65 35 42
84 -9 19 -26 42 -39 51 -15 10 -17 15 -6 15 8 0 20 -5 26 -11 14 -14 53 5 53
26 0 19 19 19 44 0 10 -8 42 -22 70 -31 28 -9 54 -21 57 -27 5 -6 30 -4 70 7
35 9 109 21 164 26 65 7 102 15 107 24 4 8 43 29 85 46 43 18 83 36 88 40 10
8 43 6 83 -6 12 -3 22 -2 22 3 0 6 -18 15 -40 22 l-40 12 24 37 c13 20 46 90
72 155 52 126 84 173 109 164 8 -4 15 -11 15 -17 0 -17 26 -11 45 10 10 11 24
20 32 20 7 0 13 -9 13 -20 0 -14 7 -20 21 -20 11 0 32 9 46 20 14 11 32 20 39
20 30 0 12 19 -33 36 -65 23 -68 28 -42 53 l23 21 -26 0 c-14 0 -31 -7 -38
-15 -7 -8 -17 -15 -22 -15 -5 0 -21 -9 -35 -20 -33 -26 -49 -25 -56 1 -4 15
-11 20 -22 15 -14 -5 -15 2 -11 52 13 143 16 300 7 325 -6 15 -13 109 -16 209
-3 106 -12 215 -21 261 -13 64 -15 123 -12 306 3 129 10 237 16 253 14 33 62
78 84 78 23 0 34 20 11 20 -40 1 21 30 62 30 23 0 50 -7 61 -15 10 -8 27 -15
36 -15 9 0 32 -19 52 -41 48 -57 73 -166 86 -387 6 -94 15 -202 19 -239 11
-91 75 -418 113 -573 16 -69 35 -146 41 -172 6 -27 16 -48 21 -48 16 0 185 56
193 63 3 4 -1 7 -10 7 -21 0 -21 -7 7 76 24 72 62 154 72 154 2 0 0 -9 -6 -19
-24 -45 -7 -31 20 16 23 40 29 60 24 80 -4 16 -3 25 1 20 9 -8 45 20 45 36 0
5 -8 3 -17 -4 -16 -13 -17 -12 -4 3 7 10 17 15 22 12 5 -3 12 2 15 10 3 9 10
16 16 16 5 0 6 -4 3 -10 -15 -24 14 -7 34 21 23 30 23 30 2 36 -17 4 -19 9
-10 25 6 10 21 23 35 28 14 6 22 15 19 20 -4 6 -12 7 -18 3 -20 -12 -59 -13
-54 0 2 7 28 86 56 177 29 91 59 186 67 212 10 30 15 79 14 135 0 48 1 104 5
123 4 28 3 31 -5 15 -13 -25 -4 371 9 429 13 54 59 117 101 139 42 22 135 17
180 -10z m1253 -1040 c-4 -11 -3 -14 6 -9 8 5 6 -6 -5 -31 -47 -108 -65 -155
-61 -166 2 -7 11 8 20 33 16 41 16 18 1 -32 -3 -10 -1 -18 5 -18 28 0 1 -199
-30 -218 -10 -7 -19 -8 -19 -3 0 5 -14 14 -32 20 -17 6 -29 14 -25 17 3 3 15
1 26 -6 12 -6 21 -8 21 -6 0 7 -38 27 -60 31 -11 2 -19 -1 -17 -8 1 -7 -8 -11
-20 -10 -14 2 -23 -3 -23 -11 0 -8 -8 -17 -19 -21 -10 -3 -58 -67 -107 -141
-61 -93 -101 -144 -128 -162 -27 -18 -44 -40 -53 -67 -20 -59 -145 -240 -165
-240 -9 0 -20 -4 -24 -8 -4 -4 -11 -7 -15 -7 -13 0 -69 87 -61 95 4 5 2 5 -4
2 -7 -4 -17 -1 -23 7 -9 10 -8 15 4 20 19 7 19 30 -1 50 -14 15 -14 17 2 23
10 4 19 2 21 -3 2 -6 26 11 53 38 27 26 73 59 102 74 57 28 190 158 261 254
23 30 67 82 100 114 45 46 61 56 67 45 5 -7 12 -10 17 -6 4 4 2 17 -5 28 -12
18 -11 20 5 17 12 -2 19 -14 21 -35 2 -23 9 -32 27 -35 22 -5 23 -3 18 47 -8
72 44 232 103 323 17 26 26 29 17 5z m-4172 -787 c104 -26 190 -62 261 -108
49 -31 57 -55 12 -38 -31 12 -74 13 -74 2 0 -4 5 -13 12 -20 7 -7 8 -12 2 -12
-13 0 -44 37 -44 54 0 17 -26 39 -78 65 -72 37 -72 17 1 -24 37 -22 67 -43 67
-47 0 -11 -2 -10 -44 7 -45 19 -258 47 -291 39 -33 -8 -33 -40 1 -85 24 -31
25 -41 22 -119 -3 -84 -3 -85 22 -88 28 -4 53 -22 30 -22 -8 0 3 -12 25 -26
67 -44 123 -105 167 -179 50 -84 67 -105 85 -105 7 0 21 -8 31 -17 43 -42 88
-73 119 -84 38 -12 37 -9 18 -45 -8 -16 -15 -44 -15 -62 0 -30 -2 -32 -21 -21
-17 9 -19 13 -8 20 11 7 9 9 -8 9 -32 0 -133 126 -133 165 0 12 -12 28 -27 37
-49 30 -199 188 -186 196 9 5 6 12 -10 21 -19 12 -21 12 -12 0 13 -20 -21 18
-67 73 -21 24 -44 60 -52 79 -8 19 -51 70 -95 114 -56 55 -81 87 -81 103 0 19
20 57 47 92 8 10 89 5 100 -6 6 -6 24 -9 39 -6 l27 5 -34 28 -34 28 66 1 c38
0 107 -10 160 -24z m3145 -131 c-3 -9 0 -15 9 -15 13 0 19 -12 16 -32 -1 -13
44 -4 64 13 26 22 76 45 95 43 8 -1 21 -2 28 -3 6 0 12 -6 12 -12 0 -6 -6 -9
-14 -6 -9 3 -17 -3 -21 -16 -6 -19 -8 -20 -12 -4 -6 21 -21 23 -19 1 0 -9 -7
-21 -17 -28 -10 -6 -38 -30 -62 -53 -43 -41 -51 -69 -31 -101 12 -19 -2 -14
-24 10 -12 13 -18 29 -14 40 7 22 -20 68 -41 68 -21 0 -27 17 -20 60 5 29 12
40 28 43 12 2 24 5 26 6 2 0 1 -6 -3 -14z m-2791 -48 c52 -15 145 -108 184
-184 16 -32 57 -88 89 -124 56 -61 59 -66 41 -77 -10 -7 -19 -19 -19 -27 0
-23 -18 -18 -26 8 -4 12 -16 36 -28 53 -28 40 -155 153 -181 160 -24 6 -75 74
-75 101 -1 33 -27 66 -71 90 l-44 24 45 -7 c25 -3 63 -11 85 -17z m-203 -28
c15 -11 32 -17 38 -14 6 3 23 -3 39 -14 16 -12 32 -21 36 -21 14 0 33 -34 28
-47 -4 -11 -11 -10 -32 3 -25 17 -26 17 -10 -2 9 -10 24 -33 33 -51 17 -34 81
-87 70 -59 -13 34 24 13 83 -46 45 -47 63 -73 68 -100 6 -29 4 -38 -6 -38 -8
0 1 -14 19 -31 31 -28 33 -32 25 -71 -5 -23 -15 -44 -22 -46 -8 -3 -11 0 -7 7
4 6 -3 31 -15 56 -27 53 -36 54 -14 2 8 -21 14 -37 13 -38 -35 -9 -50 -8 -44
6 3 10 -1 15 -11 15 -9 0 -30 15 -46 33 -16 18 -26 24 -23 15 8 -27 -9 -21
-37 12 -14 17 -27 30 -29 30 -2 0 -5 -11 -6 -25 -1 -17 6 -30 23 -41 35 -23
31 -35 -7 -28 -18 3 -46 7 -62 10 -33 4 -47 15 -28 21 6 3 12 14 11 26 0 12
-3 17 -5 11 -8 -19 -54 -3 -69 25 -8 14 -14 21 -15 15 0 -6 11 -28 25 -48 17
-25 20 -36 11 -36 -8 0 -16 6 -19 13 -3 6 -12 28 -21 48 -14 33 -14 36 2 36 9
0 23 -5 31 -11 19 -15 8 21 -27 93 -26 53 -63 86 -49 45 4 -11 -3 -6 -16 11
-56 75 -69 83 -150 90 l-76 7 37 25 c34 24 42 25 117 20 51 -4 75 -3 65 3 -15
9 -100 23 -145 23 -23 0 -24 0 -7 24 16 23 22 24 87 20 l70 -5 -50 14 c-27 8
-67 13 -87 10 -43 -5 -44 -4 -23 17 23 24 189 13 227 -14z m1368 -535 c14 -7
33 -21 42 -32 16 -20 15 -21 -25 -28 -71 -12 -166 -1 -207 25 -12 8 -12 13 4
30 10 11 30 22 45 24 38 6 112 -4 141 -19z m-240 -1510 c0 -6 9 -19 19 -28 30
-27 34 -66 17 -178 -48 -310 -58 -638 -21 -639 6 0 16 30 23 68 39 207 121
493 142 493 4 0 15 -21 25 -47 15 -38 17 -64 12 -147 -3 -56 -13 -119 -21
-141 -47 -130 -77 -264 -90 -405 -11 -115 -48 -209 -92 -228 -24 -12 -47 -68
-42 -104 2 -17 9 -23 26 -22 40 1 2 -25 -49 -34 -41 -8 -42 -9 -16 -15 49 -13
156 56 152 97 -2 14 3 27 10 30 14 5 15 -11 1 -33 -7 -11 -5 -13 8 -8 10 4 21
7 26 7 5 0 16 7 24 16 24 24 20 -5 -4 -31 -20 -21 -20 -21 0 -60 26 -50 26
-91 1 -105 -26 -14 -39 -59 -45 -165 -8 -114 9 -84 22 41 8 73 14 92 33 107
12 10 23 26 24 35 0 9 8 28 17 42 20 30 48 113 48 140 0 11 -5 20 -11 20 -8 0
-7 5 2 16 22 26 30 -16 13 -72 -19 -64 -18 -71 9 -46 28 27 34 27 40 5 3 -10
5 1 6 25 1 45 24 102 41 102 6 0 4 -10 -4 -22 -7 -13 -16 -38 -20 -57 -5 -30
-1 -38 37 -75 24 -22 56 -59 72 -81 40 -57 76 -87 89 -76 6 5 22 30 35 54 l24
45 -41 48 c-23 26 -41 49 -39 50 2 2 19 -1 39 -6 26 -8 40 -20 52 -44 21 -44
20 -51 -7 -89 -29 -40 -49 -87 -38 -87 5 0 11 7 15 15 3 8 10 15 15 15 6 0 8
-7 5 -15 -4 -8 -2 -15 3 -15 5 0 15 17 23 38 22 56 23 59 6 38 -27 -33 -18 3
9 38 22 29 32 34 70 34 27 1 50 -5 59 -13 8 -8 21 -13 28 -10 15 6 115 -100
152 -160 43 -67 48 -81 21 -48 l-27 33 -18 -23 c-26 -33 -34 -121 -20 -211 7
-42 17 -76 21 -76 5 0 6 46 3 103 -3 56 -2 114 3 129 6 19 9 -4 12 -80 7 -234
7 -245 -14 -287 l-20 -40 -7 40 c-4 22 -7 68 -7 101 -1 75 -10 126 -22 118 -5
-3 -9 45 -9 107 0 101 1 111 15 93 14 -19 14 -19 15 2 0 11 4 24 10 30 6 6 6
15 0 24 -8 13 -13 13 -31 2 -20 -13 -21 -12 -14 17 5 25 1 36 -29 68 l-35 38
-1 -27 c0 -15 -4 -30 -10 -33 -6 -4 -10 10 -10 34 0 56 -25 56 -33 0 -6 -45
-40 -89 -69 -89 -11 0 -16 -5 -13 -10 4 -6 16 -10 28 -8 13 2 23 -3 25 -13 2
-12 -5 -15 -28 -14 -27 2 -29 -1 -23 -19 4 -12 7 -39 6 -61 -1 -22 3 -42 8
-46 6 -3 5 -26 -2 -58 -6 -29 -9 -55 -6 -57 3 -3 8 9 12 26 5 24 11 30 25 25
17 -5 17 -3 7 30 -21 68 27 74 66 8 15 -26 39 -123 61 -241 8 -48 -9 -31 -24
24 -11 39 -15 43 -23 27 -16 -30 -50 -63 -64 -63 -16 0 -59 89 -79 163 -8 29
-17 99 -21 157 -3 58 -11 108 -17 112 -6 4 -24 8 -40 8 -23 0 -27 -3 -20 -17
13 -32 17 -93 5 -93 -7 0 -9 9 -5 24 7 31 -4 54 -18 35 -6 -10 -7 -7 -3 9 6
21 4 23 -17 17 -21 -5 -22 -5 -5 8 22 18 21 23 -3 47 -18 18 -20 18 -28 2 -33
-62 -53 -340 -24 -334 6 1 12 -5 12 -14 0 -8 4 -13 9 -9 5 3 12 2 15 -3 5 -8
-11 -115 -39 -267 -26 -138 -15 -116 36 75 27 101 55 193 63 205 9 15 10 28 3
49 -7 23 -6 32 5 40 10 8 13 24 10 56 -2 25 -1 42 3 38 13 -12 16 -148 4 -170
-8 -15 -8 -22 0 -27 8 -5 7 -13 -4 -27 -14 -19 -14 -19 -15 1 -1 37 -17 -6
-25 -65 -3 -30 -22 -102 -40 -160 -54 -165 -66 -239 -74 -448 -9 -223 -3 -285
39 -424 34 -114 40 -208 14 -208 -11 0 -13 -6 -9 -20 7 -22 -18 -66 -47 -81
-14 -8 -28 -7 -49 1 -33 14 -52 64 -53 140 -1 58 18 69 22 12 2 -23 7 -42 13
-42 5 0 9 6 9 13 0 7 7 4 15 -7 19 -25 33 -12 17 14 -20 32 -13 47 8 20 17
-21 21 -23 30 -10 8 13 10 12 10 -2 0 -10 5 -18 11 -18 6 0 9 14 7 33 -3 30
-6 32 -38 31 -19 -1 -44 -5 -54 -9 -17 -7 -18 -5 -11 16 11 35 23 222 15 238
-4 7 -10 -24 -13 -70 -3 -46 -8 -95 -11 -108 -6 -28 -22 -47 -28 -34 -8 14 37
265 46 256 5 -4 5 10 2 32 -4 22 -13 126 -20 230 -20 278 -33 347 -107 580
-84 264 -78 249 -101 228 -19 -17 -20 -17 -35 2 -29 38 -41 81 -52 180 -7 54
-13 101 -16 103 -2 2 0 14 5 27 9 25 -7 39 -33 29 -7 -2 -30 14 -52 36 -21 22
-43 40 -48 40 -8 0 30 -60 45 -70 10 -8 14 -63 5 -77 -11 -18 -37 -4 -37 20 0
11 -3 17 -7 14 -7 -8 -33 11 -33 24 0 5 7 9 15 9 10 0 7 7 -10 24 -13 13 -27
41 -30 62 -6 29 -21 52 -61 91 l-53 52 13 38 c7 21 23 56 35 78 11 22 21 48
21 58 0 10 16 33 35 52 38 39 53 80 89 254 55 259 76 600 52 811 l-8 75 21
-40 c12 -21 21 -44 21 -51z m1208 -51 c1 -60 -8 -182 -23 -313 -14 -118 -30
-251 -35 -295 -5 -44 -16 -102 -25 -130 -9 -27 -20 -99 -25 -160 -5 -60 -15
-144 -21 -185 -11 -72 -7 -459 6 -540 l5 -35 -15 33 c-37 80 -44 495 -10 625
8 32 15 87 15 123 0 35 9 106 20 157 36 169 81 557 81 696 0 68 9 121 22 121
1 0 3 -44 5 -97z m-898 -761 c11 -73 27 -147 36 -164 14 -28 15 -42 5 -112 -6
-45 -11 -94 -11 -109 0 -33 -28 -97 -42 -97 -5 0 -6 5 -3 10 3 6 0 10 -7 10
-9 0 -9 3 -2 8 6 4 11 27 12 52 0 25 10 74 21 109 l20 65 -24 22 c-14 13 -25
29 -25 36 0 7 -5 65 -10 128 -8 99 -1 291 8 205 1 -16 12 -90 22 -163z"/>
<path d="M3974 7805 c-17 -13 -15 -14 25 -10 54 5 81 -8 81 -39 0 -29 26 -95
47 -118 19 -21 53 -160 51 -208 -1 -30 -2 -31 -5 -7 -2 15 -8 27 -12 27 -5 0
-19 27 -31 60 -22 58 -23 59 -54 53 -17 -4 -37 -13 -45 -20 -7 -8 -21 -11 -31
-8 -10 3 -21 1 -25 -5 -3 -5 -14 -10 -24 -10 -14 0 -17 6 -13 26 3 15 8 21 12
14 10 -16 43 75 45 128 1 24 -4 49 -10 56 -6 6 -10 17 -7 24 2 7 -6 12 -21 12
-21 0 -27 -8 -46 -72 -11 -40 -21 -95 -21 -121 0 -26 -7 -61 -15 -77 -14 -28
-42 -217 -33 -226 3 -2 10 35 17 83 15 104 29 153 42 153 7 0 10 -66 8 -179
-2 -153 0 -183 14 -205 25 -37 21 -70 -7 -86 -14 -7 -28 -19 -31 -28 -6 -16
13 -45 25 -37 4 3 7 -10 5 -27 -1 -21 -9 -34 -22 -39 -23 -8 -104 -212 -106
-269 -2 -29 3 -38 35 -58 31 -21 35 -27 23 -38 -7 -8 -18 -14 -23 -14 -18 0
-101 -98 -107 -127 -11 -47 -14 -55 -24 -49 -12 8 -45 -46 -65 -108 -14 -40
-14 -54 -4 -85 15 -45 33 -61 72 -62 30 -1 30 -1 6 -9 l-25 -8 25 -2 c23 -1
23 -2 5 -10 -13 -6 -15 -9 -5 -9 12 -1 13 -3 1 -10 -19 -12 1 -22 48 -23 39 0
96 22 73 30 -18 6 -15 52 3 52 44 0 82 86 87 193 1 27 6 51 11 54 8 5 6 -48
-9 -182 -2 -22 -11 -45 -19 -51 -8 -6 -12 -14 -8 -17 11 -12 23 -8 23 8 0 8 4
15 9 15 5 0 12 26 16 58 20 182 21 186 96 264 38 40 69 81 69 91 0 17 -2 17
-30 -3 -16 -12 -34 -29 -40 -38 -5 -9 -10 -12 -10 -7 0 6 4 15 8 20 11 14 27
65 57 185 15 58 36 120 47 138 21 34 48 43 48 15 0 -14 3 -14 12 -5 10 10 10
15 -1 22 -12 7 -13 21 -3 87 18 114 -2 274 -29 232 -6 -10 -9 -7 -9 11 0 14
-3 35 -6 48 -5 18 -3 21 10 16 9 -4 16 -3 15 2 -3 14 13 74 21 79 12 7 0 208
-16 270 -9 33 -19 70 -21 83 -3 12 -14 27 -24 33 -11 5 -19 18 -19 29 0 43
-93 67 -136 35z m89 -395 c3 -10 0 -21 -5 -22 -11 -4 -33 -59 -48 -118 -11
-44 -1 -178 15 -194 20 -19 37 -56 26 -56 -5 0 -13 5 -16 10 -3 6 -22 10 -42
10 -35 0 -36 1 -19 19 17 19 16 22 -10 67 -28 48 -32 78 -17 149 5 26 7 28 13
10 6 -17 9 -13 19 22 6 23 16 45 21 48 5 3 17 21 26 40 18 40 29 44 37 15z
m47 -277 c5 -38 12 -77 16 -86 3 -9 -3 -24 -14 -35 -21 -21 -13 -42 15 -42 7
0 13 -7 13 -15 0 -17 -16 -20 -25 -5 -9 14 -46 13 -42 -2 1 -6 -7 -14 -18 -17
-11 -3 -21 -15 -21 -26 -5 -81 -36 -246 -50 -275 -10 -19 -19 -41 -20 -48 -4
-23 -9 -23 -32 -2 -12 11 -28 20 -37 20 -17 0 -75 27 -75 35 0 2 15 2 33 -1
21 -4 28 -2 19 4 -10 7 -9 24 9 88 12 43 25 95 30 114 4 19 12 36 16 37 4 2
15 8 23 13 22 14 5 23 -20 10 -35 -19 -35 -3 -1 26 25 21 31 32 27 50 -5 18
-2 24 11 25 11 0 13 3 6 6 -30 11 -10 20 30 12 23 -4 57 -6 74 -2 36 6 35 -1
13 100 -10 44 -6 103 6 91 2 -2 8 -36 14 -75z m-230 -693 c-9 -27 -18 -39 -29
-38 -10 2 -15 -3 -13 -15 4 -23 -36 -167 -51 -186 -9 -11 -9 -15 1 -18 6 -3
12 -11 12 -19 0 -16 -45 -19 -55 -4 -4 6 -15 8 -26 5 -17 -6 -68 21 -69 36 0
3 15 4 33 2 27 -3 29 -2 10 6 -20 9 -21 12 -9 52 7 23 26 53 42 67 27 22 22
23 -22 5 -23 -9 -11 11 42 71 28 30 47 44 57 40 10 -3 20 2 26 15 6 11 17 18
25 15 8 -3 17 0 21 6 15 24 18 -1 5 -40z"/>
<path d="M4776 7780 c-42 -13 -86 -59 -86 -89 0 -25 1 -25 30 11 19 23 36 35
45 31 8 -3 15 0 15 6 0 6 14 11 30 11 35 0 37 -6 12 -29 -10 -9 -26 -50 -35
-91 -22 -96 -41 -290 -29 -302 5 -5 11 18 15 54 3 35 11 77 18 93 12 29 13 29
17 6 2 -13 -2 -60 -9 -105 -14 -91 -15 -132 -4 -226 7 -63 6 -69 -34 -152 -50
-106 -64 -165 -57 -237 5 -50 5 -53 -6 -26 -6 17 -20 41 -30 55 l-20 25 8 -30
c4 -17 11 -35 16 -41 5 -8 3 -14 -7 -18 -8 -3 -15 -12 -15 -20 0 -10 6 -13 15
-10 8 4 15 4 15 1 0 -3 -7 -7 -15 -11 -10 -4 -20 6 -30 30 -13 31 -17 34 -34
24 -11 -6 -33 -29 -50 -53 -26 -38 -27 -45 -15 -62 8 -10 14 -27 14 -37 0 -10
5 -18 10 -18 15 0 12 -26 -4 -39 -11 -9 -15 -9 -18 1 -7 19 -58 -37 -58 -63 0
-19 2 -20 17 -8 15 12 16 12 10 -3 -10 -29 -1 -21 36 30 19 26 40 67 47 92 15
57 26 70 58 70 l25 0 -27 -25 c-14 -13 -26 -33 -26 -45 0 -12 -7 -35 -16 -53
-17 -31 -95 -138 -123 -167 -12 -12 -13 -11 -6 10 4 14 11 29 16 35 21 22 7
25 -16 3 -30 -30 -73 -121 -80 -169 -4 -28 0 -23 25 30 17 35 34 61 37 57 15
-15 -111 -252 -147 -274 -15 -9 -19 -19 -15 -32 5 -14 2 -20 -10 -20 -9 0 -13
5 -10 10 3 6 -6 15 -20 20 -34 13 -58 13 -50 0 10 -17 -5 -11 -51 18 -43 27
-70 60 -39 48 8 -3 15 -1 15 4 0 6 9 10 20 10 14 0 23 12 34 48 30 94 47 135
71 167 29 37 33 54 8 34 -15 -13 -15 -12 -5 7 6 12 9 24 6 27 -7 6 34 78 52
92 11 8 8 10 -14 11 -39 1 -89 -67 -159 -216 -30 -63 -61 -127 -68 -142 -20
-35 -19 -65 3 -79 13 -8 17 -20 14 -40 -4 -29 7 -46 43 -67 17 -9 11 -11 -32
-10 -35 1 -54 6 -58 16 -3 8 3 16 15 19 23 6 27 23 5 23 -20 0 -19 27 1 38 12
7 5 12 -30 22 -37 10 -52 10 -74 1 l-27 -13 28 -20 c15 -11 27 -29 27 -40 0
-15 5 -19 20 -15 23 6 27 -8 5 -17 -8 -3 -12 -12 -9 -20 4 -11 18 -13 60 -9
56 6 64 2 39 -23 -22 -23 -19 -47 5 -41 13 3 20 0 20 -9 0 -21 14 -17 25 9 8
16 18 22 41 21 24 -1 33 4 43 27 7 16 20 37 29 46 15 14 14 15 -3 10 -11 -3
-33 -9 -50 -12 l-30 -7 28 19 c15 11 24 22 21 26 -4 3 6 1 22 -5 51 -19 92 14
141 113 37 73 67 146 88 213 3 10 7 17 10 15 2 -2 -4 -33 -14 -69 -10 -36 -16
-71 -14 -77 3 -7 0 -13 -6 -13 -6 0 -11 -6 -11 -13 0 -8 -11 -35 -24 -60 -13
-26 -21 -47 -19 -47 14 0 123 83 123 94 0 7 23 54 50 105 28 51 50 94 50 97 0
2 7 21 16 42 20 45 64 208 64 238 0 14 -8 24 -22 29 l-23 8 23 4 c12 2 22 9
22 14 0 5 3 8 8 8 19 -3 23 2 12 16 -15 18 -6 103 15 150 l13 30 1 -40 1 -40
21 43 c16 32 18 46 10 56 -8 10 -6 21 12 46 24 36 40 41 45 15 3 -11 -2 -15
-14 -13 -12 2 -20 -6 -25 -24 -9 -34 0 -36 26 -5 24 28 34 92 33 227 0 82 -2
99 -10 77 -13 -37 -28 -24 -28 26 0 49 63 370 68 345 2 -9 -2 -43 -7 -74 -6
-32 -11 -76 -10 -98 1 -23 11 20 24 99 20 121 21 144 9 176 -24 70 -75 99
-138 79z"/>
<path d="M4673 7652 c-34 -21 -65 -153 -83 -347 -11 -120 -21 -152 -42 -139
-8 5 -42 -63 -98 -198 -30 -70 -54 -172 -66 -276 -5 -46 -12 -66 -26 -77 -11
-7 -17 -18 -14 -23 3 -5 -4 -21 -15 -36 -36 -46 -15 -51 32 -6 46 44 64 49
137 34 28 -5 32 -4 32 14 0 12 -5 24 -10 27 -6 3 -8 18 -4 33 5 26 5 26 -11 7
-9 -11 -20 -26 -24 -33 -4 -7 -22 -17 -40 -22 l-34 -9 20 22 c13 14 23 43 27
81 4 33 19 98 35 145 17 52 27 98 24 117 -6 39 41 138 62 131 16 -7 27 27 13
41 -19 19 9 21 39 2 20 -12 34 -30 38 -49 11 -51 47 -33 72 37 12 33 2 95 -17
107 -6 4 -10 16 -10 27 0 21 0 21 -25 -2 -29 -27 -32 -38 -8 -36 10 0 19 -9
23 -24 8 -32 -9 -73 -28 -65 -7 3 -19 5 -25 5 -7 1 -2 9 11 19 24 21 28 36 12
46 -12 7 -42 -20 -33 -29 4 -3 2 -6 -4 -6 -16 0 -23 12 -14 24 22 26 42 141
40 229 -2 103 11 165 41 192 11 10 20 23 20 28 0 6 -11 0 -25 -13 -18 -17 -25
-19 -25 -9 0 8 5 20 12 27 14 14 9 16 -9 4z"/>
<path d="M2871 7451 c-26 -7 -50 -36 -38 -47 3 -4 13 -1 21 5 11 9 24 9 55 1
32 -8 42 -17 47 -37 4 -15 3 -28 -2 -30 -24 -8 17 -213 41 -213 17 0 25 -30
32 -133 5 -71 3 -90 -9 -100 -19 -15 -31 -47 -18 -47 6 0 10 -7 10 -15 0 -8 5
-15 10 -15 6 0 10 6 10 13 0 8 3 7 10 -3 18 -29 23 1 21 137 -1 93 -8 167 -20
228 -11 50 -23 108 -27 130 -5 31 -8 36 -13 21 -7 -18 -8 -18 -14 -2 -4 10 -7
30 -7 45 0 49 -50 77 -109 62z"/>
<path d="M2791 7369 c-6 -18 -11 -48 -11 -68 0 -20 -10 -98 -22 -174 -17 -105
-20 -142 -11 -156 6 -10 12 -35 13 -57 3 -53 0 -63 -10 -39 -8 19 -9 19 -9 -2
-1 -13 13 -35 32 -52 30 -29 32 -37 38 -113 3 -46 2 -126 -4 -179 -6 -53 -7
-103 -4 -113 10 -25 36 -30 57 -11 13 12 20 14 20 6 0 -8 12 -12 33 -11 50 3
51 2 19 -25 -39 -33 -64 -110 -68 -213 -2 -46 -6 -87 -9 -92 -10 -17 14 -60
35 -60 11 0 20 4 20 10 0 5 21 21 48 35 26 15 38 23 27 19 -42 -14 -65 -16
-65 -5 0 6 6 11 13 11 9 0 9 2 0 8 -7 5 -9 19 -4 42 5 28 12 36 34 38 15 2 27
7 27 12 0 9 -48 24 -67 21 -26 -4 -12 30 28 70 l42 42 15 -29 c13 -23 17 -25
20 -11 4 22 11 21 42 -4 34 -29 65 -177 41 -196 -9 -7 -26 -13 -38 -13 -12 0
-25 -4 -28 -10 -3 -5 -25 -10 -48 -10 -23 0 -49 -4 -57 -10 -28 -18 1 -23 69
-11 90 14 86 15 87 -13 1 -19 -2 -22 -18 -18 -15 4 -17 7 -6 13 16 11 -18 11
-44 1 -16 -7 -16 -8 0 -29 16 -20 27 -22 139 -25 l123 -3 -43 -19 -42 -19 33
-7 c18 -4 58 -2 95 6 34 7 74 13 88 14 15 0 32 7 39 15 7 8 26 15 42 15 25 0
28 -3 23 -20 -9 -28 17 -36 49 -15 31 21 33 8 5 -39 -24 -41 -18 -73 14 -78
17 -2 23 -11 25 -40 2 -20 -4 -50 -12 -66 -8 -16 -12 -33 -8 -37 4 -5 2 -5 -5
-1 -8 4 -18 -5 -28 -24 -9 -17 -20 -28 -25 -25 -6 3 -7 0 -5 -8 3 -7 -4 -22
-15 -32 -14 -13 -17 -21 -9 -26 8 -4 4 -11 -11 -19 -12 -6 -25 -8 -28 -4 -4 4
-1 9 6 11 6 3 12 9 12 14 0 5 -14 2 -30 -6 -24 -12 -50 -15 -112 -11 -51 3
-87 1 -95 -6 -18 -14 -16 -26 3 -30 13 -3 13 -6 -5 -27 -26 -30 -26 -38 -1
-53 11 -7 20 -20 20 -30 0 -24 -58 -70 -76 -60 -8 5 -38 5 -66 2 -76 -10 -115
-69 -123 -188 -3 -47 -2 -58 4 -36 4 17 11 36 16 43 8 14 110 81 123 81 12 0
-1 -100 -17 -130 -8 -14 -33 -48 -57 -77 -24 -28 -44 -58 -44 -67 0 -8 -4 -17
-9 -20 -10 -6 -91 -141 -91 -151 0 -4 6 -3 13 2 6 6 24 13 40 17 21 5 27 3 27
-10 0 -13 3 -14 15 -4 13 11 13 7 0 -36 -8 -26 -13 -50 -11 -52 2 -2 20 27 40
65 20 37 61 97 92 133 30 36 76 99 101 140 105 169 245 320 297 320 14 0 42
14 61 32 29 25 38 29 45 18 7 -11 20 -3 57 35 38 39 44 50 31 53 -21 4 -23 13
-7 29 8 8 6 15 -10 25 -11 7 -21 18 -21 25 0 17 43 44 75 47 14 2 35 12 46 22
15 13 22 15 28 6 5 -8 20 0 49 26 41 37 41 38 15 40 -36 3 -39 9 -18 32 10 11
15 20 11 20 -5 0 -21 -14 -37 -31 -16 -18 -40 -32 -52 -33 -13 -1 -27 -12 -35
-28 -14 -30 -16 -31 -46 -19 -16 6 -11 14 40 59 32 28 58 61 59 72 2 19 1 19
-24 4 -14 -9 -48 -32 -74 -51 -27 -19 -51 -32 -54 -29 -3 3 15 30 41 61 26 30
44 55 40 55 -15 0 28 38 49 44 26 6 52 73 36 92 -16 19 -75 25 -261 24 -160 0
-207 6 -165 23 28 12 -22 6 -76 -8 -73 -19 -126 -19 -151 0 -11 8 -35 15 -53
15 -22 0 -33 5 -33 15 0 9 6 12 16 8 8 -3 31 3 50 13 25 14 34 25 34 44 0 31
-40 136 -69 184 -22 35 -43 184 -24 173 22 -14 -21 201 -44 218 -8 6 -21 42
-31 80 -11 48 -17 62 -20 44 -1 -14 1 -44 6 -67 11 -46 7 -54 -9 -19 -9 21 -9
21 -4 -3 4 -14 14 -65 22 -115 9 -49 23 -96 30 -104 18 -18 12 -22 -44 -32
-27 -5 -68 -13 -92 -18 -25 -5 -49 -7 -55 -5 -7 3 -10 46 -9 123 2 65 -1 156
-5 201 -5 44 -4 84 0 86 15 9 -14 35 -36 33 -44 -3 -47 0 -41 35 4 18 2 49 -3
69 -13 48 2 121 32 153 27 30 41 95 26 124 -14 25 -1 110 16 110 8 0 14 5 14
10 0 6 -9 10 -20 10 -11 0 -20 5 -20 10 0 23 -29 7 -39 -21z m732 -1906 c-3
-7 -10 -13 -17 -13 -7 0 -6 -4 2 -9 10 -6 2 -16 -32 -37 -31 -20 -59 -50 -87
-96 -23 -37 -74 -105 -115 -150 -41 -46 -74 -86 -74 -90 0 -5 -7 -8 -15 -8
-19 0 -19 3 6 52 14 28 17 43 10 47 -8 5 -4 27 11 71 18 47 37 77 81 121 31
32 57 64 57 71 0 28 21 42 67 47 79 10 111 7 106 -6z"/>
<path d="M2880 7043 c-18 -41 -23 -45 -31 -30 -16 28 -27 20 -35 -29 -7 -50 6
-78 28 -56 7 7 34 12 61 12 29 0 46 4 42 10 -10 17 7 11 20 -7 7 -9 17 -13 25
-8 14 8 9 61 -9 109 -9 23 -14 26 -26 16 -11 -9 -17 -7 -27 9 -18 30 -25 27
-48 -26z"/>
<path d="M4204 6567 c-9 -17 -41 -68 -70 -113 -49 -74 -134 -240 -134 -260 0
-5 22 29 48 76 63 111 103 173 121 184 8 5 30 25 48 45 17 19 35 32 39 28 4
-4 18 3 31 15 28 26 31 52 4 43 -10 -3 -30 -1 -45 4 -23 9 -27 7 -42 -22z"/>
<path d="M4340 6283 c-25 -38 -51 -88 -59 -113 -8 -25 -18 -47 -22 -50 -14
-10 3 -60 21 -60 38 0 89 101 105 210 3 25 9 53 11 63 11 36 -14 14 -56 -50z"/>
<path d="M5374 6259 c-29 -32 -74 -53 -87 -40 -7 7 -5 12 7 17 14 5 15 9 4 15
-7 5 -22 9 -33 9 -14 0 -16 -3 -7 -9 7 -4 13 -16 12 -27 -1 -10 -1 -35 -2 -54
0 -24 -14 -52 -47 -96 -64 -86 -189 -234 -220 -262 -18 -17 -20 -21 -6 -14 37
19 192 192 353 395 34 43 62 81 62 83 0 11 -19 2 -36 -17z"/>
<path d="M3069 5856 c-94 -33 -181 -117 -229 -220 -18 -37 -54 -89 -80 -116
-27 -28 -47 -56 -44 -63 6 -15 157 -117 173 -117 6 0 19 4 29 8 9 5 42 21 73
36 31 15 88 55 127 89 38 34 88 73 110 86 35 21 43 32 53 75 19 76 16 152 -7
177 -40 44 -145 67 -205 45z m64 -115 c27 -10 39 -33 31 -56 -10 -25 -128
-115 -151 -115 -20 0 -17 5 23 45 54 54 55 81 5 78 -21 -1 -44 -11 -62 -29
-38 -36 -40 -9 -3 35 36 43 105 61 157 42z"/>
<path d="M2035 5302 c-27 -9 -56 -22 -63 -29 -7 -7 -30 -13 -51 -13 -31 0 -40
-5 -50 -26 -10 -24 -10 -25 11 -18 20 6 21 5 9 -10 -18 -22 -5 -34 19 -18 26
16 40 15 40 -2 0 -19 48 -30 66 -15 8 7 52 20 97 30 61 13 71 18 40 16 -24 -1
-42 3 -42 8 1 13 -30 23 -68 24 -43 1 -42 15 2 35 19 9 37 21 40 26 3 6 5 10
3 9 -2 0 -25 -8 -53 -17z"/>
<path d="M3907 4754 c-4 -4 -7 -15 -7 -25 0 -9 -9 -19 -20 -22 -11 -3 -20 -11
-20 -19 0 -10 3 -10 11 2 9 12 10 11 6 -5 -10 -36 -56 -155 -76 -193 -22 -43
-87 -109 -98 -99 -3 4 -2 7 4 7 6 0 18 12 28 26 l17 27 -23 -17 c-46 -32 -85
-20 -150 45 -52 52 -93 52 -123 0 -38 -66 -9 -224 45 -238 26 -7 59 -64 59
-104 0 -39 14 -30 29 21 9 31 10 27 5 -27 -5 -62 -5 -63 20 -63 33 0 139 101
130 124 -3 8 1 25 10 38 9 12 16 30 16 39 0 9 6 22 14 28 10 8 15 32 15 69 -1
51 7 73 70 198 39 78 71 145 71 151 0 16 -25 44 -33 37z"/>
<path d="M3300 2550 c0 -5 -8 -10 -17 -10 -19 -1 -53 -22 -53 -34 0 -3 7 -6
16 -6 12 0 14 -7 9 -30 -5 -21 -2 -39 10 -56 8 -13 14 -28 11 -32 -2 -4 13 -9
35 -9 25 -1 42 3 45 11 7 18 -14 134 -29 157 -13 20 -27 25 -27 9z"/>
<path d="M3542 1726 c-12 -20 -27 -36 -33 -36 -8 0 -8 -4 -1 -12 12 -15 31
-202 35 -333 1 -60 5 -83 10 -70 5 11 14 31 20 44 14 29 13 403 -1 427 -7 13
-13 9 -30 -20z"/>
<path d="M2735 2317 c-11 -5 -23 -15 -27 -21 -11 -16 2 -28 18 -15 8 6 14 9
14 6 0 -3 3 -14 6 -24 5 -14 4 -15 -4 -4 -12 18 -12 19 -42 -149 -12 -63 -24
-124 -27 -135 -4 -14 -2 -17 6 -10 5 6 14 28 19 50 9 39 9 38 8 -17 -1 -44 -5
-58 -16 -59 -9 0 -7 -3 6 -9 11 -4 40 -30 63 -56 23 -26 39 -39 35 -29 -5 12
-4 16 4 11 16 -9 28 44 48 207 14 107 15 142 6 145 -16 5 -5 22 15 22 12 0 14
-7 9 -32 -4 -24 -3 -29 4 -18 8 13 10 13 10 -2 0 -9 -5 -18 -10 -20 -6 -2 -20
-75 -31 -163 -12 -88 -25 -165 -30 -171 -5 -6 -6 -14 -2 -17 14 -15 23 -6 23
23 0 17 4 30 9 30 5 0 12 35 16 78 11 129 26 216 41 239 18 29 18 37 -1 29
-10 -4 -15 1 -15 14 0 17 -7 20 -40 20 -22 0 -40 4 -40 10 0 5 -7 7 -15 4 -8
-4 -15 -5 -15 -3 0 2 -6 20 -13 41 -11 32 -15 35 -32 25z"/>
<path d="M2730 1732 c0 -20 9 -69 19 -107 38 -139 75 -371 70 -441 -1 -21 -1
-70 0 -109 3 -55 5 -64 11 -40 6 25 8 20 9 -27 0 -32 5 -58 10 -58 5 0 11 96
15 213 3 116 8 230 11 252 3 22 -5 2 -18 -45 -27 -103 -35 -80 -12 33 10 45
19 114 20 152 2 48 7 69 15 67 9 -2 10 7 6 30 -4 18 -10 50 -13 71 -6 40 -23
61 -23 28 0 -26 -11 -26 -60 -1 -54 27 -60 26 -60 -18z"/>
</g>
</svg>
