<svg version="1.0" xmlns="http://www.w3.org/2000/svg"
 width="640.000000pt" height="853.000000pt" viewBox="0 0 640.000000 853.000000"
 preserveAspectRatio="xMidYMid meet">
<g transform="translate(0.000000,853.000000) scale(0.100000,-0.100000)"
fill="#000000" stroke="none">
<path d="M0 4265 l0 -4265 3200 0 3200 0 0 4265 0 4265 -3200 0 -3200 0 0
-4265z m4068 3044 c19 -11 37 -17 42 -14 5 3 16 -8 25 -24 18 -36 19 -52 1
-29 -12 17 -16 17 -44 2 -28 -14 -36 -14 -83 0 -29 9 -63 16 -76 16 -19 0 -22
5 -21 35 1 26 6 35 22 38 36 7 100 -5 134 -24z m-182 -90 c4 -7 25 -10 58 -6
45 4 53 2 69 -19 10 -13 16 -28 13 -33 -3 -5 9 -14 27 -21 17 -7 26 -14 20
-17 -14 -5 -83 34 -83 47 0 4 -24 13 -52 20 -29 6 -62 14 -73 17 -11 3 -17 2
-12 -3 8 -9 -51 -37 -63 -29 -4 3 -13 -2 -20 -10 -7 -8 -21 -15 -31 -15 -11 0
-28 -9 -39 -20 -33 -33 -214 -58 -292 -41 -24 6 -38 5 -38 -1 0 -5 -4 -6 -10
-3 -5 3 -17 -3 -27 -15 -13 -15 -29 -20 -70 -20 -29 0 -53 5 -53 10 0 6 -11
10 -25 10 -14 0 -25 -4 -25 -10 0 -5 -11 -10 -24 -10 -14 0 -32 -10 -40 -22
-13 -18 -16 -19 -16 -5 0 10 -8 17 -20 17 -11 0 -20 5 -20 10 0 6 13 10 29 10
17 0 33 5 36 10 3 6 17 10 30 10 13 0 29 8 34 18 9 15 12 15 21 2 5 -8 10 -11
10 -6 0 5 8 2 18 -6 26 -23 62 -32 62 -16 0 8 14 24 31 37 28 21 33 22 67 8
80 -31 298 16 412 89 38 25 85 31 96 13z m-942 -149 c5 -5 16 -6 25 -3 14 4
14 3 1 -5 -21 -13 -100 -22 -100 -11 0 14 -37 -27 -44 -48 -4 -11 -13 -20 -21
-20 -8 0 -12 4 -9 9 9 14 -41 4 -52 -12 -11 -13 -15 -13 -39 0 -25 13 -31 12
-68 -9 -23 -13 -77 -41 -119 -62 -43 -21 -96 -50 -118 -64 -22 -14 -48 -25
-58 -25 -10 0 -23 -3 -28 -7 -6 -5 10 11 34 35 24 23 51 42 60 42 22 1 132 69
112 70 -13 0 -13 1 0 10 17 11 9 13 -15 4 -13 -6 -14 -9 -3 -16 9 -7 8 -8 -5
-4 -11 4 -45 -8 -84 -29 -36 -19 -71 -35 -76 -35 -6 0 -24 -12 -39 -27 -15
-15 -28 -22 -28 -15 0 13 88 82 105 82 7 0 52 20 99 46 60 31 94 43 109 39 16
-5 18 -4 8 3 -18 13 18 25 81 27 45 1 47 0 42 -22 -8 -31 7 -29 44 7 18 17 43
30 56 30 13 0 29 7 36 15 13 16 75 12 94 -5z m-197 -191 c15 -6 36 -17 45 -26
16 -14 15 -19 -17 -81 -19 -36 -32 -68 -30 -72 8 -12 -78 -94 -135 -129 -53
-32 -60 -25 -15 14 33 29 37 37 25 45 -20 13 -26 13 -44 -5 -8 -8 -23 -15 -33
-15 -17 1 -17 1 0 14 31 24 18 28 -18 6 -28 -17 -35 -19 -35 -7 0 9 -6 17 -12
20 -17 6 92 38 132 39 16 1 30 4 30 9 0 4 17 10 39 14 41 7 81 36 81 60 0 17
-18 19 -53 6 -14 -5 -34 -7 -46 -4 -18 5 -19 8 -9 21 10 12 10 16 1 19 -8 3
-2 18 19 44 35 43 35 43 75 28z m2061 -101 c2 -32 -3 -58 -17 -84 -26 -48 -27
-85 -2 -115 18 -23 21 -23 76 -12 32 7 60 14 62 16 6 7 -38 101 -63 134 -30
39 -17 44 15 7 16 -19 29 -24 46 -20 18 5 35 -5 76 -41 48 -42 50 -43 19 -9
-19 22 -51 55 -70 74 -39 39 -18 26 51 -31 54 -44 98 -120 129 -224 14 -46 28
-74 39 -78 9 -3 41 -30 71 -60 l55 -56 -1 -68 c0 -48 -7 -80 -23 -114 -13 -26
-26 -47 -29 -47 -4 0 -18 -9 -30 -18 l-24 -18 25 -36 c81 -120 47 -234 -85
-279 -52 -17 -52 -18 -65 -73 -7 -31 -19 -70 -28 -86 -20 -38 -112 -108 -155
-116 -20 -4 -45 -21 -62 -40 -16 -18 -45 -43 -63 -54 -29 -18 -36 -30 -45 -78
-10 -48 -20 -64 -58 -100 l-45 -42 14 -103 c8 -59 14 -178 13 -282 l0 -180
-43 -125 c-96 -281 -220 -597 -319 -815 -28 -60 -66 -156 -85 -212 -34 -99
-35 -106 -25 -173 l11 -71 56 -28 c31 -16 96 -41 144 -57 86 -28 89 -28 118
-11 28 15 35 16 77 3 296 -90 368 -114 502 -169 131 -54 138 -58 150 -87 10
-23 19 -29 61 -34 34 -5 52 -13 59 -27 14 -25 4 -97 -22 -164 -35 -89 -58
-169 -58 -205 0 -19 -9 -50 -21 -69 -11 -18 -34 -75 -51 -125 -16 -50 -38
-109 -48 -131 -10 -22 -21 -65 -25 -95 -4 -30 -9 -58 -11 -62 -2 -4 -37 8 -77
27 -120 55 -147 60 -236 46 -90 -15 -118 -10 -123 22 -2 14 -17 29 -43 42 -33
16 -58 19 -149 18 -61 -1 -113 0 -118 3 -4 3 -3 15 4 27 6 12 10 45 9 74 -1
28 1 73 5 98 6 41 10 47 35 52 22 4 27 9 19 18 -8 10 1 14 37 20 78 12 133 13
133 4 0 -5 -4 -9 -9 -9 -5 0 -11 -7 -15 -15 -4 -12 2 -15 28 -15 27 0 34 4 31
18 -1 9 1 22 6 27 4 6 8 26 7 45 -1 48 13 113 26 122 19 13 29 9 16 -7 -18
-21 4 -45 41 -45 36 0 37 12 2 40 -29 22 -28 23 20 51 14 8 23 6 38 -7 25 -22
24 -34 -6 -63 -14 -12 -22 -27 -19 -32 3 -5 -10 -9 -29 -9 l-34 0 -12 -69
c-13 -84 -15 -164 -2 -156 5 3 12 1 16 -5 3 -5 20 -10 36 -10 17 0 28 4 25 9
-8 12 21 34 34 26 6 -4 9 -12 7 -18 -4 -14 17 -37 34 -37 8 0 8 -5 -2 -17 -12
-14 -12 -16 1 -11 10 3 15 18 14 47 -1 30 2 38 8 27 6 -11 14 -14 26 -8 20 10
108 -9 96 -21 -4 -4 -28 -7 -53 -8 l-46 -1 32 -14 c17 -7 49 -16 71 -20 34 -5
40 -3 45 15 3 12 -1 27 -8 35 -13 13 -10 56 4 56 3 0 12 -9 19 -20 7 -11 17
-20 22 -20 18 0 11 36 -10 55 l-21 19 26 13 c16 9 25 22 25 38 0 13 7 31 16
40 13 12 14 21 7 38 -32 69 -56 152 -53 178 4 27 0 39 -21 60 -13 13 -17 24
-11 28 6 3 13 22 17 41 5 29 2 39 -14 54 -12 11 -24 16 -28 12 -5 -4 0 -12 10
-17 9 -6 15 -14 12 -20 -8 -12 -42 6 -85 46 -36 34 -145 76 -138 53 5 -13 12
-17 81 -47 26 -12 47 -25 47 -29 0 -4 -28 -8 -62 -7 -35 0 -78 -4 -97 -9 -26
-6 -32 -5 -29 5 2 7 15 16 28 19 20 5 21 7 7 18 -8 7 -13 21 -10 32 4 13 -1
22 -13 26 -11 3 -27 10 -36 15 -10 5 -28 9 -40 9 -18 0 -20 2 -8 10 13 8 13 9
0 14 -101 32 -119 36 -164 30 -30 -5 -50 -13 -54 -23 -3 -9 -16 -31 -29 -50
-13 -19 -23 -48 -23 -65 0 -17 -5 -38 -11 -46 -7 -11 -9 1 -4 43 7 60 -1 70
-29 41 -20 -19 -20 -8 -2 45 14 39 14 41 -7 56 -12 8 -26 15 -33 15 -6 0 -35
13 -65 30 -30 16 -56 30 -59 30 -3 0 -7 -12 -8 -27 -1 -15 -15 -38 -31 -52
-24 -21 -35 -46 -55 -121 -29 -111 -52 -170 -67 -170 -5 0 -7 -5 -4 -11 8 -13
-24 -39 -41 -32 -6 2 -19 41 -29 86 -10 45 -26 94 -36 109 -11 14 -19 33 -19
41 0 8 -11 17 -23 21 -13 3 -40 18 -60 33 -20 16 -46 35 -58 44 -19 13 -20 18
-10 37 11 20 9 22 -12 22 -39 0 -60 -24 -82 -96 l-22 -69 -16 32 c-31 59 -23
89 33 129 46 33 70 61 70 80 0 3 -7 1 -15 -6 -12 -10 -15 -7 -21 14 -10 42 1
48 82 41 113 -11 232 16 295 67 22 18 58 75 40 64 -12 -8 -13 -3 -7 25 16 74
18 99 10 99 -12 0 -44 -79 -44 -108 0 -19 -5 -22 -42 -21 -24 1 -54 4 -68 8
l-24 7 22 22 c12 12 33 22 46 22 42 0 56 11 56 41 0 19 -5 29 -15 29 -8 0 -15
7 -15 15 0 8 -8 15 -19 15 -14 0 -17 6 -13 25 3 17 -1 30 -12 38 -8 7 -19 26
-22 44 -6 28 -3 34 20 44 34 16 33 33 -1 25 l-28 -6 24 14 c14 8 30 12 35 11
60 -18 66 -16 66 15 0 28 2 30 38 30 27 0 33 3 22 10 -8 5 -11 10 -5 10 5 0
-1 7 -14 16 -21 15 -25 15 -53 -6 l-30 -22 -14 21 c-8 11 -21 27 -30 36 -14
13 -12 15 18 15 44 0 79 10 72 21 -3 5 6 14 20 21 14 6 26 16 26 21 0 6 7 18
15 27 13 15 11 19 -26 39 -22 13 -44 34 -50 48 -14 38 -11 95 8 115 16 17 17
17 27 -4 17 -33 35 -33 47 1 10 29 13 30 54 24 63 -8 113 4 142 35 30 32 51
68 34 58 -6 -4 -11 0 -11 9 0 8 -6 18 -14 21 -35 13 -49 84 -57 289 -5 117
-14 229 -24 270 -26 118 -30 242 -10 324 14 57 21 71 36 71 11 0 19 7 20 18 1
16 2 16 6 0 8 -32 22 -19 21 21 0 22 3 44 6 50 4 6 2 11 -3 11 -6 0 -11 -12
-11 -27 0 -19 -3 -24 -10 -17 -7 7 -7 19 -1 36 11 30 5 201 -10 246 -11 33
-39 45 -39 16 0 -39 -34 -156 -51 -177 -10 -12 -28 -34 -40 -49 -23 -31 -41
-35 -58 -14 -10 12 -9 14 7 10 20 -6 36 9 46 43 6 18 2 24 -19 29 -14 3 -31 1
-38 -4 -10 -9 -12 -4 -9 24 3 21 -2 44 -12 59 -9 13 -16 31 -16 39 0 9 -9 20
-20 26 -22 12 -27 36 -7 43 10 3 10 9 0 26 -7 11 -13 29 -13 38 0 10 -11 42
-25 72 -20 43 -22 51 -8 40 10 -8 26 -24 36 -36 22 -27 44 -30 50 -5 18 63 17
75 0 89 -11 9 -5 7 14 -3 49 -27 59 -11 68 101 l7 94 31 7 c18 3 54 17 81 31
49 25 76 25 76 0 0 -14 40 -37 65 -37 8 0 18 7 23 16 6 11 11 13 16 5 4 -6 20
-11 37 -11 16 0 29 -4 29 -10 0 -5 5 -9 12 -7 15 3 26 -37 27 -105 1 -44 -3
-59 -16 -67 -16 -8 -15 -14 8 -71 13 -34 29 -63 34 -64 6 0 11 23 13 52 2 32
8 52 15 52 28 -1 56 -38 71 -93 17 -70 19 -72 44 -58 11 6 27 9 34 6 14 -6 81
41 105 72 7 9 10 27 6 41 -5 23 -4 24 20 18 l26 -6 -24 24 c-14 14 -25 30 -25
35 0 6 11 -1 25 -14 26 -27 71 -35 62 -11 -4 9 3 13 21 13 15 0 41 3 57 5 17
3 39 2 51 -2 11 -5 26 -5 33 -1 10 6 9 10 -3 14 -24 9 -19 27 7 27 30 0 51 15
42 29 -5 9 -11 7 -22 -6 -14 -17 -14 -17 -8 2 3 11 -2 37 -14 60 -11 22 -22
52 -25 67 -3 14 -18 40 -32 57 -27 33 -24 56 7 48 12 -3 19 0 19 9 0 8 -7 14
-15 14 -8 0 -15 2 -15 4 0 2 -3 12 -7 22 -4 12 -3 15 5 10 7 -4 12 -1 12 8 0
9 -6 16 -12 17 -10 0 -10 2 -1 6 8 3 4 12 -12 26 -20 18 -26 33 -27 74 -2 34
-7 54 -16 58 -9 3 -12 0 -9 -9 7 -17 -11 -36 -34 -36 -19 0 -29 -20 -29 -56 0
-41 -17 -61 -83 -98 -41 -24 -55 -36 -41 -36 12 0 27 7 34 15 7 8 20 15 29 15
11 -1 7 -9 -15 -28 -84 -73 -99 -82 -129 -81 -16 1 -48 -6 -70 -15 -36 -15
-38 -15 -20 -1 11 9 46 30 77 46 31 16 60 34 63 40 4 6 -7 4 -23 -5 -36 -19
-165 -66 -169 -62 -3 2 50 29 150 74 l59 27 -114 0 -114 0 56 23 c134 57 192
88 217 115 24 25 25 28 6 18 -12 -6 -25 -16 -28 -21 -3 -6 -12 -10 -18 -10 -7
0 -4 5 6 11 9 6 15 14 12 19 -3 5 4 28 17 50 18 31 21 43 12 57 -13 21 -54 30
-54 13 0 -7 -7 -9 -16 -6 -8 3 -23 2 -33 -4 -17 -8 -17 -6 -7 31 9 35 8 45
-12 79 -12 22 -22 51 -22 65 0 14 -7 42 -15 61 -14 34 -13 38 8 67 40 55 74
151 57 162 -18 11 -11 26 13 23 19 -3 22 -10 25 -50z m-2763 -40 c-59 -63 -84
-118 -54 -118 5 0 7 -5 3 -11 -5 -8 -9 -8 -14 1 -5 8 -10 9 -14 2 -8 -13 62
-69 97 -77 24 -6 27 -5 25 16 -2 15 2 24 12 25 8 0 21 2 27 2 7 1 20 16 28 33
9 17 19 29 21 26 10 -10 -26 -66 -45 -72 -17 -5 -18 -10 -9 -41 5 -19 7 -41 4
-47 -3 -7 -5 -6 -5 3 -1 11 -13 17 -38 18 -21 1 -73 4 -115 6 l-78 3 -5 -36
c-22 -142 -46 -218 -74 -235 -5 -3 0 11 10 30 23 45 33 112 24 153 l-7 32 -17
-23 c-10 -13 -21 -30 -24 -38 -3 -8 -5 17 -4 55 2 62 4 70 21 70 14 0 22 -10
28 -32 5 -18 13 -33 18 -33 13 0 23 61 18 111 -4 42 -4 42 44 62 32 13 48 26
48 38 0 10 5 21 10 24 6 4 7 11 4 17 -4 6 -2 8 4 4 6 -3 13 3 17 14 7 21 51
60 68 60 6 0 -7 -19 -28 -42z m-503 -1583 c15 -14 39 -25 53 -25 14 0 25 -5
25 -12 0 -6 9 -22 21 -34 17 -18 21 -37 23 -121 2 -54 8 -108 13 -118 6 -11
23 -58 38 -105 32 -96 40 -111 61 -103 16 6 19 -13 3 -23 -6 -3 -9 -15 -6 -25
3 -10 -1 -26 -9 -36 -13 -17 -14 -17 -8 0 4 11 1 17 -10 17 -19 0 -22 30 -3
30 8 1 6 5 -4 13 -9 7 -19 28 -22 47 -3 19 -19 76 -37 125 -45 125 -48 144
-39 211 8 53 7 61 -12 77 -26 21 -39 22 -39 1 0 -14 -3 -14 -15 -4 -14 11 -13
14 1 25 15 11 13 14 -16 28 -32 16 -50 15 -50 -4 0 -5 9 -9 20 -9 13 0 18 -5
13 -15 -5 -14 -8 -14 -29 0 -13 8 -36 15 -52 15 -16 0 -36 7 -43 16 -12 15
-11 16 10 9 20 -6 23 -4 18 9 -4 10 -1 16 8 16 8 0 15 -6 16 -12 0 -7 4 -3 9
10 12 29 29 28 62 -3z m969 -202 c-14 -48 -14 -116 -1 -129 9 -9 20 -55 36
-149 2 -16 12 -52 21 -80 9 -27 17 -80 17 -117 1 -55 -3 -72 -23 -99 -13 -17
-29 -53 -36 -78 -7 -25 -17 -45 -24 -43 -6 1 -17 3 -23 5 -16 3 -15 -23 1
-118 7 -38 17 -73 24 -77 8 -5 6 -12 -6 -26 -9 -10 -17 -35 -17 -55 0 -20 -4
-37 -9 -37 -19 0 -69 74 -86 125 -9 30 -22 56 -28 58 -8 2 -15 53 -20 153 -4
82 -9 168 -10 192 -4 51 5 54 21 8 21 -58 49 -86 87 -86 27 0 34 5 39 25 4 14
4 30 1 35 -3 4 0 10 7 12 10 4 9 15 0 54 -28 109 -32 342 -6 403 8 18 14 43
14 56 0 29 12 39 22 20 5 -8 5 -31 -1 -52z m-232 -720 c5 -21 12 -51 15 -66 4
-15 11 -25 16 -22 5 3 14 -14 20 -37 33 -124 141 -303 227 -377 27 -23 42 -41
35 -41 -22 0 -141 120 -182 181 -20 31 -49 92 -65 135 -29 82 -45 111 -45 81
0 -9 -4 -17 -8 -17 -22 0 -36 -80 -33 -195 1 -65 4 -122 6 -125 2 -3 6 -46 10
-95 9 -110 8 -105 39 -290 14 -82 32 -163 40 -178 9 -17 13 -39 9 -57 -3 -19
2 -47 15 -77 11 -27 23 -70 27 -98 3 -27 12 -75 20 -105 7 -30 16 -73 19 -95
8 -57 -82 218 -95 290 -6 33 -15 71 -20 84 -6 14 -24 95 -40 180 -54 284 -86
747 -59 846 6 22 14 51 17 65 12 62 19 65 32 13z m-546 -39 c33 8 45 -5 40
-42 -5 -32 -6 -32 -24 -16 -11 9 -19 12 -19 6 0 -6 18 -24 40 -42 33 -26 47
-31 85 -29 26 2 50 -1 53 -7 4 -5 14 -9 22 -9 10 0 15 -11 15 -35 0 -54 47
-135 87 -149 77 -29 108 -45 123 -61 10 -12 -3 -8 -41 11 -31 16 -63 29 -70
29 -28 0 -24 -22 9 -55 37 -37 63 -42 116 -24 28 10 31 15 31 52 0 88 11 21
25 -159 16 -192 63 -489 90 -566 8 -24 15 -55 15 -70 0 -15 11 -61 25 -102 26
-76 32 -140 16 -151 -6 -3 -16 16 -24 42 l-15 48 -1 -37 c-1 -47 -14 -55 -39
-23 -11 14 -23 25 -27 25 -4 0 -31 -19 -59 -42 -57 -48 -127 -84 -231 -121
-90 -32 -92 -33 -144 -62 -24 -14 -53 -25 -64 -25 -11 0 -28 -6 -36 -13 -9 -8
-36 -19 -61 -26 -25 -7 -80 -33 -122 -56 -43 -24 -78 -40 -78 -36 0 14 66 70
123 104 32 20 150 72 263 117 282 113 366 171 401 275 22 66 21 137 -6 330
-12 88 -26 187 -30 220 -5 39 -17 73 -34 99 -15 21 -38 62 -52 92 -14 30 -32
54 -40 54 -24 0 -83 59 -95 96 -6 19 -20 39 -31 45 -11 5 -17 14 -14 19 7 11
-5 40 -17 40 -6 0 -7 -7 -4 -16 15 -39 -23 9 -41 51 -13 33 -24 45 -46 49 -44
9 -124 93 -147 154 -23 60 -26 94 -4 44 12 -28 19 -33 37 -28z m1461 -748
c116 -72 234 -131 356 -181 133 -53 162 -67 156 -73 -8 -7 -107 29 -311 115
-224 95 -296 131 -340 169 l-30 27 49 -7 c33 -4 73 -21 120 -50z m-929 -721
c4 -24 13 -52 20 -61 12 -17 13 -16 19 3 4 12 14 24 23 27 13 5 14 0 9 -38
-12 -75 -51 -161 -111 -240 -31 -42 -61 -79 -67 -82 -13 -8 8 33 34 66 28 35
46 83 43 111 -19 183 -17 179 -93 154 -69 -24 -77 1 -13 40 10 5 39 24 66 42
26 18 52 30 56 27 4 -2 11 -24 14 -49z m-799 -645 c3 -19 9 -39 15 -44 12 -13
12 -29 -1 -21 -5 3 -10 1 -10 -5 0 -6 7 -13 15 -16 8 -4 15 -14 15 -24 0 -9
17 -39 39 -66 45 -57 51 -75 53 -140 1 -57 12 -92 66 -205 43 -89 46 -100 42
-164 -2 -40 -2 -40 -22 25 -11 36 -33 97 -49 137 -16 39 -29 78 -29 86 0 8
-17 48 -37 88 -21 41 -45 103 -54 139 -15 55 -17 60 -18 30 -1 -32 20 -157 34
-205 3 -11 -1 -6 -9 10 -19 41 -88 439 -85 492 1 22 29 -69 35 -117z m3168
-757 c-76 -91 -214 -226 -285 -278 -79 -58 -168 -104 -296 -151 -54 -20 -161
-65 -238 -99 -206 -92 -286 -108 -517 -103 -101 3 -194 9 -208 15 -14 6 -91
16 -170 22 -400 33 -597 59 -723 96 -41 12 -138 80 -246 172 -37 31 -13 28 36
-4 23 -16 66 -45 97 -65 31 -21 72 -44 91 -52 34 -15 35 -15 35 10 0 13 5 24
12 24 16 0 48 -31 48 -46 0 -18 72 -54 108 -54 15 0 32 -4 38 -9 25 -24 443
-57 493 -40 17 6 31 16 31 21 0 15 74 3 149 -22 33 -12 78 -21 101 -22 44 0
172 16 260 34 82 16 150 20 125 8 -15 -8 -6 -9 34 -5 30 2 59 9 64 14 7 7 -3
9 -29 5 l-39 -4 45 15 c53 17 63 18 55 5 -10 -16 33 -12 68 6 18 9 43 29 57
44 19 21 51 34 140 59 151 41 329 129 435 215 44 35 123 107 174 160 52 52 97
93 99 91 3 -3 -17 -30 -44 -62z"/>
<path d="M5032 5653 c-7 -10 -10 -13 -7 -6 4 9 -9 12 -48 9 -49 -2 -57 -6 -91
-43 -20 -22 -63 -53 -95 -69 -42 -21 -61 -36 -64 -52 -6 -29 9 -38 31 -19 10
9 36 15 62 14 25 0 54 4 65 8 28 12 86 57 81 63 -6 5 32 82 40 82 7 0 0 -44
-11 -72 -14 -35 11 -17 34 25 25 46 28 94 3 60z"/>
<path d="M4389 5398 c0 -45 -3 -65 -8 -54 -7 18 -8 18 -14 -5 -4 -13 -7 -50
-7 -82 0 -58 14 -87 41 -87 6 0 1 -10 -13 -23 -14 -13 -35 -53 -47 -89 -22
-66 -22 -66 -4 -153 l18 -87 47 -24 c46 -23 61 -21 36 4 -9 9 -9 12 0 12 7 0
12 9 12 20 0 15 -15 27 -52 45 -33 15 -42 22 -24 18 18 -4 27 -2 23 4 -4 7 8
8 34 3 l40 -8 -6 42 c-4 22 -11 45 -16 50 -5 6 -9 25 -9 43 0 18 -5 33 -11 33
-24 0 66 52 98 57 53 9 33 27 -43 39 l-69 11 35 16 c19 9 49 25 65 37 17 11
47 25 68 30 39 11 48 26 20 33 -10 2 -38 -11 -63 -28 -69 -48 -78 -51 -37 -13
41 40 47 62 17 78 -11 6 -19 16 -17 22 1 6 -10 18 -25 25 -16 8 -31 26 -34 41
-7 29 -31 62 -46 62 -4 0 -8 -33 -9 -72z"/>
</g>
</svg>
