<?xml version="1.0" standalone="no"?>
<!DOCTYPE svg PUBLIC "-//W3C//DTD SVG 20010904//EN"
 "http://www.w3.org/TR/2001/REC-SVG-20010904/DTD/svg10.dtd">
<svg version="1.0" xmlns="http://www.w3.org/2000/svg"
 width="640.000000pt" height="640.000000pt" viewBox="0 0 640.000000 640.000000"
 preserveAspectRatio="xMidYMid meet">
<metadata>
Created by potrace 1.16, written by Peter Selinger 2001-2019
</metadata>
<g transform="translate(0.000000,640.000000) scale(0.100000,-0.100000)"
fill="red" stroke="none">
<path d="M43 6377 l-42 -22 -1 -82 0 -81 31 15 c20 10 44 13 70 9 29 -5 39 -3
39 7 0 7 18 23 39 35 21 12 41 29 45 37 3 10 19 15 47 15 28 0 47 6 56 18 8 9
12 11 8 5 -3 -7 -1 -13 6 -13 20 0 59 -44 59 -67 0 -22 29 -86 43 -91 4 -2 7
-18 7 -35 0 -22 3 -28 9 -18 5 7 14 11 20 7 6 -4 9 -1 5 7 -3 8 3 18 13 22 17
7 17 8 -2 15 -15 7 -9 9 24 9 34 1 42 -2 37 -14 -10 -26 8 -16 37 20 29 36 92
61 127 50 12 -4 20 -2 20 4 0 6 11 11 25 11 14 0 28 7 31 15 5 12 24 15 86 15
71 0 81 3 104 25 14 14 31 25 39 25 8 0 15 5 15 10 0 18 -35 11 -50 -10 -14
-20 -37 -29 -25 -10 4 6 -12 10 -39 10 -25 0 -46 -4 -46 -10 0 -5 -18 -10 -40
-10 -22 0 -40 -4 -40 -10 0 -5 -10 -10 -22 -10 l-23 1 24 19 c14 12 38 20 62
20 27 0 39 4 39 14 0 10 22 16 80 21 69 6 80 10 80 26 0 18 -15 19 -477 18
-470 -1 -479 -1 -520 -22z" fill="red"/>
<path d="M1558 6363 c-3 -41 24 -85 47 -77 7 3 22 -6 33 -20 11 -14 25 -26 31
-26 7 0 11 -20 11 -49 l0 -48 -108 1 c-92 0 -114 -3 -155 -22 -26 -12 -52 -20
-56 -18 -4 3 -17 -1 -27 -9 -10 -8 -27 -15 -36 -15 -11 0 -18 -8 -18 -19 0
-16 -8 -21 -42 -24 l-43 -4 43 -1 c30 -1 42 -6 42 -17 0 -9 9 -15 25 -15 32 0
32 -13 -1 -39 -27 -21 -25 -41 3 -41 9 0 25 -7 35 -17 17 -15 18 -15 18 0 0
10 8 17 20 17 17 0 20 -7 20 -40 0 -22 5 -40 10 -40 6 0 10 -18 10 -40 0 -22
5 -40 10 -40 6 0 10 7 10 16 0 14 2 15 17 3 15 -13 15 -14 0 -17 -12 -3 -17
-14 -17 -43 0 -39 0 -39 -40 -39 -33 0 -40 -3 -40 -20 0 -17 -7 -20 -40 -20
-33 0 -40 -3 -40 -20 0 -11 -4 -20 -9 -20 -22 0 -71 -63 -71 -91 0 -27 -2 -29
-40 -29 -36 0 -40 3 -40 25 0 22 -4 25 -34 25 -65 0 -94 -10 -89 -31 3 -11 13
-19 22 -18 9 1 36 1 60 0 39 -1 43 -3 39 -23 -4 -21 -1 -23 39 -19 38 3 43 1
43 -18 0 -18 6 -21 40 -21 l40 0 0 43 c0 34 7 50 35 82 23 26 38 36 42 29 10
-15 87 -21 131 -10 35 8 42 29 15 45 -15 9 -14 10 11 11 18 0 35 9 48 25 13
17 26 24 38 20 17 -5 88 29 83 40 -8 15 2 25 50 49 30 14 59 26 65 26 7 0 12
17 12 40 0 29 4 40 15 40 8 0 15 -9 15 -20 0 -16 7 -20 34 -20 39 0 96 18 96
31 0 5 16 9 35 9 34 0 35 1 35 40 0 34 -3 40 -22 40 -12 0 -19 3 -15 6 3 3 40
3 81 -1 67 -7 76 -10 76 -28 0 -18 4 -19 60 -14 33 4 87 4 120 0 50 -5 60 -9
60 -24 0 -15 8 -19 40 -19 l40 0 0 40 c0 22 4 40 10 40 5 0 24 16 43 35 27 27
43 35 73 36 23 1 30 3 17 6 -27 5 -29 16 -8 33 11 9 38 10 100 5 l85 -7 0 26
c0 16 6 26 15 26 11 0 15 -11 15 -40 0 -29 -4 -40 -15 -40 -9 0 -15 -9 -15
-21 0 -20 3 -21 82 -14 101 9 127 25 128 78 l0 37 55 0 c40 0 55 4 55 14 0 10
22 16 80 21 49 4 80 11 80 19 0 6 18 28 40 49 36 33 40 42 40 86 l0 48 64 7
c36 3 83 4 105 0 40 -6 41 -8 41 -45 l0 -39 55 0 55 0 0 40 0 40 80 0 c79 0
80 0 80 -25 0 -25 1 -25 78 -25 102 0 122 13 122 81 l0 49 -1239 0 -1240 0 -3
-37z" fill="red"/>
<path d="M4423 6374 c-26 -28 -30 -54 -8 -54 11 0 15 -11 15 -40 0 -22 5 -40
10 -40 6 0 10 -18 10 -40 0 -36 -2 -40 -25 -40 -24 0 -25 -3 -25 -55 l0 -55
40 0 c27 0 40 4 40 14 0 16 121 31 164 20 22 -5 26 -11 26 -45 l0 -39 65 0 65
0 0 -35 c0 -19 3 -35 7 -35 4 0 21 16 39 35 17 19 41 35 53 35 20 0 21 5 21
80 0 75 -1 80 -21 80 -12 0 -36 -16 -53 -35 -18 -19 -35 -35 -39 -35 -4 0 -7
34 -7 75 l0 75 160 0 160 0 0 40 c0 22 4 40 9 40 12 0 71 59 71 71 0 5 -153 9
-377 8 l-378 -1 -22 -24z"/>
<path d="M6120 6360 c0 -33 3 -40 20 -40 13 0 20 -7 20 -20 0 -17 -7 -20 -40
-20 -33 0 -40 -3 -40 -20 0 -18 -7 -20 -80 -20 -64 0 -80 3 -80 15 0 11 -11
15 -40 15 -29 0 -40 -4 -40 -15 0 -8 -7 -15 -15 -15 -12 0 -15 -16 -15 -80 0
-64 3 -80 15 -80 11 0 15 11 15 40 0 33 3 40 20 40 17 0 20 7 20 40 0 33 3 40
20 40 17 0 20 -7 20 -40 l0 -40 40 0 c29 0 40 -4 40 -15 0 -11 11 -15 40 -15
l40 0 0 56 0 56 80 -7 c56 -5 80 -4 80 4 0 6 17 11 40 11 29 0 40 4 40 15 0
11 11 15 40 15 l40 0 0 60 0 60 -62 0 c-43 0 -67 -5 -80 -17 -17 -15 -18 -15
-18 0 0 14 -11 17 -60 17 l-60 0 0 -40z" fill="red"/>
<path d="M3446 4266 c4 -11 -5 -17 -31 -22 -20 -3 -34 -9 -31 -11 3 -3 -5 -15
-18 -27 -30 -28 -61 -125 -53 -166 6 -29 4 -32 -29 -46 -40 -17 -124 -94 -125
-115 -2 -43 -12 -75 -24 -84 -7 -6 -21 -34 -30 -63 -9 -28 -26 -61 -36 -73
-10 -12 -19 -26 -19 -30 0 -9 -64 -85 -131 -156 -21 -23 -39 -50 -39 -61 0
-11 -8 -33 -17 -49 -14 -26 -19 -28 -40 -19 -12 6 -23 17 -23 25 0 8 -8 20
-17 27 -16 12 -15 13 10 14 26 0 40 19 15 21 -62 5 -86 5 -82 -2 2 -4 0 -10
-6 -14 -5 -3 -10 1 -10 11 0 15 -2 15 -25 0 -23 -15 -28 -15 -47 -1 -27 18
-68 20 -68 3 0 -9 -4 -8 -10 2 -5 8 -10 10 -10 4 0 -6 -15 -14 -32 -18 -26 -5
-37 -2 -50 14 -24 30 -110 28 -163 -5 -22 -13 -57 -32 -77 -41 -21 -9 -38 -20
-38 -24 0 -5 -7 -16 -16 -25 -9 -8 -14 -21 -11 -28 8 -20 3 -32 -10 -29 -7 2
-13 -2 -13 -8 0 -5 -5 -10 -12 -10 -6 0 -27 -17 -46 -37 -34 -38 -35 -38 -43
-15 -9 25 -34 25 -34 1 0 -8 -15 -24 -32 -37 -33 -23 -37 -31 -34 -64 2 -11
-5 -18 -15 -18 -16 0 -16 -1 -1 -18 16 -17 15 -20 -22 -51 -44 -37 -56 -67
-41 -106 6 -17 7 -33 0 -44 -7 -14 -2 -25 25 -51 32 -31 51 -82 46 -122 -2
-15 3 -17 29 -12 23 5 34 2 44 -11 7 -10 18 -15 25 -11 7 5 20 -3 33 -19 15
-19 27 -26 45 -22 13 2 42 1 65 -3 30 -6 51 -4 70 6 15 8 29 10 32 5 8 -13 42
-2 62 20 19 21 40 25 46 8 2 -7 34 -13 78 -14 41 -2 90 -3 108 -4 17 0 40 -9
50 -19 29 -29 63 -35 69 -11 5 18 7 18 18 3 10 -15 16 -15 49 -3 40 15 41 14
71 -36 8 -14 15 -15 39 -5 16 6 37 8 45 4 9 -4 21 -8 26 -9 6 0 19 -5 29 -10
13 -6 22 -3 31 9 17 23 25 1 18 -52 -9 -69 5 -132 38 -165 l29 -29 -22 -39
c-24 -44 -59 -59 -120 -51 -35 4 -38 2 -57 -39 -35 -71 -28 -79 65 -79 41 0
56 -4 61 -16 4 -11 8 -12 13 -4 4 7 13 9 20 5 9 -6 9 -9 0 -15 -16 -10 92 -35
114 -27 9 4 16 16 16 28 0 20 3 21 43 14 23 -4 65 -10 92 -15 l50 -7 -60 -2
c-59 -3 -59 -3 -30 -16 17 -7 51 -15 77 -17 46 -5 46 -5 53 29 3 19 4 58 1 86
-8 73 4 119 36 135 37 17 56 75 64 187 6 84 10 98 29 111 19 12 26 12 54 -2
22 -11 36 -13 44 -6 18 15 69 3 63 -15 -3 -8 -6 -17 -6 -19 0 -2 -7 -4 -15 -4
-20 0 -47 -43 -39 -64 4 -10 0 -18 -10 -22 -32 -12 -16 -32 34 -43 28 -6 62
-18 76 -28 21 -13 27 -14 34 -3 7 11 11 11 24 1 12 -10 13 -18 5 -33 -15 -27
-2 -71 26 -97 14 -11 25 -18 25 -16 0 3 17 -12 38 -35 49 -51 68 -51 88 0 16
41 29 50 37 28 3 -9 23 -3 68 22 62 33 66 34 159 30 113 -4 124 -4 355 2 200
5 244 -3 281 -50 l22 -26 70 18 c39 10 90 17 114 16 65 -4 78 -1 78 14 0 15
89 70 150 94 80 31 100 33 177 22 79 -11 105 -4 81 21 -7 8 -20 28 -28 44 -8
17 -18 32 -21 35 -3 3 -11 15 -18 27 -10 21 -8 25 19 42 28 16 48 18 178 15
81 -3 163 -5 183 -6 30 -2 42 4 67 31 17 19 46 43 64 55 19 11 48 30 65 40 17
11 42 39 56 62 25 41 27 42 58 34 65 -19 109 -69 94 -107 -3 -8 0 -24 6 -35 9
-16 7 -26 -11 -50 -19 -26 -20 -34 -11 -79 12 -56 10 -63 -32 -99 -38 -32 -57
-77 -57 -134 0 -42 -2 -45 -40 -60 -44 -18 -97 -21 -119 -7 -8 5 -16 32 -19
65 l-4 55 -55 12 c-41 9 -56 10 -65 1 -7 -7 -27 -12 -45 -12 -22 0 -33 -5 -33
-15 0 -7 -6 -18 -13 -22 -8 -4 -16 -16 -20 -25 -3 -10 -13 -18 -21 -18 -7 0
-27 -7 -42 -15 -16 -8 -39 -15 -51 -15 -26 0 -43 -27 -43 -67 0 -15 -10 -41
-23 -56 -20 -26 -26 -27 -65 -21 -51 8 -72 26 -72 60 0 61 -52 67 -108 14 -18
-16 -41 -30 -51 -30 -26 0 -51 26 -58 61 -6 34 -6 34 -38 13 -13 -8 -34 -14
-47 -13 -14 2 -32 -5 -46 -19 -29 -29 -57 -28 -98 3 -18 14 -55 30 -81 34 -41
8 -51 7 -69 -10 -11 -10 -26 -19 -32 -19 -7 0 -12 -4 -12 -10 0 -5 -17 -25
-37 -45 l-36 -35 29 -33 c16 -17 33 -34 37 -38 4 -3 10 -22 14 -42 6 -38 1
-43 -37 -37 -19 2 -50 35 -50 53 0 17 -42 37 -79 37 -30 0 -61 27 -61 53 0 9
-5 17 -10 17 -6 0 -19 19 -29 43 -28 64 -39 70 -95 50 -25 -10 -46 -21 -46
-25 0 -4 -7 -8 -15 -8 -9 0 -32 -16 -51 -35 -20 -20 -60 -47 -90 -60 -30 -13
-54 -29 -54 -34 0 -6 -13 -11 -29 -11 -16 0 -34 -6 -40 -14 -7 -8 -26 -18 -43
-21 -18 -4 -32 -15 -35 -26 -4 -14 -14 -19 -39 -19 -36 0 -84 18 -84 32 0 4
-21 8 -47 8 -30 0 -66 8 -95 22 -51 25 -72 59 -83 135 -4 24 -10 45 -15 48 -4
2 -20 -7 -35 -21 -15 -14 -34 -23 -41 -20 -26 10 -41 -41 -47 -155 -3 -52 -33
-83 -72 -74 -16 4 -68 7 -115 7 -51 0 -88 5 -92 12 -11 16 -9 -51 3 -104 6
-25 10 -58 9 -74 0 -25 2 -27 15 -16 22 18 18 6 -14 -46 -19 -31 -30 -41 -34
-32 -3 8 -1 21 4 29 12 19 11 42 -1 34 -6 -3 -7 1 -3 10 5 14 8 14 15 3 8 -10
9 -10 5 2 -2 9 -13 14 -28 12 -19 -2 -21 -1 -9 7 18 13 3 13 -25 1 -11 -5 -14
-9 -7 -9 17 -1 15 -18 -3 -18 -8 0 -15 5 -16 11 -1 6 -7 -7 -15 -29 l-14 -40
4 37 c5 43 -10 53 -17 11 -3 -22 -4 -20 -6 10 0 21 -5 36 -10 33 -5 -4 -12 0
-14 6 -3 7 -6 2 -7 -12 l-1 -25 -19 24 -20 23 0 -23 -1 -24 -12 23 c-7 12 -16
19 -20 16 -4 -4 -15 1 -25 12 -10 11 -44 28 -76 39 -33 11 -55 24 -52 31 3 7
-3 10 -15 7 -10 -3 -19 -9 -19 -14 0 -5 -15 -12 -32 -17 -29 -7 -34 -14 -42
-51 -7 -31 -6 -45 3 -50 7 -4 11 -14 9 -21 -2 -8 2 -14 9 -15 6 0 13 -2 15 -5
1 -3 1 -4 -1 -2 -3 1 -16 -8 -30 -20 -22 -20 -23 -20 -8 -2 16 20 14 34 -5 34
-5 0 -6 -5 -3 -10 3 -5 1 -10 -4 -10 -6 0 -11 5 -11 10 0 6 -6 10 -13 10 -18
0 -85 -57 -91 -78 -8 -24 -76 -56 -76 -36 0 17 -5 17 -33 3 -22 -12 -22 -12
-3 10 11 11 15 21 10 22 -5 0 11 9 35 20 24 11 41 23 37 27 -16 15 -60 7 -84
-15 -33 -30 -47 -29 -26 2 9 14 22 25 30 25 22 0 27 21 10 38 -16 16 -18 16
-34 -4 -18 -22 -72 -58 -72 -49 0 17 22 44 33 41 6 -1 9 -1 5 1 -4 3 -5 19 -2
36 l6 32 -21 -25 c-11 -14 -23 -33 -27 -42 -3 -10 -10 -18 -15 -18 -6 0 -7 5
-3 12 4 7 3 8 -5 4 -6 -4 -9 -11 -6 -16 3 -4 2 -10 -2 -13 -5 -2 -2 -2 5 -1 6
2 12 -1 12 -5 0 -12 -29 -23 -41 -16 -5 4 -6 0 -3 -8 3 -8 1 -17 -3 -20 -8 -5
-13 11 -16 55 -1 9 -5 14 -10 11 -10 -6 -38 17 -32 27 8 13 -20 6 -49 -13 -15
-10 -36 -38 -48 -62 -12 -25 -27 -45 -33 -45 -17 0 -34 21 -28 36 3 8 1 14 -3
14 -12 -1 -50 -30 -39 -30 11 0 -27 -29 -39 -30 -5 0 -6 14 -2 30 6 34 -7 39
-36 13 -17 -15 -18 -15 -12 15 7 37 -8 42 -39 15 -11 -10 -18 -13 -14 -8 3 6
1 17 -4 25 -8 13 -10 13 -19 0 -5 -8 -10 -11 -10 -6 0 6 -5 5 -12 -2 -7 -7
-17 -12 -22 -12 -6 0 -5 5 2 12 7 7 12 16 12 20 0 17 -19 7 -56 -30 -52 -52
-80 -67 -88 -46 -3 8 1 29 10 46 12 23 13 29 2 26 -7 -3 -22 -27 -33 -54 -24
-62 -24 -61 -36 -44 -8 13 -11 12 -24 -4 -13 -18 -15 -16 -31 20 -45 103 -44
101 -44 77 0 -37 -21 -71 -46 -76 -25 -4 -24 -2 8 45 11 15 14 29 9 33 -6 3
-15 -4 -21 -15 -6 -11 -18 -20 -27 -20 -9 0 -27 -10 -40 -22 l-23 -21 0 26 c0
35 -15 42 -28 12 -7 -14 -16 -25 -22 -25 -5 0 -10 -8 -11 -17 0 -10 -9 6 -20
36 -10 30 -22 57 -25 60 -7 6 1 -34 12 -63 4 -11 0 -16 -13 -16 -10 0 -24 -5
-31 -12 -9 -9 -12 -9 -12 0 0 7 -4 12 -10 12 -5 0 -10 -7 -10 -16 0 -8 -5 -12
-10 -9 -6 3 -13 -1 -16 -9 -4 -10 -19 -16 -41 -16 l-35 0 29 34 c15 19 43 40
61 46 27 10 45 30 26 30 -24 0 -139 -67 -171 -100 l-40 -40 9 53 c5 28 18 72
29 97 13 32 14 39 4 25 -17 -22 -55 -136 -55 -166 0 -25 -30 -24 -31 1 -4 53
-13 59 -44 30 -23 -22 -25 -22 -26 -4 -1 10 -1 23 0 27 1 5 -4 7 -11 5 -7 -3
-16 -22 -21 -44 -9 -44 -22 -62 -30 -41 -6 16 34 111 52 121 6 4 16 17 22 29
10 18 7 17 -19 -7 -17 -15 -41 -48 -54 -72 -22 -42 -42 -59 -36 -31 4 18 -3
21 -30 13 -17 -6 -27 -3 -37 11 -14 17 -14 17 -15 -2 -1 -11 -4 -14 -7 -7 -9
22 -33 13 -33 -13 0 -28 -21 -33 -42 -11 -11 12 -17 12 -43 -3 -16 -9 -31 -19
-33 -23 -2 -5 -8 -8 -13 -8 -6 0 -5 9 2 21 6 12 8 30 5 42 -3 11 -1 29 5 39
12 21 -9 26 -30 6 -10 -11 -15 -9 -25 5 -12 16 -14 16 -20 1 -3 -8 -6 -26 -6
-39 0 -24 -22 -39 -36 -25 -5 5 -18 10 -29 12 -17 3 -19 -2 -17 -37 2 -22 5
-48 8 -57 3 -12 0 -18 -9 -18 -9 0 -18 -6 -20 -12 -3 -7 -6 2 -6 20 -1 18 -6
32 -13 32 -9 0 -9 3 0 12 26 26 10 30 -17 4 -62 -59 -46 29 18 97 19 20 30 37
24 37 -16 0 -71 -66 -88 -105 -7 -19 -19 -35 -24 -35 -15 0 -14 13 1 28 17 17
-33 16 -51 0 -11 -10 -14 -10 -18 0 -8 20 -33 14 -33 -8 0 -15 -9 -22 -30 -27
-17 -3 -28 -8 -25 -11 3 -3 -9 -20 -26 -38 -27 -28 -34 -31 -45 -19 -16 16
-18 41 -4 50 5 3 10 11 10 16 0 6 -13 1 -30 -11 -28 -20 -30 -20 -31 -3 0 10
-3 13 -6 6 -2 -7 -11 -13 -18 -13 -7 0 -15 -6 -18 -12 -2 -7 -8 -9 -13 -5 -13
13 77 92 128 113 27 10 48 22 48 26 0 10 -101 -32 -124 -51 -16 -13 -14 -7 7
33 45 82 23 62 -27 -24 -26 -44 -51 -78 -56 -75 -7 4 -10 -261 -10 -734 l0
-741 3200 0 3200 0 0 1919 0 1919 -30 -28 c-55 -52 -132 -80 -218 -80 -96 -1
-161 -15 -185 -41 -19 -20 -19 -23 -3 -90 10 -38 15 -73 11 -79 -3 -5 -2 -26
4 -45 8 -31 7 -35 -9 -35 -10 0 -31 7 -46 15 -39 20 -71 19 -101 -4 -28 -23
-120 -52 -173 -56 -19 -2 -55 -8 -80 -14 l-45 -12 -3 -66 c-2 -55 -8 -73 -32
-107 -17 -22 -30 -46 -30 -54 0 -16 -17 -34 -48 -51 -17 -9 -37 -9 -82 -1 -56
10 -62 9 -97 -14 -78 -50 -97 -46 -159 32 -14 17 -32 32 -39 32 -8 0 -30 -16
-51 -35 -20 -19 -40 -35 -44 -35 -5 0 -13 -13 -19 -30 -12 -35 -41 -40 -42 -7
0 12 -3 16 -6 10 -2 -7 -9 -13 -14 -13 -6 0 -5 9 1 21 15 28 2 39 -16 14 -15
-19 -15 -19 -9 7 6 24 4 26 -17 22 -12 -2 -17 -2 -10 2 21 10 13 44 -13 56
-14 6 -25 17 -25 24 0 7 -12 19 -27 26 -32 15 -38 53 -15 96 16 31 57 136 67
172 4 14 16 37 27 53 17 24 25 27 79 27 l59 0 0 34 c0 19 -11 54 -25 77 -14
24 -25 51 -25 59 0 8 -9 21 -21 28 -17 11 -28 10 -65 -4 -61 -23 -107 -14
-182 36 l-64 43 -101 -7 c-76 -5 -114 -13 -152 -32 -29 -13 -57 -24 -64 -24
-6 0 -22 -7 -35 -15 -13 -9 -63 -22 -112 -31 -48 -8 -95 -19 -104 -24 -15 -8
-56 -17 -87 -19 -7 -1 -10 -8 -6 -16 10 -27 -21 -12 -33 15 -23 49 -42 95 -48
116 -4 14 -18 24 -36 28 -17 3 -30 12 -30 21 0 8 -13 37 -30 63 -16 27 -30 54
-30 59 0 6 -7 16 -15 23 -9 7 -13 21 -10 31 3 9 1 21 -6 24 -8 6 -8 9 1 15 15
9 -19 79 -40 80 -12 1 -11 4 4 15 19 14 13 41 -6 29 -7 -5 -8 -2 -4 5 12 18
-22 51 -79 77 -58 27 -118 32 -109 10z m54 -100 c0 -7 7 -19 15 -26 10 -8 15
-28 15 -54 -1 -23 0 -50 2 -61 2 -13 -4 -21 -17 -23 -11 -2 -23 -9 -27 -15 -3
-5 -26 -11 -50 -13 -23 -1 -58 -4 -75 -6 -18 -2 -33 -1 -33 4 0 4 5 8 10 8 14
0 12 27 -2 33 -10 4 -9 8 2 16 10 7 11 11 2 11 -26 0 6 83 37 95 10 4 9 -1 -5
-16 -15 -18 -16 -21 -3 -16 10 3 35 11 57 18 27 8 39 16 35 25 -3 8 0 14 7 14
6 0 8 5 5 10 -3 6 1 10 9 10 9 0 16 -6 16 -14z m-353 -715 c-6 -60 -28 -94
-73 -116 -19 -9 -34 -19 -34 -24 0 -4 -11 -14 -25 -21 -22 -12 -27 -11 -39 5
-12 17 -16 17 -30 6 -14 -12 -16 -12 -11 2 4 8 20 26 37 39 89 67 127 99 149
126 13 17 25 31 27 31 2 1 1 -21 -1 -48z m2881 -126 c9 -4 52 -6 94 -6 67 1
78 -1 88 -18 26 -50 1 -90 -46 -69 -23 11 -28 10 -32 -1 -3 -8 -24 -33 -47
-57 -23 -23 -46 -55 -49 -70 -7 -26 -9 -27 -20 -12 -7 10 -16 15 -19 12 -3 -3
-13 6 -23 21 -19 29 -101 75 -134 75 -11 0 -20 6 -20 14 0 22 -29 46 -56 46
-13 0 -24 5 -24 10 0 6 13 10 28 10 15 0 33 5 39 11 6 6 35 14 64 19 68 11
129 32 130 45 1 5 3 3 6 -7 2 -9 12 -19 21 -23z m-1141 -582 c18 -16 34 -43
38 -63 4 -19 12 -38 18 -41 6 -4 -1 -17 -16 -30 -72 -67 -146 -97 -272 -109
-58 -5 -115 -16 -127 -24 -13 -8 -45 -18 -73 -22 -27 -4 -53 -11 -56 -16 -6
-10 -56 -22 -159 -38 -30 -5 -77 -14 -105 -19 -27 -5 -81 -10 -118 -10 -116
-1 -169 41 -118 95 25 28 41 59 41 82 0 11 6 24 13 30 24 20 138 33 197 22 19
-4 25 -1 25 12 0 10 10 25 23 33 14 10 22 12 22 5 0 -17 28 -42 35 -31 3 6 -1
13 -9 18 -9 5 10 9 47 10 34 1 66 -2 72 -7 5 -4 30 -4 55 1 25 6 52 10 60 9
65 -3 151 3 182 12 32 9 94 58 74 58 -4 0 -2 9 4 20 6 12 21 20 35 20 16 0 25
6 25 15 0 9 6 22 13 29 10 11 15 10 27 -9 8 -13 29 -36 47 -52z m280 -769 c36
-27 44 -65 20 -97 -13 -19 -59 -16 -87 6 -19 15 -60 73 -60 85 0 39 79 43 127
6z" fill="blue"/>
</g>
</svg>
