<svg version="1.0" xmlns="http://www.w3.org/2000/svg"
 width="640.000000pt" height="640.000000pt" viewBox="0 0 640.000000 640.000000"
 preserveAspectRatio="xMidYMid meet">
<g transform="translate(0.000000,640.000000) scale(0.100000,-0.100000)"
fill="#000000" stroke="none">
<path d="M3095 5150 c-22 -4 -78 -11 -125 -14 -98 -6 -131 -16 -254 -75 -90
-43 -180 -104 -191 -130 -3 -7 -1 -19 5 -26 12 -14 60 -17 60 -4 0 5 5 9 11 9
6 0 9 -9 6 -20 -4 -14 0 -20 11 -20 13 0 11 -4 -6 -16 -12 -8 -27 -12 -32 -9
-6 3 -10 1 -10 -4 0 -6 -5 -11 -11 -11 -5 0 -7 5 -4 10 8 13 1 13 -47 -2 -32
-9 -41 -9 -48 1 -5 9 -16 -2 -36 -37 -15 -28 -33 -48 -39 -45 -5 4 -1 -4 10
-17 11 -13 14 -20 8 -16 -8 4 -17 -2 -24 -16 -11 -26 -55 -38 -45 -12 4 9 -1
14 -14 14 -22 0 -26 -20 -8 -38 9 -9 9 -12 0 -12 -7 0 -12 4 -12 9 0 5 -8 11
-17 14 -10 4 -28 14 -40 23 -22 16 -23 16 -23 -9 0 -20 4 -24 20 -20 12 3 20
0 20 -6 0 -7 4 -10 9 -7 5 3 14 -1 21 -9 7 -8 24 -13 40 -11 20 2 27 -1 26
-13 -1 -9 5 -15 14 -13 12 3 13 1 3 -9 -20 -21 -15 -35 24 -73 21 -19 34 -38
30 -43 -5 -4 -12 -1 -17 7 -8 12 -10 12 -10 -3 0 -26 -23 -16 -31 14 -5 18 -7
19 -8 5 -1 -15 -4 -16 -16 -6 -8 7 -15 20 -15 30 0 19 -92 114 -113 116 -30 3
-34 5 -34 22 0 9 5 20 10 24 6 3 -2 5 -16 5 -15 -1 -27 -6 -27 -12 0 -5 -4 -4
-9 4 -6 10 -13 5 -25 -19 -18 -36 -14 -50 15 -50 10 0 19 -5 19 -11 0 -5 -4
-8 -8 -5 -5 3 -14 -3 -22 -14 -13 -18 -40 -17 -40 2 0 6 7 8 15 4 8 -3 15 -1
15 5 0 6 -8 9 -17 7 -11 -2 -17 -12 -16 -25 2 -13 -5 -23 -17 -26 -25 -6 -26
-35 -2 -44 25 -9 32 -24 21 -44 -6 -13 -5 -22 4 -30 7 -7 12 -23 9 -35 -6 -31
49 -84 87 -84 30 0 54 -21 33 -28 -18 -6 -14 -39 7 -59 15 -14 21 -39 26 -115
5 -71 4 -98 -4 -98 -7 0 -9 -9 -5 -25 4 -18 0 -30 -20 -48 -14 -13 -26 -30
-26 -36 0 -7 -5 -9 -10 -6 -6 4 -8 11 -5 16 13 21 -16 7 -30 -15 -13 -19 -15
-55 -12 -207 3 -203 11 -235 66 -263 15 -8 35 -26 44 -39 13 -20 26 -25 72
-29 71 -6 88 -23 104 -106 21 -111 78 -229 162 -333 25 -32 49 -202 56 -411
l5 -148 -32 -62 c-71 -139 -154 -195 -585 -391 -55 -25 -135 -56 -177 -68 -43
-12 -78 -25 -78 -29 0 -3 15 -12 34 -18 46 -17 62 -37 46 -57 -13 -15 -35 -11
-25 6 4 5 -1 9 -9 9 -19 0 -21 -11 -4 -28 8 -8 8 -12 1 -12 -6 0 -13 7 -17 15
-3 8 -10 15 -17 15 -6 0 -8 -7 -5 -17 6 -15 4 -15 -14 2 -21 19 -23 16 -21
-25 1 -18 -1 -21 -7 -11 -8 11 -10 11 -14 0 -4 -12 -8 -12 -22 1 -16 13 -21
11 -50 -20 -17 -19 -38 -36 -46 -38 -15 -3 -40 -30 -40 -43 0 -12 67 -22 96
-15 25 7 26 5 22 -30 -3 -43 -18 -36 167 -74 192 -39 322 -82 595 -196 74 -31
165 -67 202 -80 95 -34 311 -75 374 -72 l54 3 -31 33 c-34 36 -35 54 -2 23 27
-25 52 -7 27 20 -10 11 -12 19 -5 24 6 3 11 17 11 31 0 24 14 30 38 16 7 -5
10 -16 6 -25 -3 -9 -2 -17 4 -17 6 0 17 -2 24 -5 13 -5 18 14 21 87 2 22 44
30 52 10 7 -20 -4 -30 -14 -13 -7 10 -11 8 -16 -9 -7 -22 10 -44 27 -34 4 3 5
-3 1 -12 -4 -12 -3 -15 6 -10 8 6 10 1 6 -17 -4 -16 -2 -26 7 -29 10 -4 13 4
12 31 -1 30 6 53 24 81 2 2 7 -1 11 -9 6 -10 12 -9 25 4 9 9 22 15 29 12 7 -3
18 6 24 19 10 21 9 24 -9 24 -16 0 -18 3 -9 14 8 10 9 16 1 21 -15 9 -1 28 16
21 9 -4 14 2 14 17 1 19 41 77 53 77 3 0 7 -9 10 -20 5 -19 15 -21 80 -11 13
2 7 21 -7 21 -8 0 -16 6 -19 13 -3 9 -9 9 -26 -1 -18 -11 -21 -10 -21 7 0 11
4 22 9 25 5 3 11 15 14 27 4 16 2 19 -11 14 -14 -5 -14 -4 -5 6 10 10 16 9 31
-4 24 -22 29 -21 35 3 7 27 27 25 28 -2 1 -19 2 -18 9 6 5 16 8 41 6 56 -3 23
0 26 20 22 19 -3 23 -9 18 -27 -4 -16 2 -31 20 -50 28 -30 38 -28 43 8 5 28
33 59 34 37 0 -10 3 -8 8 5 7 17 11 16 44 -18 20 -20 37 -31 37 -24 0 7 -6 19
-12 26 -11 12 -9 13 7 6 11 -4 28 -7 38 -7 12 1 17 -4 13 -14 -4 -9 1 -14 15
-14 18 0 20 -4 15 -25 -4 -14 -3 -25 1 -26 48 -5 68 -3 79 9 20 19 50 11 46
-13 -2 -11 -1 -17 4 -13 4 4 13 3 21 -3 8 -8 13 -8 13 -1 0 6 -4 12 -9 14 -12
4 -2 58 10 58 5 0 9 -10 9 -21 0 -17 3 -19 14 -10 18 15 39 -10 40 -50 1 -26
4 -30 25 -26 17 3 25 -1 28 -14 3 -11 13 -19 22 -19 9 0 22 -5 27 -10 6 -6 33
-13 61 -16 47 -6 72 1 156 44 4 2 7 -4 7 -13 0 -30 17 -6 23 33 7 40 51 94 59
71 3 -9 6 -8 11 4 3 9 2 17 -4 17 -5 0 -3 13 5 28 12 23 22 29 48 30 27 1 30
-1 16 -9 -10 -6 -18 -15 -18 -20 0 -6 5 -7 10 -4 6 3 10 -1 10 -10 0 -12 5
-15 17 -11 9 4 20 1 24 -6 5 -8 11 -4 18 16 12 30 6 49 -12 43 -19 -6 -42 22
-29 35 8 8 15 6 27 -6 9 -9 23 -16 31 -16 8 0 14 -8 14 -17 0 -10 7 -27 15
-37 13 -17 15 -17 21 -3 9 25 22 21 39 -13 26 -49 49 -55 100 -25 45 26 65 51
65 79 0 36 -178 127 -315 160 -81 20 -159 48 -214 76 -21 10 -67 29 -102 41
-69 23 -92 34 -214 99 -144 76 -239 139 -309 203 -52 49 -64 65 -52 70 9 4 16
13 16 21 0 16 37 29 46 15 3 -5 -6 -13 -20 -19 -28 -10 -33 -29 -14 -48 15
-15 48 -16 48 -2 0 6 -7 10 -15 10 -8 0 -15 6 -15 14 0 11 10 13 42 9 30 -5
39 -3 34 6 -8 12 18 44 28 34 3 -4 6 3 6 15 0 12 5 22 10 22 16 0 12 -50 -5
-56 -8 -4 -15 -10 -15 -15 0 -4 7 -6 15 -3 11 5 15 -1 15 -20 0 -27 6 -31 27
-18 8 5 10 20 7 37 l-5 29 21 -19 22 -20 -3 25 c-3 17 0 24 9 22 10 -2 11 7 6
33 -5 30 -4 34 10 29 9 -4 16 -1 16 6 0 7 7 10 15 6 22 -8 18 8 -6 30 -21 19
-22 19 -15 -4 7 -21 5 -22 -18 -16 -16 4 -26 2 -26 -5 0 -6 -7 -11 -15 -11 -8
0 -15 4 -15 10 0 5 -6 7 -14 4 -9 -4 -15 7 -20 35 -4 26 -13 44 -27 51 -20 11
-20 11 -3 -15 12 -18 14 -29 7 -36 -8 -8 -13 -7 -17 0 -10 16 -26 13 -26 -4 0
-20 -17 -19 -28 1 -8 15 -11 14 -24 -5 -15 -22 -16 -21 -22 16 -3 21 -6 53 -6
71 1 23 -4 32 -16 32 -13 0 -15 7 -11 43 4 23 9 78 13 122 9 121 28 187 65
239 19 25 37 45 41 46 11 0 14 -54 4 -78 -7 -17 -6 -26 4 -32 22 -14 31 -1 26
39 -3 28 0 38 10 38 8 0 14 -5 15 -11 3 -62 8 -88 19 -101 8 -9 8 -15 2 -15
-6 0 -14 5 -17 10 -8 13 -25 3 -25 -16 0 -8 7 -14 15 -14 17 0 57 -20 67 -35
8 -12 -11 -37 -23 -29 -10 6 -1 -25 13 -42 5 -7 3 -14 -7 -18 -9 -3 -13 -11
-10 -16 5 -8 11 -7 21 1 12 9 14 6 14 -20 0 -21 5 -31 15 -31 8 0 15 -4 15
-10 0 -5 -5 -10 -11 -10 -7 0 -9 -9 -5 -24 7 -27 -17 -56 -30 -35 -4 8 -3 9 4
5 7 -4 12 -2 12 3 0 6 -3 11 -7 11 -19 -1 -32 -18 -38 -53 -4 -20 -11 -40 -16
-42 -4 -3 -1 -14 8 -25 9 -10 20 -17 25 -14 5 3 16 0 24 -7 8 -6 17 -9 20 -7
9 9 -25 80 -35 74 -5 -4 -12 -2 -16 4 -3 5 -1 10 5 10 6 0 8 5 5 10 -7 11 8
14 19 3 3 -4 17 -8 29 -10 12 -2 24 -8 26 -14 4 -14 41 20 41 39 0 12 5 11 20
-6 12 -12 17 -28 13 -37 -4 -13 -8 -14 -14 -4 -4 8 -11 10 -15 6 -4 -4 -2 -13
4 -19 17 -17 15 -31 -3 -24 -19 7 -19 1 1 -18 30 -30 53 -14 31 21 -4 7 -3 20
4 30 9 15 7 26 -10 56 -12 21 -21 49 -21 63 0 14 -5 34 -11 45 -8 16 -7 28 5
53 8 18 13 42 9 54 -4 16 -1 22 11 22 18 0 21 15 5 26 -8 4 -7 9 2 15 12 8 12
11 -1 18 -8 5 -18 7 -22 5 -4 -3 -9 1 -10 8 0 7 -2 18 -3 23 -2 6 -3 24 -4 42
-1 24 -5 31 -16 27 -8 -3 -14 -9 -13 -12 3 -25 -4 -52 -12 -52 -7 0 -9 16 -7
40 3 26 -1 44 -9 51 -8 6 -14 26 -14 44 0 18 -7 38 -15 45 -8 7 -15 23 -15 35
0 13 7 25 15 29 8 3 15 11 15 17 0 8 -7 6 -18 -4 -20 -19 -52 -23 -52 -7 0 6
5 10 10 10 6 0 10 9 10 21 0 29 -17 15 -25 -21 -4 -17 -10 -30 -14 -30 -6 0
17 163 33 224 7 28 23 34 32 12 4 -11 12 -13 31 -5 13 5 42 9 64 9 35 0 48 7
95 51 34 33 57 65 64 88 5 20 10 111 10 203 0 165 0 167 -26 197 -14 17 -32
31 -39 31 -8 0 -23 12 -35 27 -21 27 -21 34 -16 233 2 113 2 193 0 178 -3 -16
-10 -28 -15 -28 -18 0 -99 83 -99 101 0 11 -5 19 -11 19 -6 0 -9 7 -6 14 5 13
-18 76 -28 76 -6 0 8 -40 16 -46 11 -7 12 -24 0 -24 -15 0 -101 190 -139 308
-6 17 -8 32 -4 32 15 0 62 -56 62 -74 0 -16 2 -18 9 -7 12 18 31 5 31 -22 1
-53 6 -75 15 -74 6 1 9 -3 8 -10 -2 -7 4 -10 12 -6 14 5 14 7 1 17 -8 6 -18
24 -22 40 -6 25 -5 28 11 23 13 -6 16 -3 11 8 -3 10 -2 13 5 10 6 -4 15 -19
21 -33 7 -17 12 -22 15 -14 15 40 -188 263 -307 338 -71 45 -207 97 -260 100
-25 2 -79 8 -120 13 -86 12 -129 12 -185 1z m215 -110 c0 -19 -71 -89 -93 -92
-14 -2 -21 -10 -21 -21 1 -9 -3 -17 -10 -17 -11 0 -15 -5 -51 -76 -24 -46 -34
-55 -57 -48 -9 2 -19 0 -23 -6 -8 -12 -43 -4 -62 16 -8 8 -9 15 -3 19 5 3 10
1 10 -5 0 -6 5 -8 10 -5 17 10 11 25 -9 25 -10 0 -27 -12 -37 -27 -9 -15 -19
-22 -21 -16 -6 18 44 109 81 146 36 37 129 94 174 107 39 12 112 12 112 0z
m432 -862 c43 -37 94 -208 61 -208 -25 0 -83 29 -84 42 -3 63 -19 155 -34 192
-7 16 -5 17 11 7 10 -6 31 -21 46 -33z m-777 -134 c-24 -17 -10 -34 31 -38 18
-2 33 -12 40 -24 12 -24 26 -19 17 5 -4 11 0 14 13 11 16 -3 19 -12 19 -57 0
-29 -3 -55 -7 -58 -5 -2 -8 1 -8 8 0 8 -4 8 -15 -1 -13 -11 -13 -15 -3 -23 10
-6 9 -7 -4 -4 -9 3 -22 -1 -29 -9 -7 -9 -16 -11 -21 -6 -6 6 1 24 16 47 27 39
36 69 14 47 -13 -13 -42 -17 -34 -4 3 5 -15 14 -40 20 -24 7 -44 16 -44 22 0
5 -5 10 -11 10 -8 0 -8 -4 1 -15 16 -19 3 -40 -16 -24 -11 9 -14 8 -14 -8 0
-11 -9 -28 -20 -38 -11 -10 -20 -26 -20 -35 0 -21 -36 -55 -44 -42 -3 6 1 13
9 16 14 5 14 9 -2 32 l-17 27 28 -7 c21 -5 27 -4 23 6 -2 7 -10 12 -16 11 -6
-2 -11 2 -11 8 0 7 10 9 26 5 23 -6 26 -4 21 13 -3 12 -1 21 3 21 5 0 16 18
26 40 19 44 34 52 34 19 0 -12 4 -17 11 -14 6 4 8 13 5 20 -2 7 -2 16 2 20 4
4 8 11 8 16 1 5 2 11 3 14 0 3 11 0 23 -6 21 -11 21 -12 3 -25z m600 -224 c4
-6 14 -9 23 -8 13 2 18 -6 20 -30 2 -18 10 -36 17 -38 8 -3 11 -12 8 -20 -3
-9 2 -14 15 -14 11 0 22 5 24 11 4 13 48 -23 48 -40 0 -15 17 -14 24 2 9 18
-5 -34 -17 -63 -5 -14 -11 -20 -14 -13 -2 7 -10 10 -18 7 -8 -3 -12 -11 -9
-17 3 -8 -7 -12 -28 -12 -42 0 -46 -28 -5 -33 15 -2 27 -7 27 -12 0 -5 -7 -7
-15 -4 -8 4 -15 1 -15 -5 0 -6 6 -11 13 -11 7 0 5 -5 -5 -10 -20 -12 -48 -3
-49 16 -1 8 -2 20 -3 27 -1 6 -10 11 -20 10 -20 -1 -52 24 -42 34 3 3 12 0 21
-7 13 -11 19 -9 37 6 36 31 57 59 47 62 -5 2 -9 10 -9 18 0 8 -5 14 -11 14 -5
0 -7 -5 -3 -12 5 -7 2 -9 -9 -5 -8 3 -21 -1 -27 -9 -10 -11 -8 -14 10 -14 12
0 20 -5 18 -12 -3 -7 -25 -12 -55 -12 -47 -1 -52 1 -57 24 -2 14 0 29 5 35 13
13 11 45 -2 45 -6 0 -9 6 -7 12 3 7 11 13 19 13 24 0 22 20 -3 27 -13 3 -18 6
-11 7 6 1 15 10 18 21 7 21 30 27 40 10z m37 -416 c7 -9 22 -26 34 -37 22 -23
22 -47 -1 -47 -20 0 -39 -55 -44 -132 0 -10 -7 -18 -15 -18 -8 0 -17 -6 -19
-12 -3 -8 -6 -6 -6 4 -2 30 -60 88 -90 88 -32 0 -121 31 -121 42 0 9 36 5 46
-5 18 -18 138 28 129 50 -2 7 0 13 6 13 6 0 8 4 5 9 -6 10 38 61 53 61 6 0 16
-7 23 -16z"/>
</g>
</svg>
