<svg version="1.0" xmlns="http://www.w3.org/2000/svg"
 width="640.000000pt" height="480.000000pt" viewBox="0 0 640.000000 480.000000"
 preserveAspectRatio="xMidYMid meet">
<g transform="translate(0.000000,480.000000) scale(0.100000,-0.100000)"
fill="#000000" stroke="none">
<path d="M1 3790 c0 -636 4 -1010 10 -1010 6 0 15 5 22 10 7 6 29 22 51 36 50
32 63 22 48 -38 -6 -24 -11 -50 -10 -58 0 -8 -2 -26 -4 -40 -24 -123 -31 -194
-20 -198 7 -2 9 -15 5 -35 -4 -25 -3 -30 7 -20 7 6 19 9 28 6 10 -4 13 -2 8 5
-11 19 4 54 20 48 8 -3 14 -1 14 4 0 13 37 13 45 0 3 -6 3 -10 -2 -10 -4 0 -9
-21 -11 -47 -1 -26 -7 -50 -13 -54 -7 -4 -8 -15 -3 -30 4 -13 7 -28 6 -33 -2
-5 4 -6 13 -3 11 5 15 -1 16 -26 0 -18 3 -25 6 -17 3 8 12 19 19 23 8 4 14 18
14 29 0 12 3 19 6 16 3 -3 2 -34 -2 -69 -5 -35 -10 -56 -12 -46 -2 9 -12 17
-23 17 -19 0 -23 9 -19 43 3 32 -33 3 -37 -29 -2 -16 -5 -38 -7 -49 -3 -11 -5
-23 -5 -27 -1 -4 -7 -5 -15 -2 -9 3 -16 -5 -21 -23 -7 -29 -21 -43 -42 -43
-13 0 -13 26 0 48 14 21 29 14 22 -10 -5 -18 -4 -20 4 -8 16 22 13 50 -4 50
-8 0 -15 5 -15 11 0 6 7 9 15 5 13 -4 13 -2 5 14 -7 12 -7 21 0 25 16 10 12
25 -5 19 -8 -4 -15 -1 -15 5 0 6 -4 11 -9 11 -5 0 -7 -9 -4 -20 3 -13 0 -20
-8 -20 -11 0 -11 -2 1 -10 13 -9 13 -12 -3 -24 -21 -16 -23 -81 -3 -101 7 -8
16 -11 20 -8 17 18 3 -17 -16 -36 -23 -25 -25 -33 -37 -164 -4 -48 -11 -91
-15 -95 -5 -4 -6 4 -4 17 1 13 -3 26 -9 28 -10 4 -13 -12 -13 -59 0 -44 3 -59
10 -48 8 12 10 11 10 -7 0 -13 -4 -23 -10 -23 -5 0 -10 -13 -10 -29 0 -22 5
-30 18 -30 49 0 107 -25 97 -41 -3 -4 10 -14 28 -21 40 -16 43 -21 63 -89 9
-30 22 -58 28 -62 7 -5 0 -18 -21 -38 -21 -19 -30 -36 -26 -49 2 -10 0 -22 -6
-25 -7 -4 -11 1 -11 12 0 11 -7 36 -15 55 -8 20 -15 48 -15 61 0 26 -16 34
-108 52 l-32 6 0 -761 0 -761 116 1 c103 0 118 3 140 22 14 12 22 27 20 34 -3
8 5 15 22 19 30 7 62 32 62 47 0 6 -10 0 -21 -12 -15 -16 -24 -19 -29 -11 -5
7 -15 3 -31 -14 -25 -27 -45 -35 -34 -14 4 7 -2 4 -12 -7 -18 -19 -57 -45 -68
-45 -2 0 -2 7 1 15 4 8 12 15 19 15 7 0 18 7 25 15 15 18 -1 21 -32 4 -11 -6
-22 -8 -25 -5 -3 2 21 18 53 35 36 18 51 30 39 31 -30 0 34 37 90 51 27 7 57
24 77 45 18 19 37 34 42 34 6 0 1 -7 -10 -15 -18 -14 -17 -14 9 -5 16 5 39 10
53 10 13 0 24 5 24 10 0 6 -5 10 -11 10 -7 0 1 10 17 22 16 13 37 30 47 39 10
10 28 19 39 22 19 5 19 5 2 -14 -16 -17 -16 -19 -1 -19 10 0 17 4 17 8 0 4 15
13 33 21 18 7 27 15 19 18 -7 3 -18 1 -25 -4 -7 -4 -4 0 7 10 14 13 28 16 48
12 20 -5 39 0 64 14 41 25 55 27 48 7 -3 -8 -18 -18 -34 -21 -16 -3 -34 -13
-41 -21 -6 -8 -20 -12 -29 -9 -9 3 -23 -1 -30 -10 -7 -8 -18 -15 -24 -15 -20
0 -87 -36 -80 -42 3 -4 29 4 58 17 64 29 152 62 189 71 41 10 33 -10 -14 -31
-22 -10 -50 -32 -61 -48 l-22 -30 30 16 c47 26 153 60 130 42 -20 -15 -20 -15
1 -15 19 0 60 35 56 49 -1 3 1 8 4 11 4 3 3 -1 -1 -8 -6 -10 -1 -11 21 -6 25
7 27 6 14 -9 -18 -22 -10 -21 33 4 20 11 41 19 48 16 18 -6 46 10 59 34 10 19
9 20 -11 9 -13 -7 -35 -9 -51 -6 -15 3 -31 1 -34 -4 -3 -6 -11 -10 -18 -10 -6
0 0 7 13 17 34 22 189 185 189 198 0 6 -21 -12 -47 -40 -27 -27 -61 -61 -78
-75 -16 -13 34 40 111 118 77 78 136 142 131 142 -5 0 -3 7 4 15 6 8 15 13 18
12 7 -2 83 78 112 118 20 27 -62 -36 -129 -99 -44 -41 -51 -45 -37 -21 10 17
77 87 148 158 86 84 128 132 124 142 -3 8 -1 14 3 12 5 -1 8 2 8 6 -3 12 74
57 97 57 12 0 16 -5 12 -16 -3 -9 -6 -18 -6 -20 0 -3 -4 -3 -8 0 -5 3 -22 -9
-38 -27 l-29 -32 33 29 c17 17 32 25 32 19 0 -5 -9 -18 -21 -29 -18 -16 -18
-19 -4 -24 13 -4 -6 -27 -77 -95 -147 -142 -278 -278 -278 -288 0 -6 10 -2 22
9 l23 19 -19 -22 c-10 -13 -22 -20 -27 -18 -4 3 -43 -34 -86 -82 -43 -48 -95
-105 -116 -125 -33 -33 -35 -37 -15 -34 13 3 26 5 30 5 4 1 33 24 63 51 66 59
85 66 31 11 -34 -35 -41 -61 -17 -61 10 0 194 202 238 262 41 55 132 155 133
146 0 -4 -12 -20 -26 -35 -14 -15 -57 -68 -94 -118 -66 -88 -191 -221 -260
-278 -27 -23 -31 -30 -20 -37 13 -8 12 -13 -3 -39 -23 -39 -22 -51 7 -51 44 0
99 49 164 146 11 17 11 16 1 -4 -6 -13 -8 -26 -6 -29 3 -2 -1 -16 -9 -31 -8
-16 -10 -28 -4 -30 6 -2 7 -9 4 -14 -4 -7 -2 -8 4 -4 7 4 12 11 12 16 0 5 12
29 27 54 19 31 36 47 55 51 15 4 40 19 55 35 15 16 29 28 32 26 3 -1 22 15 41
38 34 38 28 41 -15 7 l-20 -16 20 24 c28 33 103 83 118 78 7 -2 -13 -27 -45
-57 -32 -29 -70 -69 -85 -89 -17 -24 -2 -13 44 31 39 38 74 68 79 68 17 0
-114 -129 -149 -146 -23 -11 -47 -34 -63 -61 -26 -44 -38 -56 -27 -26 6 16 3
15 -17 -2 -24 -21 -21 -11 12 37 19 28 22 38 11 38 -11 0 -62 -93 -73 -130 -5
-18 -5 -30 1 -30 18 0 8 -44 -17 -78 -15 -19 -27 -43 -28 -53 -1 -11 -5 -20
-11 -20 -20 -1 -14 19 21 67 28 39 21 33 -34 -26 -38 -41 -68 -78 -66 -82 3
-4 -1 -10 -8 -15 -7 -4 -19 -16 -27 -25 -12 -16 -11 -18 12 -18 18 0 29 9 40
32 9 18 14 35 12 38 -2 3 5 11 15 18 16 10 21 8 30 -9 9 -16 8 -26 -5 -45 -19
-29 -29 -31 -22 -4 7 26 3 25 -16 -3 -15 -23 -15 -24 18 -25 30 -1 38 6 86 68
50 66 73 86 50 42 -6 -11 -8 -22 -4 -25 8 -9 -17 -38 -27 -32 -5 3 -12 0 -16
-6 -4 -8 -3 -9 4 -5 22 13 12 -11 -10 -27 -17 -12 -19 -16 -7 -16 8 -1 26 10
40 25 21 23 25 24 36 9 6 -10 16 -14 22 -10 7 3 8 0 5 -9 -31 -81 113 136 196
294 12 23 12 24 -4 11 -16 -13 -16 -12 -4 13 7 16 14 23 16 16 3 -9 10 -7 21
7 9 12 27 24 41 27 14 3 19 3 13 0 -7 -3 -13 -11 -13 -18 0 -7 -11 -23 -25
-36 -21 -20 -150 -224 -194 -308 -12 -22 -11 -22 40 -19 51 4 53 5 73 48 12
24 26 50 33 59 20 26 48 57 39 43 -4 -7 -6 -19 -3 -26 6 -17 -8 -42 -24 -42
-6 0 -22 -18 -35 -41 l-24 -41 28 -1 c24 0 31 5 42 34 8 19 17 34 22 34 13 0
49 64 43 78 -3 8 0 10 7 6 8 -5 9 -2 5 10 -4 9 -3 15 2 12 11 -7 23 22 14 36
-4 7 -1 8 7 3 10 -6 12 -4 7 9 -4 10 -3 15 3 11 5 -3 23 20 39 52 17 32 30 55
31 50 0 -4 -26 -60 -59 -125 -53 -106 -66 -153 -39 -136 7 4 7 -2 3 -17 -7
-22 -7 -23 10 -9 17 14 17 14 6 -8 -6 -12 -9 -27 -6 -32 4 -6 110 -10 275 -10
229 0 269 2 274 15 3 8 11 15 17 15 8 0 8 -4 -1 -15 -11 -13 74 -15 704 -15
l716 0 1 32 c0 18 3 27 6 20 2 -6 9 -10 14 -6 5 3 9 -5 9 -18 0 -18 -2 -20
-10 -8 -8 13 -10 12 -10 -2 0 -17 15 -18 175 -18 96 0 175 2 175 5 0 16 -46
133 -68 172 -22 40 -27 44 -33 27 -7 -18 -8 -18 -8 2 -1 11 5 26 12 33 10 10
8 15 -8 27 -51 37 -74 66 -80 104 -4 22 -11 42 -16 46 -12 7 -12 71 1 79 6 4
10 -5 10 -19 0 -14 5 -26 11 -26 12 0 2 115 -13 143 -5 10 -11 60 -13 112 -2
51 -6 102 -10 114 -3 11 -3 26 1 33 10 17 32 -47 33 -97 1 -30 4 -36 11 -25
12 18 11 146 -1 180 -6 18 -7 6 -5 -40 3 -36 2 -56 -1 -45 -3 11 -11 27 -18
35 -10 11 -13 43 -12 112 2 86 5 99 25 121 13 14 19 26 13 28 -18 7 3 27 34
34 l30 6 -25 -22 c-14 -13 -18 -20 -9 -16 12 4 17 0 17 -16 0 -21 12 -74 33
-143 16 -54 8 -150 -12 -138 -5 3 -9 22 -10 42 -1 20 -4 48 -9 62 l-7 25 -8
-29 c-10 -38 8 -246 22 -254 6 -4 14 -24 18 -45 4 -20 14 -41 23 -46 13 -7 12
-10 -6 -15 -11 -4 -32 -4 -46 0 -23 5 -26 3 -27 -22 -1 -16 -3 -40 -5 -54 -12
-95 -9 -121 16 -140 16 -12 26 -15 29 -8 2 6 -5 18 -15 26 -17 13 -16 14 18 9
40 -6 61 7 28 18 -31 10 -24 24 8 16 17 -5 27 -14 26 -24 -1 -9 -2 -25 -3 -35
0 -10 -15 -26 -32 -36 -28 -17 -29 -20 -15 -34 8 -8 29 -15 46 -15 25 0 31 -4
27 -18 -3 -10 1 -20 8 -23 9 -3 13 3 12 19 -1 13 3 23 8 22 6 -1 11 -11 12
-22 0 -11 1 -26 2 -32 1 -7 4 -13 9 -13 9 0 13 105 5 150 -6 33 -6 34 -13 10
-6 -19 -8 -14 -9 25 -1 28 -8 105 -16 170 -15 124 -19 337 -5 280 6 -24 7 -21
4 14 -2 24 -4 57 -4 73 0 20 -4 27 -12 22 -7 -5 -9 -2 -5 9 3 8 1 32 -5 53 -5
21 -14 67 -18 103 -7 54 -8 48 -3 -33 3 -62 2 -96 -5 -92 -17 10 -36 152 -22
161 5 3 7 12 4 19 -3 8 4 15 18 18 34 6 48 -1 48 -23 0 -11 9 -51 20 -90 10
-39 22 -114 25 -167 3 -53 13 -144 20 -202 17 -118 43 -355 53 -475 7 -73 10
-83 41 -114 22 -23 31 -39 27 -52 -20 -63 -22 -59 28 -59 40 0 46 3 46 20 0
20 -44 70 -61 70 -4 0 -5 25 -2 55 4 36 2 55 -5 55 -6 0 -13 -6 -15 -12 -3 -7
-6 7 -6 32 -1 33 2 41 9 30 7 -10 9 5 9 50 -1 63 -16 140 -18 95 -1 -17 -3
-17 -11 -5 -12 19 -13 140 -1 140 6 0 12 -12 14 -27 2 -16 3 -10 1 12 -2 22
-9 69 -15 105 -5 36 -10 124 -9 195 1 104 -3 146 -20 210 -12 44 -23 91 -23
104 -1 15 -9 25 -21 27 -11 1 -29 13 -40 25 -12 13 -14 18 -6 12 22 -15 73
-26 65 -13 -11 17 14 11 53 -13 42 -27 87 -42 150 -51 24 -4 66 -18 93 -32 31
-15 58 -23 71 -19 11 4 55 -3 98 -16 66 -19 81 -20 95 -9 13 11 13 15 3 21 -7
5 -22 8 -33 8 l-20 0 20 -10 20 -9 -20 3 c-11 1 -20 8 -20 15 0 7 -7 17 -15
22 -25 15 -6 20 29 7 26 -10 33 -9 41 3 5 8 7 17 4 19 -3 3 -9 0 -13 -7 -4 -7
-15 -10 -24 -7 -11 5 -14 15 -10 40 3 19 1 35 -6 39 -6 4 -11 2 -11 -3 0 -14
-40 -14 -60 0 -12 8 -12 9 5 8 11 -2 29 0 41 4 16 6 20 13 16 39 l-5 32 37
-22 c21 -12 42 -22 49 -22 6 0 47 -18 90 -41 43 -22 81 -38 84 -35 3 3 -7 10
-22 16 -15 6 -25 13 -23 16 9 8 58 -18 58 -32 0 -14 38 -30 47 -20 4 3 -1 6
-11 6 -13 0 -15 6 -10 27 4 16 11 30 16 31 4 2 6 8 2 13 -3 5 2 9 10 9 8 0 21
10 27 22 12 22 11 23 -8 5 -11 -10 -37 -21 -57 -24 -22 -3 -36 -11 -36 -20 0
-10 -6 -13 -16 -9 -9 3 -23 6 -33 6 -9 0 -32 13 -51 29 -19 16 -48 40 -64 53
-26 22 -27 26 -15 46 12 20 12 24 -1 32 -24 16 -33 12 -28 -14 4 -22 3 -22
-20 -10 -14 7 -29 11 -34 8 -4 -3 -8 0 -8 6 0 7 7 10 15 6 14 -5 20 11 16 37
-1 4 3 17 9 28 6 11 8 24 4 31 -4 7 -11 3 -19 -11 -10 -20 -13 -21 -24 -7 -11
13 -11 17 3 22 9 3 16 17 16 30 0 12 7 27 17 32 22 13 10 42 -17 42 -12 0 -19
-4 -16 -9 3 -5 -2 -12 -11 -15 -9 -4 -20 -2 -23 4 -5 8 -9 6 -13 -5 -5 -11 -3
-14 6 -9 9 5 9 4 1 -5 -15 -16 -58 4 -51 22 2 7 0 23 -5 36 -7 20 -6 23 12 18
16 -4 20 0 20 19 0 13 -4 24 -10 24 -5 0 -7 -8 -4 -18 4 -12 0 -10 -15 7 -23
25 -27 41 -11 41 6 0 10 8 10 18 0 10 5 23 11 29 8 8 4 15 -12 27 l-23 15 30
26 c16 14 31 25 34 25 20 -1 33 -25 38 -65 l4 -48 -30 6 c-26 5 -30 3 -35 -19
-4 -21 -1 -25 13 -21 12 3 21 -5 30 -28 10 -24 17 -31 32 -27 11 3 17 11 14
21 -7 24 -19 227 -13 221 6 -6 14 -68 23 -174 5 -57 9 -73 15 -58 10 26 26 29
32 5 6 -25 13 283 9 450 -2 79 1 136 6 133 5 -3 12 -89 16 -191 4 -102 11
-195 16 -208 7 -18 9 -14 9 24 1 47 -16 333 -23 402 -2 20 0 37 4 37 4 0 11
-48 15 -107 4 -60 11 -155 16 -213 5 -58 14 -172 19 -255 10 -152 15 -193 25
-203 3 -3 5 10 5 28 0 67 17 2 19 -73 1 -25 26 -16 26 9 0 10 6 25 15 31 13
11 12 13 -7 19 -26 7 -21 24 8 24 10 0 19 5 19 10 0 6 -4 10 -10 10 -13 0 -13
63 1 77 7 7 10 83 9 219 0 114 1 206 3 203 3 -2 7 -87 11 -189 8 -241 14 -290
32 -283 14 5 18 -17 14 -78 0 -14 8 -36 19 -50 l20 -24 1 29 c0 21 4 27 15 22
8 -3 16 0 16 7 1 7 2 17 4 22 1 6 3 16 3 23 1 7 7 10 12 7 6 -4 11 29 11 92 2
85 4 73 15 -92 7 -104 13 -214 13 -244 1 -30 3 -52 6 -49 3 3 6 104 7 224 l1
219 11 -158 c9 -133 14 -160 29 -168 9 -6 17 -15 17 -21 0 -6 -9 -3 -21 8
l-20 18 7 -64 c7 -68 14 -91 14 -49 0 13 5 31 10 39 7 11 10 6 10 -20 0 -19 4
-41 9 -49 13 -21 23 18 16 69 -4 35 -2 41 10 36 12 -4 15 3 16 32 1 20 7 -6
14 -58 7 -52 13 -80 14 -62 2 49 -28 644 -34 667 -7 29 -18 301 -12 295 3 -3
12 -124 21 -270 41 -663 47 -735 57 -745 9 -7 10 -1 6 22 -4 18 -4 40 -1 48
10 24 34 -2 34 -36 0 -16 4 -29 9 -29 4 0 6 -11 3 -25 -3 -21 -1 -24 12 -19
10 4 15 13 12 20 -3 8 -1 14 4 14 5 0 10 11 12 24 3 23 4 24 23 9 14 -11 16
-17 8 -20 -20 -7 -15 -31 8 -44 21 -11 22 -10 16 20 -4 18 -2 31 3 31 6 0 10
-26 10 -57 0 -31 3 -54 6 -50 8 7 6 197 -2 292 -4 39 -4 68 -1 65 3 -3 11 -78
17 -165 14 -189 32 -266 25 -103 -3 65 -1 109 5 113 6 4 10 -17 11 -52 1 -32
5 -71 9 -88 6 -24 8 -18 10 35 l3 65 7 -76 c8 -83 14 -99 36 -99 8 0 14 -9 14
-20 0 -11 5 -20 11 -20 6 0 9 7 5 15 -3 8 -1 15 4 15 6 0 10 -4 10 -9 0 -5 11
-12 25 -15 21 -5 25 -13 26 -44 1 -37 1 -37 9 -8 5 16 6 34 3 40 -4 6 1 5 10
-3 9 -7 17 -21 17 -30 0 -13 2 -14 9 -2 5 8 8 103 6 210 -4 219 -1 217 15 -9
13 -186 19 -235 30 -223 4 4 4 55 -2 111 -5 57 -8 118 -6 135 2 18 8 -14 12
-71 7 -86 11 -100 21 -85 11 15 14 11 20 -32 4 -28 8 -54 11 -60 4 -13 -5 188
-12 235 -3 26 -2 31 5 20 8 -11 11 20 12 105 2 108 3 114 9 55 4 -36 8 -96 9
-133 0 -38 5 -66 10 -63 5 3 7 16 5 29 -4 20 -4 21 5 2 5 -11 11 -31 12 -45 1
-15 5 -7 8 20 6 40 8 33 15 -54 5 -61 12 -93 17 -85 6 10 9 8 9 -8 0 -13 4
-23 9 -23 5 0 9 -21 8 -47 0 -28 3 -46 9 -43 5 3 9 20 8 38 -1 39 13 43 18 5
2 -16 3 58 1 162 -2 147 0 177 7 135 6 -30 15 -77 20 -103 6 -27 10 -60 10
-73 0 -16 4 -23 11 -18 6 4 9 19 5 38 -4 21 -3 26 3 17 7 -11 11 -5 16 22 4
20 12 37 17 37 6 0 8 -10 4 -22 -3 -13 -6 -39 -7 -58 0 -29 -2 -31 -9 -15 -12
28 -3 -133 10 -170 9 -27 10 -26 5 15 -2 25 -7 54 -11 65 -5 12 -4 16 4 11 16
-10 24 11 12 34 -7 13 -7 20 0 20 5 0 10 16 10 37 0 20 3 33 7 29 4 -4 6 -58
4 -119 -2 -78 2 -134 14 -185 12 -54 14 -76 6 -86 -6 -7 -9 -20 -5 -29 3 -8 1
-18 -5 -22 -7 -4 -11 6 -11 25 0 21 -4 30 -12 27 -7 -2 -12 -10 -10 -16 1 -6
-2 -11 -8 -11 -5 0 -10 7 -10 15 0 8 -4 15 -9 15 -6 0 -8 -10 -6 -22 6 -27 -4
-62 -13 -53 -4 4 -7 10 -8 13 0 4 -6 20 -12 35 -7 16 -12 34 -12 40 0 8 -3 7
-9 -2 -7 -11 -9 -11 -13 0 -4 11 -10 11 -31 2 -26 -12 -27 -11 -28 15 -1 15 0
31 1 37 1 5 -2 6 -6 2 -4 -4 -7 -28 -5 -54 2 -38 0 -45 -13 -40 -9 4 -16 2
-16 -3 0 -6 -7 -10 -15 -10 -8 0 -17 14 -21 35 -6 35 -17 44 -29 25 -3 -5 -1
-10 4 -10 6 0 11 -7 11 -16 0 -31 -25 -7 -35 34 -8 33 -13 40 -23 30 -9 -9
-12 -9 -12 0 0 7 -7 12 -15 12 -8 0 -15 -5 -15 -11 0 -5 5 -7 10 -4 6 3 10 -1
10 -9 0 -14 -3 -14 -20 -4 -11 7 -20 16 -20 20 0 5 -5 8 -11 8 -6 0 -54 25
-107 55 -54 31 -128 65 -167 76 -38 11 -77 23 -85 27 -8 3 -28 7 -45 9 l-30 3
30 -20 c17 -11 35 -20 41 -20 6 0 51 -21 100 -46 49 -25 119 -56 156 -69 68
-24 141 -72 132 -87 -3 -4 -10 -8 -15 -8 -6 0 -8 4 -4 9 7 12 -27 31 -52 30
-12 0 -9 -5 12 -14 17 -8 26 -14 20 -15 -11 -1 35 -29 48 -30 5 0 6 4 2 10 -3
5 7 5 25 -2 17 -5 29 -13 25 -16 -7 -8 61 -45 142 -77 81 -33 203 -93 203
-101 0 -8 -32 4 -98 34 -32 14 -61 27 -67 28 -5 1 -94 43 -196 93 -104 51
-209 95 -238 101 -29 5 -57 12 -62 15 -5 4 -9 4 -9 1 0 -6 141 -86 245 -139
103 -51 134 -74 140 -102 7 -33 73 -200 94 -236 8 -14 6 -16 -10 -12 -10 3
-19 11 -19 17 0 7 -12 41 -26 77 -15 35 -37 91 -51 124 -13 33 -21 47 -18 31
4 -16 22 -68 41 -115 40 -98 50 -129 39 -119 -11 10 -95 226 -95 243 0 7 -57
45 -127 84 -157 87 -187 104 -193 112 -10 13 -162 81 -167 75 -4 -3 0 -6 7 -6
7 0 11 -3 7 -6 -3 -3 -18 2 -34 13 -36 24 -185 93 -202 93 -27 0 -3 -25 35
-37 31 -9 34 -12 14 -13 -23 -1 -24 -2 -7 -14 9 -7 17 -16 17 -19 0 -12 -34
-16 -47 -6 -15 13 -29 6 -19 -9 3 -6 29 -22 58 -37 29 -15 60 -33 68 -40 18
-16 71 -39 83 -36 5 1 5 -3 2 -9 -4 -6 -14 -9 -23 -5 -22 8 -18 5 58 -51 36
-26 67 -50 70 -53 3 -3 16 -12 30 -19 15 -7 27 -23 27 -35 6 -76 9 -80 106
-131 50 -27 98 -58 105 -68 7 -10 20 -18 28 -18 8 0 14 -4 14 -8 0 -4 15 -14
34 -20 36 -13 267 -180 282 -203 4 -8 -10 0 -31 17 -22 17 -84 61 -139 98 -90
62 -97 65 -75 34 13 -18 28 -36 34 -40 7 -5 6 -8 -1 -8 -6 0 -17 7 -25 16 -23
28 -137 105 -151 102 -7 -2 -12 3 -10 10 1 8 -2 11 -8 7 -6 -4 -17 -1 -23 7
-7 7 -11 11 -10 9 2 -2 -2 -10 -7 -16 -7 -9 -5 -17 7 -26 16 -13 17 -12 4 3
-21 27 0 21 37 -11 l32 -28 -32 5 c-18 2 -38 7 -44 11 -5 3 -2 -1 9 -9 10 -8
33 -27 51 -42 23 -19 36 -24 47 -17 12 7 12 9 -1 10 -8 1 -18 1 -21 1 -3 -1
-6 6 -6 14 0 7 2 14 4 14 2 0 34 -23 70 -50 72 -55 77 -67 8 -21 -49 33 -62
31 -37 -7 l17 -27 -35 26 c-55 41 -67 45 -36 11 17 -18 24 -32 18 -32 -20 0
-27 4 -25 15 2 12 -83 85 -99 85 -5 0 11 -19 36 -41 35 -32 44 -45 36 -54 -8
-10 -6 -15 7 -19 23 -8 123 -102 123 -116 0 -6 -10 -2 -22 10 -12 11 -25 20
-29 20 -3 0 -22 13 -40 30 -19 16 -41 30 -50 30 -9 0 -26 9 -39 20 -36 31 -47
24 -15 -10 17 -17 23 -30 15 -30 -9 0 -8 -6 5 -20 10 -11 23 -20 29 -20 6 0 2
7 -8 15 -11 8 -16 18 -12 22 3 4 28 -15 54 -42 26 -27 32 -36 15 -20 -18 15
-36 25 -40 22 -4 -4 9 -20 27 -36 28 -23 45 -28 90 -30 39 -1 51 2 40 9 -9 6
-10 10 -3 10 6 0 15 -4 18 -10 4 -6 116 -10 301 -10 l294 1 0 1583 c0 1390 -2
1585 -15 1596 -19 16 -19 31 0 24 13 -5 15 13 15 130 0 84 -4 136 -10 136 -5
0 -10 -17 -11 -37 -1 -34 -2 -35 -9 -13 -6 19 -9 12 -11 -35 l-2 -60 -7 70
c-3 39 -3 78 2 87 4 9 8 26 8 37 0 12 9 26 20 33 16 11 20 24 20 71 0 49 -3
58 -15 53 -8 -3 -15 -1 -15 4 0 20 -29 9 -33 -12 -2 -13 -5 2 -6 33 0 30 -7
61 -13 68 -11 11 -9 13 10 8 12 -3 20 -1 17 3 -3 5 -1 11 4 14 5 3 11 -3 14
-15 4 -13 0 -22 -10 -26 -14 -5 -13 -8 3 -20 10 -8 18 -17 16 -21 -2 -4 3 -8
11 -10 10 -2 14 8 15 35 1 24 -2 33 -7 25 -6 -10 -10 -8 -14 8 -4 15 -2 20 8
17 10 -5 13 88 14 504 l2 509 -3201 0 -3200 0 1 -1010z m4340 801 c2 -19 2
-24 19 -151 13 -103 21 -414 9 -365 -3 17 -7 77 -9 135 -2 136 -18 180 -19 53
-1 -51 -5 -93 -10 -93 -5 0 -11 -10 -13 -22 -8 -48 -28 85 -28 185 -1 56 -5
121 -9 144 -4 23 -5 46 -1 50 4 4 12 27 19 50 8 30 16 41 26 37 8 -4 16 -14
16 -23z m-1074 -103 c-3 -32 -2 -77 1 -100 l7 -43 6 50 c5 41 6 36 6 -30 0
-45 2 -85 5 -90 3 -6 9 -41 12 -80 3 -38 9 -87 12 -107 4 -24 2 -38 -5 -38 -7
0 -11 -29 -12 -77 -1 -43 -5 -109 -9 -148 -6 -46 -7 -18 -3 83 4 136 3 151
-11 146 -13 -5 -16 -22 -16 -88 0 -46 -3 -152 -7 -237 l-8 -154 -6 100 c-4 55
-7 136 -6 180 0 67 1 73 7 35 l7 -45 1 58 c1 37 -2 56 -8 52 -5 -3 -10 1 -10
9 0 9 5 16 10 16 6 0 10 14 10 30 0 32 -19 43 -22 13 0 -10 -4 2 -8 27 -5 31
-8 -6 -11 -115 l-3 -160 -6 150 c-4 132 -7 150 -22 153 -16 3 -18 -5 -20 -60
l-1 -63 -7 60 c-4 37 -8 49 -10 30 -1 -16 -2 -36 -1 -42 1 -7 -5 -13 -14 -13
-11 0 -15 12 -16 53 -2 46 -3 43 -10 -27 -10 -98 -21 -125 -14 -36 2 36 8 138
11 228 4 89 9 160 12 157 3 -3 9 -24 13 -48 5 -32 7 -17 9 63 2 58 2 115 1
128 -1 13 3 21 10 20 7 -2 16 8 20 22 7 24 7 24 8 3 1 -13 6 -23 11 -23 6 0 9
-28 8 -67 l-1 -68 -6 60 -6 60 -7 -40 c-11 -58 -10 -105 3 -105 7 0 9 -10 5
-24 -3 -14 -2 -27 3 -30 11 -7 23 22 14 37 -4 7 0 8 11 4 16 -6 17 0 15 62 -1
37 1 73 5 79 4 7 4 17 1 22 -3 6 -1 10 4 10 6 0 11 17 11 38 l0 37 16 -30 c11
-22 15 -46 11 -87z m794 41 c2 -78 7 -88 29 -59 17 22 17 21 23 -41 4 -41 2
-65 -5 -68 -7 -2 -7 -6 1 -10 7 -4 12 -71 15 -181 4 -157 4 -164 -4 -70 -12
136 -17 158 -19 90 -1 -42 -4 -51 -12 -40 -8 11 -9 -65 -5 -265 3 -154 6 -350
7 -435 1 -131 3 -150 12 -120 11 33 12 29 18 -60 3 -52 6 -85 7 -72 1 14 6 20
13 16 7 -4 10 3 9 17 -1 13 -1 35 0 49 4 49 19 -41 20 -125 3 -182 2 -195 -20
-195 -15 0 -20 7 -20 25 0 14 5 24 12 22 19 -3 21 35 3 69 -8 16 -15 25 -15
19 0 -5 -5 -3 -10 5 -7 11 -10 3 -11 -30 l-2 -45 -7 45 c-4 25 -8 38 -10 30
-2 -8 -4 -19 -5 -25 -2 -5 -4 -28 -6 -50 -2 -33 -4 -29 -9 25 l-7 65 1 -82 c0
-44 -2 -79 -6 -76 -5 2 -8 21 -8 41 0 20 -7 60 -14 87 l-14 50 -1 -53 c-1 -33
-5 -51 -11 -47 -6 4 -11 -19 -12 -62 l-1 -68 -7 75 c-10 97 -10 332 -1 300 6
-22 8 -23 14 -7 4 10 7 39 7 64 0 42 13 55 15 15 1 -9 2 -30 3 -47 1 -18 6
-25 11 -20 6 6 6 36 2 73 -6 52 -5 65 8 72 14 9 14 11 1 19 -12 8 -12 13 -2
23 15 15 16 74 0 84 -8 5 -9 -2 -5 -24 7 -36 -8 -53 -17 -20 -7 30 3 70 17 61
6 -4 8 2 5 15 -4 12 -1 20 5 19 7 -1 11 50 12 153 1 94 0 127 -4 83 -3 -39 -9
-74 -13 -78 -10 -11 -17 40 -29 235 -6 102 -12 186 -13 188 -7 6 -14 -210 -12
-370 0 -98 -2 -178 -6 -178 -5 0 -8 45 -8 100 0 55 -4 100 -9 100 -4 0 -7 51
-5 113 2 61 1 106 -2 99 -3 -6 -10 -10 -15 -6 -5 3 -9 -3 -10 -13 -1 -38 -18
21 -18 67 -1 33 2 41 9 30 9 -13 10 -13 11 0 1 8 3 20 4 25 2 6 4 21 5 35 2
24 3 24 10 -5 l8 -30 1 31 c1 20 -5 34 -14 38 -8 3 -15 13 -15 21 0 9 -4 14
-10 10 -5 -3 -7 -13 -4 -23 5 -14 4 -15 -5 -2 -6 8 -10 40 -9 70 1 36 3 43 5
22 7 -57 23 -24 23 48 0 58 3 68 15 64 11 -5 13 -2 9 10 -3 9 -1 16 5 16 6 0
11 7 11 15 0 24 -30 17 -31 -7 -1 -17 -2 -19 -6 -5 -2 9 -9 17 -14 17 -5 0 -9
10 -8 23 0 21 1 21 9 2 7 -16 9 -12 11 20 l2 40 7 -35 7 -35 2 33 c1 46 24 36
33 -14 4 -21 8 -68 9 -104 1 -36 5 -78 10 -95 5 -20 6 -5 3 45 -3 52 -1 70 6
60 8 -13 10 -12 10 3 0 10 5 15 10 12 6 -4 10 25 10 81 0 100 9 111 11 13z
m978 -89 c5 -36 15 -66 21 -68 5 -2 11 -22 12 -45 l1 -42 7 45 c7 45 7 45 10
-20 3 -58 4 -61 9 -25 3 22 11 41 17 42 8 2 12 -27 13 -88 2 -93 -8 -134 -20
-89 -6 23 -7 22 -8 -8 -1 -17 3 -31 8 -30 5 2 9 -1 9 -7 0 -5 -4 -9 -9 -7 -12
3 -12 -175 0 -183 5 -3 12 9 14 27 2 18 4 -21 4 -87 0 -66 -2 -110 -4 -97 -4
22 -5 23 -18 5 -9 -11 -15 -47 -16 -93 -1 -41 -4 -60 -6 -42 -2 17 -8 32 -14
32 -5 0 -9 56 -9 130 0 94 -4 139 -14 159 -9 17 -11 32 -5 42 5 8 9 22 9 32 0
14 -5 16 -25 11 -24 -6 -25 -4 -25 34 0 23 5 44 10 47 6 3 10 25 9 48 0 55
-23 160 -32 151 -11 -12 -8 37 7 91 12 44 14 47 20 25 3 -14 7 -50 9 -80 2
-30 2 -12 1 40 -2 52 -6 120 -8 150 -4 53 -4 54 4 10 4 -25 13 -74 19 -110z
m-3389 -56 c-6 -88 -11 -192 -12 -232 0 -40 -5 -75 -10 -78 -4 -3 -8 -18 -8
-34 0 -23 3 -27 20 -23 24 6 26 21 5 29 -8 4 -15 10 -15 16 0 5 4 7 9 4 5 -3
14 54 20 127 15 161 18 177 21 110 3 -68 4 -70 13 -79 4 -4 7 7 7 24 0 49 20
49 21 0 1 -27 3 -34 6 -18 9 47 20 42 21 -9 1 -34 -3 -53 -12 -58 -10 -5 -16
-34 -20 -86 -3 -43 -7 -81 -9 -85 -3 -4 -1 -27 3 -52 7 -45 8 -45 9 -8 0 20 5
39 11 43 5 3 7 -15 3 -47 -3 -29 -10 -54 -15 -56 -4 -2 -8 -8 -8 -13 0 -6 5
-7 10 -4 6 4 11 -8 11 -27 2 -48 20 87 19 145 -1 26 4 47 10 47 12 0 13 -251
1 -320 l-8 -45 -3 40 c-1 22 -6 54 -10 70 l-7 30 -8 -40 c-11 -55 -18 -64 -26
-35 -7 26 -8 17 -15 -108 -4 -82 -14 -55 -14 38 0 98 -8 121 -11 32 -1 -29 -5
-52 -9 -52 -6 0 -4 82 6 240 6 80 -4 109 -12 39 -6 -48 -14 -48 -14 0 0 60
-17 42 -19 -20 0 -29 -3 -54 -6 -57 -9 -9 -6 177 5 288 5 58 14 166 20 240 6
74 14 148 17 163 12 61 14 11 3 -139z m2063 76 c13 -132 16 -371 6 -364 -5 3
-10 22 -10 42 -1 23 -3 29 -6 15 -2 -13 -9 -23 -14 -23 -5 0 -9 86 -8 210 0
155 3 209 12 207 7 -1 15 -35 20 -87z m-2320 -538 c-3 -11 15 -11 32 0 7 4 10
-16 9 -58 -1 -51 2 -64 12 -60 8 3 14 -1 14 -9 0 -8 -7 -15 -15 -15 -8 0 -15
-5 -15 -10 0 -6 8 -10 17 -8 13 2 17 -5 18 -35 2 -42 15 -64 15 -24 0 19 5 25
19 24 15 -1 18 -7 14 -32 -2 -16 -11 -79 -18 -140 l-13 -110 0 102 c1 57 -1
106 -4 109 -9 8 -29 -93 -22 -111 4 -8 2 -21 -4 -28 -5 -6 -15 -50 -21 -97 -6
-47 -13 -94 -16 -105 -2 -11 -4 -31 -5 -45 l-1 -25 -11 25 c-9 21 -12 22 -15
7 -5 -18 -5 -18 -19 0 -7 10 -14 26 -14 36 0 9 -6 16 -12 15 -8 -2 -12 7 -10
23 2 17 -3 29 -13 33 -9 3 -13 11 -10 16 4 6 1 9 -6 8 -9 -2 -12 7 -11 28 2
19 -3 38 -13 48 -14 13 -15 19 -5 32 7 8 10 17 7 21 -4 3 -2 12 4 20 8 8 8 13
1 13 -6 0 -13 13 -17 29 -8 39 18 81 51 81 31 0 41 24 24 55 -10 19 -10 27 -1
39 7 8 10 20 6 26 -3 5 1 13 9 16 9 3 16 13 16 21 0 9 6 13 15 9 8 -3 15 -1
15 3 0 5 -5 11 -11 13 -6 2 -12 21 -14 41 -1 24 2 36 9 34 6 -3 10 -9 9 -15z
m-413 -62 c16 -16 34 -30 40 -30 5 0 10 -5 10 -11 0 -5 5 -7 11 -3 7 4 9 -2 7
-17 -1 -13 -7 -23 -12 -21 -4 2 -15 -9 -22 -24 -15 -29 -18 -48 -6 -40 4 2 8
-4 8 -14 0 -10 -6 -16 -12 -13 -20 7 -27 -17 -10 -36 20 -22 21 -55 1 -71 -9
-7 -15 -29 -15 -51 0 -22 -4 -39 -10 -39 -5 0 -10 4 -10 9 0 5 -8 8 -17 7 -12
-1 -18 6 -18 19 0 11 -3 25 -6 30 -4 6 -3 20 2 32 5 15 14 20 28 16 17 -4 21
-1 21 21 0 32 -45 60 -60 36 -5 -8 -6 -19 -3 -24 4 -6 8 -5 11 2 5 17 22 15
22 -2 0 -7 -9 -16 -20 -19 -11 -3 -20 -9 -19 -14 4 -23 -3 -25 -18 -3 -11 16
-13 25 -5 28 8 2 8 9 -1 23 -10 17 -9 22 7 34 10 7 15 18 12 24 -4 5 -2 12 4
16 5 3 10 2 10 -4 0 -6 7 -8 15 -5 21 8 19 -13 -2 -25 -10 -6 -13 -11 -7 -11
19 0 32 23 36 60 3 34 24 48 39 27 3 -5 9 -2 12 7 4 11 -3 21 -23 31 -17 9
-30 19 -30 24 0 4 -11 6 -25 3 -20 -3 -25 0 -25 17 0 12 6 21 15 21 8 0 15 5
15 10 0 18 20 10 50 -20z m3565 -875 c4 -44 9 -87 12 -95 2 -8 6 -49 8 -90 1
-41 10 -210 19 -375 21 -402 21 -405 -3 -405 -17 0 -20 -8 -23 -49 -3 -48 -4
-49 -23 -35 -13 10 -16 17 -9 22 24 15 2 71 -28 72 -5 0 -9 -35 -9 -77 -1 -43
-3 -69 -6 -58 -8 33 -23 42 -24 15 l-1 -25 -8 25 c-6 18 -8 6 -8 -42 0 -37 4
-65 9 -62 5 3 9 0 9 -6 0 -6 -10 -10 -22 -8 -16 2 -22 9 -20 21 2 9 -2 17 -7
17 -5 0 -12 15 -14 33 -3 22 -4 15 -5 -20 -3 -77 -22 -65 -23 15 -1 37 -5 130
-9 207 -7 120 -7 109 -4 -76 2 -119 1 -219 -4 -223 -8 -9 -46 320 -51 443 -1
11 -5 10 -16 -5 -14 -18 -14 -18 -15 6 -1 14 -8 41 -15 60 -13 33 -14 29 -14
-70 0 -58 8 -195 19 -305 23 -228 23 -232 34 -242 4 -4 5 39 2 97 -12 218 -15
345 -7 315 5 -16 9 -49 10 -73 0 -24 5 -51 10 -60 5 -9 12 -71 16 -136 4 -82
11 -124 21 -133 19 -19 18 -37 -5 -57 -10 -9 -31 -45 -46 -78 -26 -58 -27 -68
-22 -164 l6 -102 -27 14 c-15 8 -36 14 -47 14 -19 -1 -19 -1 -2 -14 25 -19 21
-25 -10 -17 l-28 7 0 115 c0 111 -1 117 -28 152 -38 50 -94 77 -159 77 -41 1
-60 6 -82 24 -16 14 -35 22 -43 19 -8 -3 -13 0 -11 8 2 8 -7 15 -22 17 -24 2
-24 2 -6 -13 23 -17 18 -19 -19 -5 -20 8 -24 14 -19 34 3 13 2 26 -3 29 -4 3
-6 29 -4 59 3 42 6 48 12 28 l7 -25 1 28 c1 15 -3 27 -8 27 -5 0 -11 12 -14
27 -5 26 -4 27 10 8 8 -11 19 -32 25 -47 11 -30 32 -39 24 -10 -15 53 -18 84
-7 78 8 -5 10 36 7 149 -3 95 -1 153 5 150 5 -4 9 -28 9 -55 0 -81 20 -70 22
12 l2 73 3 -65 c4 -80 11 -113 23 -105 4 3 11 -3 13 -12 4 -17 11 136 8 165
-2 14 1 14 23 6 10 -4 16 -17 15 -38 -1 -30 -1 -30 -9 -6 -4 14 -9 23 -10 20
-6 -18 -5 -358 2 -354 4 3 9 22 9 42 1 25 5 13 13 -38 l11 -75 3 88 c3 82 4
87 19 71 14 -13 17 -32 14 -89 -2 -59 0 -72 13 -72 12 0 16 11 16 39 0 26 -4
37 -11 32 -7 -4 -6 3 2 17 9 17 13 77 12 214 l0 190 8 -150 c5 -83 15 -171 23
-195 9 -28 14 -37 15 -23 1 12 6 25 11 28 6 4 10 -17 10 -55 0 -44 3 -59 11
-54 12 7 10 97 -6 374 -3 56 -1 75 4 55 5 -16 9 -51 10 -78 0 -26 5 -55 11
-65 5 -9 12 -84 16 -167 5 -92 10 -136 14 -115 l6 35 12 -45 c10 -41 11 -36 6
44 -4 49 -11 100 -16 112 -7 16 -7 32 1 55 6 17 11 77 10 133 -1 66 -4 92 -9
76 -7 -22 -17 277 -11 320 1 8 4 61 7 117 3 75 1 105 -9 115 -19 19 -19 69 0
90 15 17 15 18 -5 18 -12 0 -22 5 -22 10 0 6 6 9 13 8 8 -2 11 7 9 25 -2 22 1
27 19 27 l21 0 -6 -237 c-7 -260 12 -732 31 -755 6 -7 13 -22 16 -33 10 -40 6
75 -9 290 -9 121 -16 236 -16 255 0 67 6 120 15 120 4 0 6 51 4 113 -7 192 -9
568 -3 575 3 3 7 -69 8 -159 0 -104 4 -148 8 -119 6 39 7 35 9 -35 2 -102 20
-82 22 25 2 64 3 69 9 35 7 -37 7 -38 10 -10 2 29 2 29 9 -7 4 -20 14 -45 22
-54 9 -12 10 -15 2 -10 -8 4 -13 1 -13 -8 0 -9 7 -16 15 -16 12 0 15 17 15 97
0 53 2 94 4 92 2 -2 6 -58 10 -124 3 -66 6 -124 6 -130 1 -5 6 1 11 15 6 14 8
75 5 140 -2 63 -2 99 1 80 2 -19 9 -38 15 -41 5 -3 12 -62 15 -130 3 -86 9
-128 19 -138 14 -16 17 -12 27 34 3 11 6 -5 7 -35 5 -114 18 -118 20 -5 3 97
4 103 10 55 5 -32 6 17 4 115 -2 116 0 156 6 125 5 -25 9 -92 9 -149 1 -57 4
-102 7 -98 7 7 7 159 0 367 l-5 145 14 -135 c7 -74 16 -171 20 -215z m-1384
-220 c3 28 6 -60 6 -195 0 -135 -3 -227 -7 -205 -5 30 -7 18 -8 -50 0 -52 3
-80 7 -65 7 24 8 23 14 -10 12 -66 6 -214 -9 -231 -9 -10 -18 -61 -24 -150 -6
-77 -17 -148 -26 -167 -8 -18 -12 -41 -9 -52 6 -18 2 -20 -43 -20 -45 0 -50
-3 -56 -25 -4 -14 -2 -34 4 -45 13 -24 13 -30 0 -30 -5 0 -10 10 -10 21 0 19
-2 20 -16 8 -15 -12 -16 -10 -10 19 6 24 4 33 -8 38 -20 8 -20 23 -1 38 13 10
13 18 -2 66 -18 63 -59 130 -79 130 -8 0 -14 5 -14 10 0 6 7 10 15 10 8 0 15
7 15 16 0 8 -5 12 -10 9 -6 -3 -13 2 -16 12 -20 61 -39 76 -81 62 -25 -9 -33
5 -33 58 0 45 23 40 31 -8 5 -26 7 -18 10 36 1 39 4 84 4 100 1 17 5 100 9
185 11 240 21 204 17 -59 -2 -93 1 -126 11 -133 11 -6 10 -10 -1 -17 -12 -8
-12 -12 2 -26 19 -18 19 -18 19 43 1 23 4 42 8 42 7 0 12 54 12 118 0 12 4 22
9 22 5 0 7 -41 5 -90 -2 -50 1 -93 5 -96 5 -3 9 10 10 28 1 64 9 194 15 246 6
56 20 69 27 25 2 -16 5 5 6 46 1 64 3 72 16 61 13 -11 15 -4 15 50 0 35 2 61
5 59 5 -6 6 -278 1 -329 -2 -19 2 -43 8 -53 8 -13 8 -20 -1 -25 -8 -5 -9 -19
-4 -44 5 -20 6 -39 3 -42 -3 -4 -1 -6 5 -6 16 0 25 102 23 252 -3 176 -1 263
6 255 3 -3 6 -20 7 -39 1 -18 6 -31 12 -28 5 3 13 -8 16 -25 4 -19 7 -2 8 48
1 50 -3 76 -9 72 -5 -3 -10 1 -10 9 0 9 4 16 9 16 5 0 12 12 14 28 7 46 12
-106 7 -243 -1 -44 -4 -55 -10 -40 -5 13 -9 -32 -9 -118 -1 -88 3 -136 9 -132
5 3 9 16 8 28 0 12 3 55 7 95 6 58 5 72 -6 72 -10 0 -11 2 -2 8 6 4 14 34 16
67 2 33 4 -33 4 -146 0 -131 4 -213 11 -225 10 -16 11 -14 12 16 1 201 9 849
11 895 2 33 6 -21 9 -120 3 -109 7 -160 11 -130z m-2906 132 c-5 -43 -4 -58 4
-53 6 4 11 16 11 27 0 10 6 19 13 20 10 0 10 2 0 6 -7 2 -13 12 -13 20 0 9 6
13 14 10 8 -3 17 -1 19 6 3 7 3 -21 0 -60 -4 -48 -2 -73 5 -73 6 0 18 -3 28
-7 14 -5 15 -3 7 11 -7 13 -6 30 3 57 8 21 11 46 8 56 -5 16 -3 16 13 -2 20
-22 43 -30 43 -16 0 5 7 11 15 15 10 4 14 -1 12 -17 -1 -13 3 -21 11 -19 7 1
12 -9 12 -28 0 -27 -3 -30 -29 -30 -17 0 -33 -5 -36 -10 -4 -6 -10 -8 -15 -5
-4 3 -11 -7 -15 -22 -5 -20 -2 -31 11 -40 16 -12 16 -14 1 -31 -21 -23 -24
-50 -4 -34 17 14 47 -18 48 -51 1 -21 1 -21 10 3 5 15 6 -12 2 -70 -5 -86 -4
-93 11 -81 11 10 16 10 16 2 0 -7 5 -9 10 -6 18 11 10 -11 -10 -30 -15 -14
-20 -15 -21 -4 -1 26 -18 -26 -18 -58 -1 -25 3 -31 14 -27 11 4 15 -1 16 -17
l1 -24 8 25 c8 25 8 25 11 -5 l2 -30 4 28 c5 30 23 37 24 10 0 -11 3 -13 6 -5
2 6 12 12 20 12 10 0 13 -6 9 -16 -3 -9 -6 -21 -6 -29 0 -7 -9 -15 -20 -18
-15 -4 -20 -14 -20 -36 0 -17 -5 -31 -11 -31 -6 0 -9 6 -6 14 3 8 -3 22 -14
32 -18 16 -19 16 -19 -5 0 -12 4 -19 10 -16 6 4 10 -10 10 -35 0 -23 4 -39 8
-36 4 2 14 -9 21 -25 19 -43 71 -34 71 13 0 10 7 18 18 18 16 1 16 1 0 11 -10
5 -18 17 -18 24 0 18 16 20 23 3 3 -7 6 5 6 27 2 60 12 115 23 115 5 0 7 -4 4
-8 -2 -4 -1 -14 5 -22 6 -11 9 -4 9 22 0 35 1 36 33 32 32 -4 32 -3 34 39 2
57 7 82 18 84 16 3 24 36 25 108 1 39 8 117 15 175 11 80 13 88 10 35 -2 -38
-7 -123 -11 -187 -5 -86 -4 -118 5 -118 6 0 11 -7 11 -15 0 -8 5 -15 11 -15 6
0 1 -9 -12 -20 -22 -19 -23 -21 -4 -19 53 4 71 -1 72 -21 1 -11 -2 -18 -8 -15
-5 4 -9 2 -9 -3 0 -5 22 -9 49 -9 43 1 51 4 56 24 3 13 12 23 20 23 17 0 20
-16 5 -25 -6 -3 -10 -18 -9 -33 0 -16 3 -21 6 -12 6 15 23 30 35 30 4 0 10
-10 14 -22 4 -13 12 -27 18 -31 8 -6 8 -10 -1 -13 -9 -4 -9 -13 -2 -31 5 -13
7 -29 3 -34 -3 -5 0 -9 5 -9 6 0 11 6 11 14 0 7 8 16 18 20 9 3 22 8 28 11 13
7 15 -26 1 -42 -5 -7 -18 -13 -28 -13 -10 0 -21 -5 -25 -12 -4 -7 -3 -8 4 -4
8 5 12 -1 12 -16 0 -16 -3 -19 -8 -10 -5 7 -16 10 -25 6 -13 -5 -16 -2 -11 12
3 12 -4 8 -20 -11 -14 -16 -26 -34 -26 -40 0 -5 4 -4 9 3 6 11 10 10 15 -5 7
-17 8 -17 21 0 9 12 15 14 20 7 11 -17 -3 -40 -20 -34 -22 9 -18 -9 6 -24 16
-10 19 -19 14 -44 -5 -23 -4 -29 5 -23 8 5 10 20 7 41 -3 19 -1 36 4 39 11 7
11 -151 0 -215 -5 -26 -9 -35 -10 -20 -1 20 -7 26 -27 28 -18 1 -27 -4 -31
-18 -4 -16 -7 -17 -19 -5 -8 7 -14 26 -15 42 0 25 -1 26 -9 8 -5 -11 -9 -15
-9 -9 -1 16 -29 13 -36 -4 -4 -12 -8 -12 -20 -2 -21 17 -32 4 -17 -20 10 -17
10 -20 -7 -20 -30 0 -32 27 -6 66 14 20 25 31 25 25 0 -7 5 -9 11 -6 19 12 5
39 -21 40 -53 0 -98 59 -57 75 19 8 10 15 -15 11 -5 0 -8 4 -8 9 0 6 5 10 10
10 6 0 5 8 -2 19 -13 21 -28 23 -40 6 -4 -5 -8 14 -8 43 0 33 -4 51 -10 47 -5
-3 -10 1 -10 9 0 9 -7 16 -15 16 -7 0 -19 8 -24 18 -14 23 -14 6 1 -34 9 -27
9 -35 -4 -48 -14 -13 -18 -14 -28 -1 -7 8 -16 12 -21 9 -13 -8 0 -25 14 -18 7
3 3 -2 -7 -10 -17 -14 -18 -16 -3 -16 9 0 17 -7 17 -15 0 -9 -6 -12 -15 -9
-16 6 -21 -16 -7 -30 4 -4 7 -13 7 -19 0 -7 8 -11 18 -9 13 2 17 -5 17 -33 0
-34 -12 -46 -25 -25 -3 6 -18 7 -32 4 -21 -6 -25 -4 -20 9 4 11 -2 17 -25 22
-23 5 -27 9 -17 16 11 7 11 9 1 9 -7 0 -20 -7 -28 -15 -14 -13 -14 -16 0 -21
16 -6 23 -64 8 -64 -17 0 -22 13 -10 27 6 7 8 17 4 20 -4 4 -11 2 -15 -6 -6
-9 -10 -7 -14 8 -7 26 -27 28 -27 2 0 -11 -4 -23 -10 -26 -14 -9 -12 -33 3
-32 50 2 65 -17 25 -32 -27 -10 -55 5 -61 31 -3 10 -14 18 -26 18 -16 0 -21
-6 -21 -28 0 -15 -5 -33 -12 -40 -9 -9 -9 -12 1 -12 7 0 9 -5 6 -11 -5 -6 -12
-4 -20 8 -12 15 -12 20 0 29 9 7 10 15 4 25 -7 11 -9 11 -9 -4 0 -11 -4 -15
-12 -11 -8 5 -4 13 11 25 27 22 20 44 -9 29 -27 -15 -34 -12 -16 6 21 21 20
34 -3 34 -14 0 -18 5 -14 20 3 11 9 17 14 14 15 -9 49 6 49 22 0 11 6 13 19 9
11 -3 22 -2 25 3 3 6 -7 12 -22 15 -15 3 -30 1 -33 -5 -8 -12 -16 39 -11 65 2
9 10 17 18 17 8 0 14 5 14 12 0 6 7 3 16 -8 15 -18 15 -18 10 11 -3 17 -3 24
0 18 3 -7 14 -13 25 -13 14 0 19 7 19 28 0 20 -3 23 -10 12 -8 -12 -10 -12
-16 3 -3 10 -4 21 0 24 3 3 -4 14 -15 24 -14 12 -20 30 -21 58 0 23 -5 44 -10
47 -17 11 -22 -5 -9 -32 10 -22 9 -25 -6 -22 -13 2 -17 14 -18 51 0 40 1 45
12 32 13 -19 38 -15 38 6 0 8 5 15 10 16 6 1 8 -10 7 -25 -3 -21 -1 -24 8 -15
19 18 24 103 6 103 -8 0 -17 -6 -19 -12 -3 -7 -6 -3 -6 9 -1 23 -16 39 -25 25
-8 -13 -66 -2 -66 13 0 6 -11 17 -25 23 -14 6 -25 16 -25 22 0 6 -4 8 -10 5
-14 -9 -12 -35 3 -35 22 0 20 -58 -3 -70 -27 -15 -34 5 -26 73 5 44 4 50 -7
35 -13 -16 -15 -16 -30 2 -15 18 -15 20 1 29 16 10 16 10 -1 11 -12 0 -16 4
-10 13 4 6 6 20 5 29 -2 9 6 22 17 28 18 9 21 8 21 -9 0 -11 -5 -23 -10 -26
-8 -5 -7 -11 1 -21 15 -19 27 -18 32 4 4 13 5 12 6 -5 1 -24 20 -42 22 -21 1
7 4 2 8 -12 6 -20 9 -13 15 35 6 41 5 60 -3 63 -6 2 -11 16 -12 30 -1 25 -2
24 -11 -8 -6 -19 -13 -29 -15 -22 -3 6 -11 12 -18 12 -21 0 -27 16 -19 54 4
23 13 38 26 42 25 8 19 40 -7 36 -18 -3 -17 -1 3 13 13 10 21 23 19 29 -3 7 2
13 10 13 12 0 13 -11 8 -60z m4911 -18 c-4 6 0 11 9 11 13 0 16 -6 11 -24 -3
-12 -2 -26 2 -30 4 -4 6 -86 4 -182 -2 -113 0 -186 8 -209 6 -19 8 -40 4 -47
-14 -22 -15 -48 -2 -71 l12 -22 7 25 c5 18 7 20 8 6 1 -15 4 -16 16 -6 13 10
15 9 15 -9 0 -12 -4 -20 -9 -16 -5 3 -11 -7 -13 -22 -2 -23 -8 -28 -30 -29
-23 -1 -28 3 -28 22 0 24 -14 32 -24 15 -8 -12 -55 -20 -61 -11 -3 4 4 10 15
13 13 3 18 11 14 20 -3 8 -1 18 5 22 6 3 11 15 11 26 0 10 5 19 10 19 6 0 10
-9 10 -20 0 -11 4 -20 8 -20 11 0 10 336 -1 346 -5 5 -12 2 -16 -5 -7 -10 -10
-10 -16 -1 -4 7 -2 16 6 21 11 6 11 11 1 21 -19 19 -15 37 8 31 14 -4 20 0 20
11 0 19 -9 20 -44 6 -17 -6 -26 -17 -26 -31 0 -35 -10 -16 -13 25 -2 20 0 36
5 36 4 0 8 -5 8 -11 0 -5 4 -8 10 -4 5 3 7 12 3 20 -3 8 0 15 6 15 6 0 11 -4
11 -10 0 -5 5 -10 10 -10 17 0 12 57 -6 64 -8 3 -12 10 -9 16 4 7 13 6 27 -1
15 -8 19 -8 14 0z m-2741 -1147 c14 -37 59 75 48 117 -6 22 34 48 82 53 33 4
47 -21 16 -29 -26 -7 -27 -20 -3 -25 20 -5 70 11 132 41 52 25 70 26 70 6 0
-8 -9 -15 -20 -15 -13 0 -20 -7 -20 -19 0 -13 -9 -21 -27 -25 -16 -4 -39 -9
-53 -12 -14 -3 -45 -5 -70 -5 -39 -1 -42 -2 -22 -11 15 -8 22 -19 21 -37 0
-14 -3 -20 -6 -12 -5 11 -7 11 -14 0 -11 -19 -33 3 -34 34 0 16 -7 23 -25 26
l-25 3 24 -19 c17 -14 21 -22 13 -27 -7 -4 -12 -1 -12 8 0 9 -4 16 -9 16 -6 0
-4 -15 4 -33 11 -27 11 -35 -1 -52 -17 -23 -18 -55 -3 -55 8 0 8 -4 -1 -15
-10 -12 -7 -15 14 -21 36 -9 42 -1 50 58 l8 53 18 -22 c10 -13 23 -23 29 -23
14 0 14 -13 -1 -28 -9 -9 -5 -19 22 -42 19 -16 29 -29 22 -30 -7 0 -15 7 -18
15 -9 22 -24 18 -24 -5 0 -34 43 -30 111 11 32 18 63 29 87 29 l37 -1 -25 -15
c-26 -16 -18 -15 38 2 35 10 26 -12 -10 -26 -18 -7 -36 -12 -41 -11 -4 0 -21
-20 -37 -46 -32 -50 -40 -51 -15 -3 19 37 16 37 -32 4 -50 -34 -67 -54 -70
-82 -4 -31 13 -19 35 25 16 34 33 45 39 26 2 -4 -18 -34 -45 -67 -26 -32 -53
-69 -60 -82 -7 -13 -20 -24 -28 -24 -7 0 -14 -4 -14 -9 0 -13 61 -2 89 16 17
11 25 12 31 3 5 -8 17 -3 38 15 18 15 32 23 32 18 -1 -19 -29 -44 -71 -62 -24
-11 -37 -20 -29 -20 29 -1 88 20 124 44 20 13 36 21 36 16 0 -11 -39 -45 -80
-70 -19 -11 -31 -21 -26 -21 6 0 1 -7 -10 -15 -10 -8 -14 -15 -7 -15 6 0 15 5
18 10 10 16 28 12 21 -5 -9 -25 10 -17 22 10 6 13 23 27 37 31 13 3 22 10 19
15 -3 5 12 10 33 11 55 2 74 0 116 -13 31 -10 37 -17 37 -40 0 -26 -2 -27 -37
-22 -21 3 -46 10 -55 14 -9 5 -33 9 -54 9 -29 0 -34 -3 -25 -14 13 -15 4 -76
-11 -76 -5 0 -16 -6 -23 -12 -8 -7 -25 -22 -39 -32 -13 -11 -22 -26 -19 -33 3
-7 0 -13 -6 -13 -6 0 -11 8 -11 18 0 14 -2 15 -10 2 -8 -12 -10 -11 -10 7 0
12 6 24 13 26 8 4 6 6 -4 6 -9 1 -24 -8 -33 -18 -16 -17 -16 -25 -6 -56 11
-32 14 -35 28 -22 32 27 46 32 39 14 -3 -10 -2 -17 4 -17 12 0 39 25 39 35 0
4 18 25 40 48 45 45 69 43 26 -2 -27 -28 -27 -28 -4 -24 13 3 43 31 68 62 l44
56 -35 -27 -36 -27 5 25 c4 25 22 44 22 24 0 -7 6 -8 18 -2 26 13 57 9 57 -8
0 -8 -10 -16 -22 -18 -24 -4 -30 -16 -13 -27 6 -3 10 -11 10 -16 0 -6 -4 -8
-9 -5 -4 3 -17 -1 -27 -8 -17 -13 -16 -14 10 -9 23 5 27 3 24 -13 -3 -14 -11
-18 -34 -16 -35 3 -70 -28 -84 -74 -7 -25 -8 -26 -9 -6 -1 12 -7 25 -15 28 -8
3 -12 12 -9 20 8 21 -10 17 -30 -6 -21 -25 -22 -44 -2 -36 19 7 19 1 -2 -24
-13 -14 -20 -17 -30 -8 -11 8 -12 7 -7 -6 3 -9 0 -24 -7 -34 -11 -14 -9 -13 9
2 22 19 32 10 11 -11 -9 -9 -6 -10 10 -6 12 3 29 19 37 35 20 39 30 29 37 -38
5 -48 3 -62 -14 -82 -11 -14 -17 -33 -14 -42 3 -10 -1 -23 -10 -30 -12 -10
-13 -15 -3 -28 11 -12 11 -16 0 -20 -7 -2 -24 -27 -39 -55 -31 -63 -26 -57
-53 -62 -19 -4 -21 -1 -17 18 2 12 8 30 12 40 10 25 -22 11 -53 -22 -16 -18
-8 5 28 76 27 57 50 112 50 124 0 21 0 21 -19 -2 l-18 -23 4 35 c3 29 2 31 -7
12 -5 -13 -14 -23 -20 -23 -8 0 -8 6 0 20 8 14 8 20 0 20 -6 0 -13 -7 -17 -16
-4 -11 -8 -12 -13 -4 -4 6 -18 -14 -34 -49 -14 -33 -30 -61 -35 -63 -4 -2 -24
-33 -43 -70 -22 -43 -67 -101 -124 -160 l-89 -94 25 51 c14 28 39 69 56 91 17
21 41 56 53 77 13 21 25 36 27 34 6 -6 -34 -83 -50 -97 -18 -14 -21 -30 -7
-30 16 0 100 124 116 170 8 24 13 52 9 62 -3 10 0 25 6 33 7 8 9 23 6 32 -5
11 -10 13 -14 7 -4 -6 -14 -13 -23 -17 -10 -3 -25 -30 -34 -59 -18 -53 -52
-128 -59 -128 -2 0 7 26 20 58 26 63 30 87 12 76 -7 -4 -8 -3 -4 5 4 6 10 9
14 7 10 -6 9 56 -1 71 -10 15 -39 5 -30 -11 3 -6 3 -8 -2 -4 -4 4 -15 3 -22
-4 -9 -7 -6 5 7 30 26 49 45 66 36 31 -3 -13 -3 -18 0 -11 3 6 9 10 14 7 11
-7 60 53 72 87 6 16 14 26 18 23 11 -7 30 27 30 54 0 36 -24 23 -44 -25 -10
-25 -20 -43 -23 -40 -2 2 3 18 11 35 9 16 16 40 15 53 0 17 -4 14 -15 -16 -17
-46 -54 -109 -61 -102 -3 3 5 21 17 40 12 20 20 44 18 53 -2 12 -16 -2 -43
-46 -22 -36 -52 -77 -67 -92 -16 -15 -28 -31 -28 -36 0 -4 5 -1 11 7 9 13 10
13 6 0 -2 -8 -9 -14 -15 -13 -14 3 -106 -123 -127 -173 -18 -45 -28 -41 -15 6
18 63 3 41 -21 -30 -22 -68 -45 -98 -34 -42 6 26 6 26 -9 8 -17 -21 -46 -30
-46 -15 0 6 10 20 23 32 28 27 80 107 74 114 -3 2 -24 -21 -48 -51 -24 -30
-45 -54 -47 -52 -2 2 32 51 75 108 97 128 116 158 103 158 -7 0 -7 7 0 21 24
44 0 28 -26 -18 -35 -60 -107 -157 -150 -202 -19 -19 -31 -38 -27 -44 3 -6 1
-7 -5 -3 -5 3 -20 -6 -31 -21 -16 -21 -20 -23 -15 -8 4 15 -1 13 -20 -10 -14
-16 -28 -27 -31 -23 -3 3 6 20 21 37 34 41 23 53 -16 16 -32 -30 -60 -41 -60
-22 0 6 -14 -2 -32 -19 l-31 -29 29 37 c16 21 31 33 35 27 9 -15 18 -11 61 22
20 16 38 25 40 20 8 -21 50 13 108 86 l62 78 -69 -73 c-59 -60 -70 -68 -68
-48 2 14 13 40 25 58 12 18 -13 -3 -55 -47 -43 -44 -68 -67 -56 -51 11 16 21
35 21 43 0 8 25 37 55 65 75 68 100 105 85 122 -8 11 -8 16 1 22 8 5 9 3 4 -7
-7 -12 -6 -12 9 0 9 8 24 28 32 45 l15 31 -27 -30 -27 -30 27 47 c33 59 33 72
0 33 l-26 -30 25 43 c13 24 28 43 33 43 12 0 54 40 54 51 0 5 -5 6 -12 2 -7
-4 -8 -3 -4 5 4 6 11 9 16 6 4 -3 10 2 14 10 3 8 13 15 23 15 10 0 24 4 32 9
10 6 3 9 -22 9 -19 0 -44 3 -56 7 -22 7 -34 -2 -64 -45 -25 -37 -20 -49 7 -16
13 16 29 27 36 24 9 -3 3 -14 -16 -34 -16 -17 -39 -43 -52 -60 -15 -19 -20
-23 -16 -9 10 31 -44 -26 -116 -120 -64 -86 -77 -114 -32 -74 15 14 41 33 57
43 28 16 28 15 -5 -13 -68 -59 -77 -66 -91 -69 -8 -2 -25 -13 -39 -25 -15 -13
-11 -6 10 20 48 57 103 134 98 138 -2 2 -34 -23 -71 -57 -37 -33 -67 -55 -67
-50 0 6 16 23 35 39 117 94 321 329 269 309 -10 -4 -38 -10 -62 -13 -24 -3
-46 -12 -48 -19 -13 -43 -16 -48 -22 -38 -4 6 -24 -9 -47 -37 -22 -26 -45 -48
-50 -48 -14 -1 -37 38 -30 49 4 6 -1 7 -11 3 -15 -6 -14 -1 5 26 28 38 25 45
-12 26 -15 -8 -25 -10 -22 -5 3 5 1 11 -5 15 -15 9 -12 25 6 25 8 0 12 5 9 10
-3 6 -15 10 -26 10 -14 0 -26 12 -37 40 -13 30 -28 45 -64 62 -27 13 -48 27
-48 31 0 5 7 7 15 3 8 -3 15 -1 15 5 0 6 5 7 10 4 11 -6 13 2 14 49 1 30 26
51 26 22 0 -9 -6 -16 -12 -16 -9 0 -9 -3 -2 -8 5 -4 14 -22 20 -41 l9 -34 15
27 c10 20 11 29 2 35 -8 5 -7 14 4 36 13 26 13 34 -2 81 -9 29 -21 52 -26 51
-13 -3 -19 31 -7 39 5 3 21 -20 35 -50 14 -31 28 -56 30 -56 8 0 -2 92 -11
114 -6 13 -3 21 8 28 18 10 23 38 7 38 -5 0 -10 4 -10 10 0 5 7 7 16 3 14 -5
15 -18 9 -93 -5 -60 -3 -90 4 -94 6 -4 8 -18 5 -31 -3 -12 -1 -26 4 -29 7 -4
11 19 12 61 0 38 5 88 9 113 l8 45 2 -54 c1 -43 4 -52 16 -47 9 3 15 1 14 -7
-1 -6 0 -21 1 -32 5 -43 18 75 18 163 0 52 3 96 6 100 3 3 6 -9 6 -27 0 -19 4
-30 10 -26 6 3 10 2 10 -4 0 -5 -5 -13 -10 -16 -6 -4 -7 -11 -4 -17 4 -6 6
-34 5 -63 -2 -45 1 -54 29 -78 l30 -27 1 52 c0 29 4 62 9 73 7 14 9 2 8 -41
-1 -59 5 -84 21 -84 9 0 10 4 17 102 4 45 10 75 16 72 5 -4 8 21 7 60 -1 36 1
69 4 73 4 3 8 -50 9 -118 1 -92 3 -111 8 -74 6 44 7 38 10 -45 l3 -95 8 119
c4 65 10 121 13 124 4 3 7 -30 8 -74 1 -69 2 -73 8 -34 l7 45 2 -50 c3 -82 25
-27 32 80 l5 90 3 -100 c2 -55 6 -91 8 -81 4 15 7 16 14 5 6 -10 9 -3 10 21 0
19 5 46 9 60 6 19 9 11 10 -35 1 -33 5 -51 8 -40 l5 20 8 -20 c6 -15 8 -12 8
18 1 24 5 36 13 35 16 -4 23 56 34 292 l9 185 3 -225 c1 -124 4 -231 7 -238z
m-1687 400 c7 -5 10 -16 6 -26 -4 -11 1 -25 14 -39 28 -29 35 -105 23 -222
l-9 -90 1 121 c2 99 -1 123 -14 136 -15 15 -16 14 -16 -15 -1 -26 1 -28 7 -12
8 18 9 17 9 -6 1 -16 -4 -26 -14 -26 -8 0 -15 5 -15 11 0 6 -6 2 -12 -9 -12
-19 -12 -19 -19 5 -5 19 -8 14 -9 -25 l-2 -50 -8 50 c-12 82 -7 188 9 193 9 3
11 -1 6 -17 -7 -24 0 -27 21 -7 16 17 19 30 4 21 -5 -3 -10 -1 -10 4 0 13 10
14 28 3z m2872 -168 c0 -15 8 -24 24 -28 22 -5 24 -11 21 -44 -3 -20 -2 -30 1
-20 12 37 58 32 62 -7 2 -30 -13 -33 -21 -5 -3 11 -10 20 -15 20 -15 0 -22
-39 -15 -87 4 -33 10 -43 24 -43 11 0 19 7 19 18 0 9 6 34 14 55 15 43 20 37
32 -38 6 -41 5 -47 -9 -42 -8 3 -18 0 -21 -8 -3 -8 -13 -11 -26 -8 -20 5 -21
2 -18 -42 l3 -47 60 -20 c33 -10 71 -27 84 -37 20 -15 22 -21 12 -39 -7 -12
-17 -22 -24 -22 -16 0 -61 48 -72 75 l-7 20 -8 -20 c-8 -19 -9 -19 -9 3 -1 13
-7 22 -16 22 -17 0 -18 -8 -8 -63 4 -27 9 -34 14 -25 6 8 8 -6 7 -37 0 -27 0
-66 1 -86 1 -34 2 -35 34 -31 17 2 38 9 45 14 6 6 12 8 12 5 0 -3 3 -12 6 -20
3 -8 -5 -25 -18 -37 -17 -17 -19 -21 -5 -17 11 4 17 1 17 -9 0 -12 -7 -15 -25
-12 -13 3 -24 2 -23 -1 2 -21 -4 -30 -17 -25 -9 4 -15 0 -15 -10 0 -9 8 -16
20 -16 14 0 22 -11 30 -40 13 -47 34 -44 26 3 -5 28 -5 29 4 9 10 -24 33 -21
28 3 -2 8 2 13 7 12 6 -1 10 -7 10 -14 0 -6 11 -24 24 -39 14 -16 20 -29 13
-32 -6 -2 -9 -9 -6 -16 5 -14 -84 -111 -130 -141 -14 -9 -23 -22 -20 -27 3 -5
-3 -16 -15 -24 -35 -25 -42 -76 -31 -229 9 -125 16 -169 50 -320 6 -25 6 -41
0 -43 -6 -2 -10 -24 -10 -49 0 -39 -2 -44 -15 -33 -8 7 -15 22 -16 34 -1 19
-2 19 -8 -3 -6 -21 -8 -22 -20 -8 -7 9 -10 20 -7 26 4 5 -1 17 -11 26 -17 18
-20 59 -8 110 7 29 7 29 -9 10 -15 -19 -15 -19 -17 13 -3 72 -5 90 -19 170
-13 81 -13 82 9 103 19 18 22 29 18 73 -2 28 -11 71 -20 96 -9 25 -21 68 -27
95 -6 28 -21 61 -33 74 l-22 24 28 -7 28 -7 -6 83 c-3 46 -11 112 -16 148 -19
116 -19 133 -4 144 8 6 15 26 17 45 6 65 24 43 26 -31 5 -185 9 -248 15 -254
4 -4 7 2 7 14 0 12 8 23 21 27 13 4 18 12 15 22 -3 8 -6 19 -6 24 0 6 -4 8 -9
4 -5 -3 -13 0 -17 6 -5 8 1 10 20 7 20 -4 26 -2 22 8 -3 8 1 14 10 14 11 0 12
4 4 19 -5 11 -9 51 -9 89 1 39 -1 75 -5 80 -3 5 -6 44 -8 85 -1 68 -3 74 -15
57 -8 -11 -13 -28 -12 -38 6 -66 4 -68 -78 -81 -43 -7 -87 -15 -98 -17 -19 -5
-21 -1 -20 38 1 24 7 56 13 71 7 16 9 34 6 39 -5 7 1 9 14 6 12 -4 22 -2 22 3
0 8 -14 13 -32 11 -14 -2 -16 27 -2 38 8 8 14 31 14 60 0 41 4 52 28 69 45 34
60 51 67 79 12 50 44 46 45 -4z m-2612 -109 c17 -5 22 -2 23 12 0 14 2 15 6 3
3 -8 11 -18 17 -22 17 -12 81 -9 94 4 6 6 19 13 28 14 13 2 15 -4 12 -29 -3
-18 -9 -41 -13 -52 -8 -18 -7 -18 8 -7 9 8 21 29 27 48 15 44 26 43 33 -1 5
-30 0 -43 -31 -85 l-37 -50 -5 31 c-5 30 -6 31 -21 13 -9 -11 -19 -41 -22 -69
-5 -56 -84 -265 -99 -265 -15 0 -2 71 39 230 47 179 47 180 35 180 -6 0 -17 3
-25 6 -8 3 -22 -2 -31 -11 -15 -15 -18 -14 -40 9 -13 14 -28 26 -33 26 -9 0
-33 42 -33 57 0 4 10 -3 23 -14 12 -11 32 -24 45 -28z m2504 -360 c4 -22 4
-55 1 -74 -4 -23 -2 -32 5 -27 6 3 13 2 17 -4 3 -5 -1 -10 -9 -10 -11 0 -16
-10 -16 -32 0 -25 3 -29 10 -18 7 11 8 6 4 -16 -4 -19 -1 -34 5 -38 6 -4 11 0
11 11 0 15 2 16 10 3 14 -21 12 -70 -2 -70 -7 0 -6 -5 4 -12 9 -7 18 -33 22
-58 l6 -45 -23 30 c-12 16 -22 33 -22 38 0 4 -7 12 -15 17 -10 7 -11 10 -2 10
6 0 12 5 12 10 0 6 -8 10 -19 10 -21 0 -31 -26 -24 -64 4 -20 11 -26 30 -26
13 0 22 -4 18 -9 -3 -6 -24 -9 -48 -8 -35 2 -43 6 -45 25 -2 12 4 29 12 38 9
9 13 20 10 26 -4 7 -9 6 -14 -2 -12 -19 -22 17 -25 91 -2 36 1 72 6 80 6 10 9
0 9 -31 1 -58 17 -136 20 -100 6 60 4 132 -2 137 -13 7 -9 138 4 151 22 22 42
8 50 -33z m-1950 1 c15 -11 15 -15 3 -40 -8 -15 -19 -45 -25 -66 -8 -29 -21
-45 -58 -69 -26 -17 -42 -31 -37 -31 6 0 21 7 33 16 33 23 38 10 6 -15 -15
-11 -38 -21 -53 -21 -20 0 -23 -2 -11 -10 10 -6 11 -10 3 -10 -7 0 -22 9 -34
21 -11 11 -14 19 -7 17 15 -3 68 30 68 43 0 5 -7 9 -15 9 -8 0 -15 5 -15 12 0
24 70 135 92 146 29 14 30 14 50 -2z m-652 -456 c6 0 11 37 12 83 l2 82 3 -83
c2 -49 8 -80 13 -77 6 4 10 24 10 46 0 21 2 39 4 39 22 0 36 -17 36 -41 0 -21
5 -29 18 -29 16 -1 16 -2 -1 -14 -17 -13 -13 -15 35 -21 42 -5 63 -2 102 14
44 19 76 21 51 3 -8 -6 -46 -132 -40 -132 2 0 57 27 124 60 67 33 125 60 129
60 4 0 -21 -18 -55 -41 -70 -45 -93 -70 -42 -43 41 21 150 94 164 109 6 6 23
19 38 29 46 29 24 29 -39 1 -63 -28 -163 -65 -176 -65 -4 0 -8 9 -8 20 0 15
11 22 46 31 29 8 48 19 51 29 3 10 23 23 46 30 59 17 156 55 192 74 33 18 65
21 65 7 0 -5 3 -16 6 -24 4 -10 -13 -26 -53 -50 -61 -37 -150 -121 -146 -137
2 -5 -3 -7 -10 -5 -6 3 -28 -10 -47 -28 -19 -18 -66 -58 -105 -89 -38 -31 -88
-71 -110 -89 -22 -19 -34 -26 -26 -16 27 34 -3 16 -69 -43 -65 -57 -102 -81
-67 -42 10 10 15 22 12 25 -3 4 -2 5 1 3 3 -3 40 24 82 60 78 64 111 83 76 42
l-19 -23 22 19 c12 10 21 23 20 30 -1 6 4 10 11 8 8 -1 11 2 8 7 -7 11 59 63
69 53 3 -4 5 -1 3 7 -1 7 5 15 15 16 15 3 137 101 137 111 0 2 -29 -15 -64
-38 -35 -24 -62 -47 -59 -52 4 -5 1 -6 -5 -2 -8 5 -54 -25 -82 -54 -3 -3 -12
-5 -20 -5 -8 0 -15 -5 -15 -12 0 -6 -4 -15 -9 -20 -5 -5 -6 -3 -2 5 16 28 -16
8 -80 -50 -38 -34 -71 -64 -74 -67 -30 -34 -81 -72 -100 -76 -17 -3 -8 9 36
49 118 106 122 110 94 94 -59 -35 -73 -46 -122 -91 -28 -27 -61 -53 -72 -58
-12 -6 -3 5 19 23 108 91 105 94 -16 14 -99 -65 -117 -78 -101 -71 6 3 12 4
12 2 0 -5 -101 -80 -110 -83 -21 -4 -39 -18 -35 -24 3 -5 -7 -20 -22 -34 -29
-27 -50 -35 -37 -15 4 7 -7 1 -25 -12 -34 -25 -39 -31 -17 -23 24 9 27 -12 4
-32 -14 -12 -18 -14 -13 -4 5 9 -1 7 -15 -5 -19 -17 -22 -17 -17 -3 4 12 -6 9
-38 -13 -23 -16 -46 -29 -50 -29 -17 0 -162 -95 -178 -117 -17 -22 -13 -21 55
14 90 46 128 63 128 58 0 -3 -32 -21 -72 -41 -40 -20 -105 -56 -145 -80 -39
-24 -74 -44 -77 -44 -14 0 -4 31 17 51 l22 21 -22 -7 c-14 -4 -23 -2 -23 5 0
6 13 13 29 16 35 7 83 54 63 61 -10 4 -8 9 7 20 31 21 26 33 -11 28 -23 -3
-20 -1 9 7 24 6 43 15 43 20 0 14 -81 -1 -98 -18 -19 -20 -32 -17 -32 6 0 23
8 27 64 33 47 6 64 20 47 40 -9 12 -20 13 -51 5 -22 -6 -38 -14 -35 -18 3 -5
-4 -6 -15 -3 -22 6 -28 42 -7 45 6 0 30 2 52 2 22 1 40 6 40 12 0 20 35 46 68
49 30 2 144 61 178 91 8 8 22 14 30 14 21 0 56 27 47 36 -4 4 -14 2 -22 -5
-11 -9 -15 -8 -20 4 -3 9 0 15 10 15 8 0 13 4 9 9 -3 5 3 12 14 16 11 3 33 21
49 39 15 18 36 35 45 39 12 5 17 17 16 44 l-1 38 -13 -40 c-8 -22 -14 -34 -14
-27 -1 14 -25 42 -35 42 -3 0 -6 -8 -6 -18 0 -30 -30 -22 -31 7 -1 17 -3 20
-6 9 -5 -21 -19 -23 -26 -5 -3 7 -6 5 -6 -5 -1 -21 -21 -24 -39 -6 -16 16 -15
38 2 38 19 0 28 27 13 37 -7 5 -12 15 -12 23 0 10 -9 14 -29 13 -22 -2 -26 1
-18 9 35 35 -4 37 -41 3 l-27 -26 0 25 c0 17 8 29 28 38 25 12 27 18 32 90 7
99 20 112 21 22 1 -38 3 -62 4 -54 2 8 7 33 11 55 l7 40 7 -30 c6 -23 8 -14 9
35 1 46 4 61 11 50 5 -8 10 -27 10 -42 0 -16 5 -28 10 -28 6 0 10 -12 11 -27
1 -23 3 -21 10 12 7 27 6 41 -1 43 -14 5 -13 23 2 19 8 -1 11 13 10 43 -2 25
2 52 8 60 8 11 11 -18 9 -105 -2 -155 1 -163 16 -40 l12 100 2 -95 3 -95 13
45 c12 41 13 43 15 15 3 -44 9 -13 19 95 l8 95 4 -110 3 -110 6 95 c6 88 6 90
8 28 1 -37 7 -70 12 -73 6 -3 11 4 11 17 1 13 5 -4 10 -37 4 -33 5 -68 2 -79
-3 -11 -1 -16 5 -12 5 3 13 22 16 41 4 20 11 33 16 30 4 -3 6 -15 2 -27 -4
-15 -2 -19 8 -13 7 4 16 2 21 -6 7 -11 9 -10 9 4 0 10 7 20 15 24 9 3 15 13
14 22 -8 88 14 180 24 99 2 -18 6 14 8 72 3 95 4 90 6 -52 2 -94 7 -158 13
-158z m1587 -686 c42 -5 51 -10 50 -25 -1 -11 -7 -19 -14 -19 -7 0 -28 -13
-46 -30 -27 -23 -44 -30 -78 -30 -25 0 -50 -7 -61 -17 -17 -15 -18 -15 -18 1
0 11 -14 2 -45 -30 -25 -25 -45 -50 -45 -56 0 -5 -4 -7 -9 -3 -5 3 -13 0 -17
-6 -4 -8 -3 -9 4 -5 7 4 12 1 12 -6 1 -7 7 -2 15 12 11 20 14 21 15 7 0 -43
-40 -76 -54 -44 -3 6 -4 3 -1 -9 4 -14 -3 -30 -21 -48 -36 -36 -42 -25 -15 29
12 24 25 62 28 82 7 43 32 82 50 76 6 -2 14 1 18 6 3 6 1 11 -4 11 -6 0 -11 5
-11 10 0 6 17 10 38 10 43 0 82 9 82 19 0 9 -35 14 -85 13 -44 -2 -90 6 -82
14 2 3 44 9 92 14 49 5 93 14 99 20 12 12 30 12 103 4z"/>
<path d="M1 2487 c-1 -72 3 -126 8 -123 5 3 11 -4 14 -15 4 -14 10 -18 19 -13
7 5 5 -5 -6 -21 -19 -29 -32 -120 -15 -110 5 4 9 1 9 -4 0 -6 5 -11 11 -11 5
0 9 8 8 18 -1 9 0 19 1 22 1 3 4 34 5 70 1 36 6 73 10 83 4 11 3 23 -4 30 -6
6 -11 19 -11 29 0 10 -7 21 -15 24 -9 4 -15 17 -14 33 1 17 3 20 6 8 2 -10 12
-16 21 -15 10 2 16 -3 14 -10 -1 -8 2 -11 8 -7 5 3 10 31 10 61 l0 54 -34 0
c-19 0 -37 6 -39 13 -3 6 -6 -46 -6 -116z"/>
<path d="M4237 1123 c-4 -3 -2 -12 5 -20 18 -22 3 -24 -20 -3 -32 30 -34 24
-7 -16 13 -20 27 -52 31 -73 3 -20 12 -62 20 -94 16 -66 19 -136 4 -102 -6 13
-9 -11 -9 -71 -1 -61 4 -104 14 -128 8 -20 12 -36 8 -36 -4 0 -2 -5 5 -12 7
-7 12 -23 11 -37 l-1 -26 -8 25 c-6 17 -8 0 -9 -55 0 -52 2 -75 9 -65 6 10 10
0 12 -35 2 -32 7 -49 15 -48 13 3 26 -65 22 -107 -5 -46 13 -149 27 -154 11
-4 14 9 14 61 0 81 18 75 21 -7 1 -30 0 -59 -1 -65 -1 -5 -2 -20 -1 -32 l1
-23 381 0 c301 0 379 3 373 13 -6 10 -4 10 7 0 7 -7 37 -13 67 -13 40 0 51 3
46 13 -6 10 -4 10 7 0 15 -14 364 -19 372 -5 3 4 -20 27 -50 52 -30 25 -83 71
-117 102 -35 32 -66 55 -71 50 -4 -4 -5 -1 -1 6 4 7 13 9 19 5 18 -11 38 -12
31 -2 -3 5 -9 7 -14 4 -5 -3 -17 5 -27 18 -26 32 -103 86 -117 81 -6 -2 -29
17 -51 42 -91 104 -115 128 -120 122 -3 -3 12 -23 32 -44 21 -21 49 -55 62
-74 15 -23 3 -14 -37 28 -33 34 -64 62 -68 62 -4 0 0 -8 9 -18 22 -24 22 -38
0 -21 -15 11 -15 10 1 -8 10 -13 22 -21 26 -18 4 2 20 -10 36 -27 l29 -31 -35
23 -35 24 43 -47 c76 -84 44 -64 -55 35 -76 75 -103 96 -118 92 -14 -3 -28 3
-44 20 -14 14 -34 26 -45 25 -21 0 -21 0 0 -9 28 -11 42 -32 17 -24 -16 5 -16
4 1 -10 11 -9 23 -16 27 -16 10 0 113 -108 118 -123 2 -7 -10 0 -26 16 -16 15
-32 25 -35 21 -3 -3 -21 13 -39 35 -18 23 -39 41 -46 41 -8 0 -34 12 -58 26
-25 14 -49 23 -54 19 -6 -3 -23 0 -38 8 -15 8 -40 17 -54 21 l-27 6 27 -28
c14 -16 45 -40 68 -55 49 -31 135 -116 128 -127 -3 -4 1 -7 8 -6 6 0 34 -24
62 -54 l49 -55 -47 45 c-26 24 -47 41 -47 36 0 -4 -7 -1 -15 8 -9 8 -15 17
-15 18 4 13 -98 102 -136 119 -27 12 -61 30 -76 40 -29 21 -43 24 -33 9 12
-20 -2 -9 -39 30 -35 37 -25 47 14 15 46 -38 58 -31 15 8 -38 35 -52 43 -62
35 -11 -8 -21 -4 -45 18 -52 47 -57 57 -58 109 0 28 -7 70 -14 95 -21 66 -81
192 -105 217 -33 35 -89 74 -103 72 -35 -4 -41 1 -24 20 17 19 17 20 -3 30
-23 13 -26 13 -34 4z"/>
<path d="M830 215 c-28 -25 -55 -43 -60 -40 -6 3 -7 0 -4 -8 3 -8 -3 -20 -12
-28 -16 -12 -17 -12 -12 3 4 9 2 15 -5 14 -18 -3 -91 -51 -107 -71 -14 -18
-14 -18 11 -2 15 10 34 15 43 11 15 -6 15 -9 -6 -32 -21 -23 -21 -25 -3 -18
17 6 17 4 -4 -18 l-24 -26 73 0 c62 0 78 3 98 23 24 20 25 21 18 2 -5 -14 -4
-17 4 -9 6 6 8 18 5 26 -6 15 -9 15 -35 0 -46 -26 -47 -5 -2 33 22 20 48 50
57 68 14 28 9 26 -41 -23 -31 -30 -54 -49 -50 -42 4 6 3 12 -3 12 -5 0 29 38
77 85 80 78 85 85 60 85 -18 0 -44 -15 -78 -45z"/>
<path d="M1120 154 c-19 -14 -43 -32 -52 -41 -11 -10 -18 -12 -18 -5 0 18 -15
14 -41 -11 -23 -23 -59 -42 -59 -31 0 3 5 15 12 27 10 20 10 21 -5 8 -10 -7
-17 -22 -17 -33 0 -14 -5 -18 -15 -14 -8 3 -29 -7 -47 -24 l-32 -30 77 0 c81
0 107 11 107 45 0 9 5 13 11 9 6 -3 22 6 35 22 58 69 85 104 82 103 -1 0 -19
-12 -38 -25z"/>
</g>
</svg>
