<svg version="1.0" xmlns="http://www.w3.org/2000/svg"
 width="640.000000pt" height="853.000000pt" viewBox="0 0 640.000000 853.000000"
 preserveAspectRatio="xMidYMid meet">
<g transform="translate(0.000000,853.000000) scale(0.100000,-0.100000)"
fill="#000000" stroke="none">
<path d="M0 4265 l0 -4265 3200 0 3200 0 0 4265 0 4265 -3200 0 -3200 0 0
-4265z m194 2709 c15 -14 17 -14 22 0 5 14 36 16 235 16 211 0 229 -1 230 -17
1 -17 2 -17 6 0 3 12 15 17 42 17 29 0 44 -7 71 -35 19 -19 41 -35 50 -35 9 0
25 -9 34 -19 16 -17 17 -48 15 -325 l-2 -306 -53 0 c-32 0 -54 5 -57 13 -4 8
-8 9 -14 1 -9 -12 -45 -15 -53 -5 -3 3 -59 4 -125 1 l-120 -5 120 -5 120 -6
-125 0 c-94 1 -124 4 -122 14 1 9 -21 12 -90 11 -65 -1 -84 -4 -63 -9 29 -7
29 -8 4 -9 -41 -2 -99 26 -99 48 0 10 -7 24 -15 31 -8 7 -12 16 -9 21 3 5 2 9
-3 8 -4 -1 -16 1 -25 5 -16 7 -18 27 -18 210 0 225 9 396 21 396 4 0 15 -7 23
-16z m2503 -40 c65 -19 119 -55 115 -77 -3 -18 53 -48 103 -54 17 -2 50 -11
73 -19 32 -12 41 -19 32 -28 -12 -12 -161 -18 -179 -6 -7 4 -30 4 -52 0 -21
-4 -39 -4 -39 1 0 12 -41 23 -77 20 -19 -1 -33 3 -33 10 0 7 -9 9 -25 5 -16
-4 -25 -2 -25 5 0 8 -4 8 -12 2 -7 -6 -40 -13 -74 -16 -33 -4 -69 -9 -80 -12
-10 -3 -5 1 13 10 17 8 34 19 38 25 3 5 43 10 90 10 70 0 83 2 79 15 -3 8 -9
14 -12 13 -23 -3 -42 4 -37 12 4 7 -28 8 -99 4 -58 -3 -106 -3 -106 0 0 4 11
17 25 30 14 13 25 26 25 28 0 6 -52 2 -87 -7 -13 -3 -23 -1 -23 4 0 6 -11 7
-27 1 -38 -11 -93 -21 -93 -15 0 6 130 45 187 55 64 12 235 3 300 -16z m642
-178 c25 -8 60 -17 76 -20 36 -8 172 -19 200 -17 103 6 349 7 383 1 24 -4 65
-23 93 -41 58 -40 75 -82 64 -161 -9 -64 -80 -208 -103 -209 -10 0 -12 -3 -4
-6 18 -7 15 -23 -6 -23 -19 0 -42 -18 -42 -34 0 -5 8 -2 18 8 18 15 19 14 20
-19 1 -23 -4 -38 -13 -41 -7 -3 -11 -12 -8 -20 3 -8 0 -14 -6 -14 -6 0 -11 -9
-11 -20 0 -13 -5 -17 -14 -14 -9 3 -17 -3 -21 -15 -3 -12 -11 -21 -16 -21 -5
0 -22 -14 -39 -31 -16 -18 -30 -28 -30 -24 0 4 -7 2 -15 -5 -8 -6 -20 -8 -26
-4 -8 4 -9 3 -5 -4 4 -8 0 -12 -12 -12 -11 0 -31 -9 -46 -21 -19 -15 -24 -16
-20 -5 3 9 2 16 -4 16 -5 0 -12 -9 -15 -19 -5 -19 -7 -20 -88 -12 -11 1 -16
10 -15 31 1 27 2 28 14 13 11 -16 13 -16 30 0 15 16 15 19 2 27 -8 5 -12 10
-8 10 3 0 14 3 24 7 14 5 16 3 10 -13 -5 -14 -4 -16 4 -8 6 6 8 18 4 28 -5 13
-9 14 -20 5 -8 -6 -14 -8 -14 -4 0 4 10 15 23 25 35 29 10 42 -37 19 -22 -10
-46 -19 -53 -19 -7 0 -13 -4 -13 -9 0 -5 -12 -12 -27 -16 -15 -3 -31 -12 -35
-18 -4 -6 -23 -11 -42 -11 -20 0 -36 -4 -36 -10 0 -5 -3 -6 -7 -3 -3 4 -11 3
-17 -2 -6 -4 -23 -11 -38 -15 -23 -5 -26 -3 -21 10 5 14 3 15 -15 5 -11 -6
-24 -16 -27 -22 -5 -7 -15 -3 -30 11 -19 18 -33 21 -78 18 -30 -1 -53 0 -51 4
2 4 -1 10 -7 14 -18 11 -144 14 -178 4 -20 -6 -31 -5 -31 2 0 6 -15 7 -40 3
-22 -4 -40 -5 -40 -2 0 7 94 34 144 42 29 5 36 9 25 16 -10 6 -2 8 24 6 20 -3
37 0 37 4 0 5 -6 9 -12 9 -9 0 -8 3 2 9 8 6 18 7 22 5 4 -3 8 -1 8 4 0 12 38
4 46 -10 3 -5 -5 -6 -19 -3 -14 4 -28 2 -32 -5 -4 -6 -5 -13 -4 -14 2 -1 49 1
104 6 55 5 114 11 130 12 17 1 38 3 48 4 29 3 9 22 -23 22 -22 0 -28 4 -28 23
0 12 -3 32 -7 44 -6 18 -2 25 19 33 14 5 26 14 26 20 0 5 9 10 20 10 14 0 20
7 20 21 0 17 -4 20 -23 16 -12 -4 -29 -2 -37 3 -9 6 -17 5 -22 -3 -6 -9 -10
-8 -18 3 -6 10 -10 11 -10 3 0 -7 -6 -10 -14 -7 -8 3 -17 1 -21 -5 -3 -6 -14
-11 -23 -11 -13 0 -14 2 -4 9 9 5 -1 12 -32 21 -25 7 -46 17 -46 22 0 11 -49
31 -72 30 -10 0 -18 4 -18 9 0 5 -10 3 -22 -5 -13 -8 -45 -18 -73 -21 -27 -4
-77 -16 -110 -27 -33 -11 -84 -21 -113 -24 -29 -2 -58 -6 -64 -10 -19 -12 -78
-22 -83 -14 -9 15 70 63 134 80 23 6 41 16 41 21 0 6 7 9 15 5 14 -5 48 1 145
23 19 5 27 9 17 10 -10 0 -16 5 -12 10 3 5 0 13 -6 17 -8 5 -9 3 -4 -6 6 -9
-3 -11 -36 -7 -24 3 -48 6 -54 7 -5 0 -3 5 5 10 12 8 10 10 -10 10 l-25 0 25
20 c23 18 23 20 5 20 -20 1 -62 27 -54 34 2 2 14 9 26 15 13 6 22 15 22 19 -3
19 2 23 16 12 9 -7 18 -10 22 -6 3 3 1 6 -5 6 -7 0 -12 7 -12 15 0 18 16 19
92 3 63 -13 74 -24 31 -32 -16 -2 1 -3 37 -1 63 3 128 20 117 31 -3 3 -21 1
-41 -4 -21 -6 -38 -7 -41 -1 -3 4 7 11 22 15 42 9 50 12 31 13 -10 1 -18 5
-18 10 0 10 19 9 38 -2 7 -5 19 -2 28 7 8 9 23 17 32 17 9 1 39 3 66 4 54 3
80 20 56 35 -8 5 -23 10 -33 10 -10 0 -20 7 -23 15 -3 8 -24 20 -45 25 -21 6
-39 14 -39 19 0 10 87 -3 149 -23z m-617 -16 c15 -14 36 -20 65 -20 24 0 43
-4 43 -9 0 -9 -67 -17 -210 -26 -88 -6 -168 -14 -192 -21 -10 -3 -18 -1 -18 5
0 6 11 13 25 17 14 3 25 10 25 14 0 5 16 7 35 5 21 -2 41 3 50 11 7 8 22 14
32 15 16 0 16 1 -2 9 -16 6 -10 9 25 12 91 9 101 8 122 -12z m1528 -245 c11
-34 8 -74 -11 -122 -6 -15 -10 -29 -10 -30 4 -15 -2 -23 -19 -23 -22 0 -27
-15 -7 -23 7 -3 5 -6 -6 -6 -10 -1 -29 -13 -43 -28 -13 -14 -28 -23 -32 -18
-4 4 -1 10 6 12 10 4 10 8 1 20 -8 9 -9 17 -3 21 19 13 52 107 47 134 -3 15 3
50 12 78 16 49 18 51 36 34 10 -9 23 -31 29 -49z m192 -235 c17 -26 28 -25 28
3 1 20 2 21 14 5 7 -10 20 -18 28 -18 20 0 25 -22 23 -91 -2 -54 -10 -70 -62
-124 -7 -7 -9 -15 -6 -19 4 -3 -4 -6 -17 -6 -13 0 -21 -3 -17 -6 3 -4 -4 -15
-16 -25 -16 -13 -18 -19 -7 -19 13 -1 13 -2 0 -13 -21 -16 -20 -52 2 -52 9 0
20 -4 25 -9 5 -5 2 -6 -6 -1 -11 6 -13 4 -8 -8 3 -9 2 -19 -3 -22 -6 -4 -10
-10 -10 -16 0 -5 19 8 41 28 23 21 58 53 77 71 20 17 31 32 24 32 -7 0 -12 5
-12 10 0 6 5 10 11 10 6 0 19 10 29 23 24 29 33 19 15 -16 -10 -20 -11 -27 -2
-27 7 -1 6 -5 -4 -13 -14 -11 -36 -69 -27 -74 2 -1 -8 -13 -21 -26 -12 -14
-20 -30 -16 -36 3 -6 0 -11 -7 -11 -21 0 -45 -34 -44 -61 1 -21 -3 -24 -29
-21 -23 2 -26 0 -15 -8 13 -8 8 -14 -11 -12 -3 1 -4 -11 -2 -26 1 -15 0 -21
-3 -14 -3 6 -14 12 -25 12 -12 0 -16 5 -13 15 5 11 2 13 -10 9 -9 -3 -16 -9
-16 -13 0 -3 -15 -6 -34 -7 -18 0 -57 -11 -87 -23 -56 -24 -99 -33 -99 -21 0
13 28 20 32 9 2 -6 28 5 57 25 29 20 58 36 63 36 6 0 7 7 4 16 -3 8 -2 12 4 9
6 -3 10 1 10 10 0 9 5 13 10 10 6 -3 10 -2 10 4 0 6 12 22 28 37 27 26 27 26
2 14 -24 -10 -24 -10 -6 4 11 9 25 16 30 16 18 0 35 47 23 59 -13 13 -30 15
-23 2 6 -9 -11 -20 -27 -17 -5 0 -15 -12 -24 -27 -10 -20 -19 -27 -31 -22 -9
3 -13 3 -10 -1 9 -9 -22 -40 -49 -48 -13 -4 -23 -12 -23 -17 0 -5 -7 -9 -15
-9 -8 0 -15 7 -15 15 0 8 5 15 11 15 12 0 40 25 40 37 0 4 8 6 17 5 9 -2 14
-1 10 3 -4 5 5 22 21 40 15 18 34 47 42 64 8 17 17 31 21 31 3 0 14 14 22 32
13 25 14 33 4 39 -8 5 -18 0 -26 -14 -13 -22 -13 -22 -7 -1 4 15 0 24 -11 28
-15 6 -15 8 -1 24 9 9 29 55 44 102 40 119 50 131 75 90z m240 -180 c14 -10
35 -42 47 -70 12 -27 27 -50 34 -51 9 0 9 -2 0 -6 -7 -2 -13 -14 -13 -25 0
-48 -41 -155 -68 -179 -29 -27 -62 -43 -62 -31 1 14 27 42 33 35 4 -3 7 -1 7
5 0 7 -4 12 -8 12 -5 0 -14 12 -20 26 -7 14 -8 23 -2 19 5 -3 10 1 10 9 0 24
1 30 11 48 6 11 4 18 -6 21 -9 4 -12 1 -8 -9 3 -8 -1 -14 -11 -14 -10 0 -13 5
-9 18 6 14 4 15 -9 4 -13 -10 -12 0 4 69 16 67 17 83 6 90 -8 5 -9 9 -2 9 7 0
14 9 17 20 6 25 18 25 49 0z m249 -166 c8 -8 29 -14 46 -14 17 0 48 -12 69
-26 54 -36 124 -112 124 -134 0 -10 6 -20 14 -23 20 -8 36 -70 30 -115 -7 -47
-59 -153 -94 -189 -97 -101 -156 -140 -177 -117 -17 17 -16 24 2 24 8 0 15 9
15 20 0 10 8 24 18 29 30 18 -8 13 -74 -9 -72 -24 -93 -25 -101 -4 -5 15 -8
15 -17 2 -15 -20 -56 -33 -56 -18 0 6 4 9 8 6 13 -8 33 10 35 31 1 15 16 27
55 44 30 12 70 35 88 51 33 29 79 106 70 116 -3 3 3 12 15 20 14 10 17 18 10
25 -6 6 -8 28 -4 52 3 24 1 45 -4 48 -6 4 -13 -13 -17 -40 -6 -47 -28 -73 -55
-66 -12 3 -16 17 -16 56 -1 39 -10 72 -38 130 -20 43 -37 91 -37 107 0 28 1
28 38 18 20 -5 44 -16 53 -24z m-3867 -90 c-6 -25 -5 -26 19 -22 29 6 27 -8
-9 -57 -43 -59 -93 -185 -73 -185 5 0 9 8 9 18 0 22 114 149 123 136 3 -6 -11
-35 -32 -65 -21 -30 -42 -65 -46 -79 -4 -14 -12 -28 -17 -31 -4 -3 -10 -43
-13 -90 -3 -46 -5 -84 -6 -84 -5 0 -4 -81 2 -85 4 -3 1 -11 -7 -18 -12 -11
-14 -9 -14 7 0 11 -5 21 -12 23 -8 3 -11 25 -9 65 2 63 -13 94 -25 48 -3 -14
-9 -25 -13 -25 -10 0 -31 -80 -33 -122 -1 -24 -6 -38 -15 -38 -13 0 -17 11
-14 43 1 9 -3 17 -8 17 -6 0 -12 -12 -12 -27 -1 -17 -3 -21 -6 -10 -4 14 -23
26 -23 14 0 -19 33 -228 44 -282 8 -38 13 -71 11 -74 -3 -2 0 -10 6 -18 9 -9
8 -13 0 -13 -15 0 -49 56 -62 105 -22 80 -29 93 -25 46 3 -28 1 -40 -5 -34
-16 16 -49 153 -50 208 -2 74 -12 114 -24 95 -7 -12 -10 -10 -15 10 -10 40
-36 37 -47 -6 -4 -21 -15 -40 -22 -42 -12 -4 -13 8 -8 64 4 38 10 82 13 98 5
20 4 27 -4 22 -8 -4 -10 -2 -6 8 3 8 12 17 20 20 8 3 14 10 14 16 0 6 -4 8
-10 5 -15 -9 -13 -5 31 86 37 76 80 140 94 139 3 0 14 9 25 20 24 24 106 67
185 96 77 29 77 29 69 -2z m4174 -106 c30 -30 34 -31 43 -15 14 25 44 21 81
-11 18 -16 40 -31 49 -35 22 -7 53 -133 53 -212 1 -70 -20 -151 -40 -159 -9
-3 -14 1 -14 12 -1 15 -2 15 -10 2 -17 -30 -15 -44 5 -45 17 0 19 -6 17 -40
-2 -22 -15 -65 -29 -95 -41 -84 -153 -194 -153 -150 0 16 -14 11 -27 -10 -11
-16 -10 -18 1 -14 8 3 17 1 21 -5 8 -14 -44 -60 -67 -61 -24 0 -23 13 2 35 11
10 18 20 16 22 -6 6 -106 -30 -106 -38 0 -4 -9 -5 -20 -2 -11 3 -20 0 -20 -5
0 -8 -47 -10 -147 -8 -121 3 -151 1 -165 -11 -14 -12 -23 -13 -49 -4 -18 6
-44 11 -58 11 -26 0 -26 0 7 -20 18 -11 39 -20 47 -20 8 0 15 -4 15 -9 0 -5
13 -12 30 -16 39 -8 46 -21 16 -27 -18 -4 -23 -1 -19 9 3 8 2 13 -3 12 -9 -2
-25 3 -69 21 -59 24 -107 40 -121 40 -9 0 -27 9 -40 19 -14 11 -59 34 -101 51
-42 18 -88 40 -102 49 -14 10 -46 31 -70 47 -37 24 -41 29 -24 32 12 2 39 -6
61 -17 78 -40 310 -117 380 -126 44 -5 57 -9 64 -20 5 -7 8 -6 8 1 0 7 17 8
48 5 60 -8 144 -2 118 8 -17 7 -17 8 -2 24 16 16 13 16 -57 11 -69 -6 -79 -5
-141 25 -36 17 -71 31 -76 31 -6 0 -10 5 -10 12 0 13 183 4 224 -11 17 -7 27
-6 35 3 6 7 8 16 4 19 -3 4 -1 7 5 7 7 0 12 -6 12 -12 0 -8 3 -9 8 -3 4 6 18
12 32 13 27 4 47 18 38 27 -3 3 -17 1 -32 -4 -19 -8 -26 -7 -26 2 0 8 -4 7
-10 -3 -9 -13 -11 -13 -20 0 -5 8 -10 21 -10 29 0 9 -6 11 -17 6 -10 -4 -53
-10 -96 -13 -69 -4 -77 -3 -71 12 3 9 16 16 29 16 12 0 35 4 51 10 16 5 43 11
59 13 55 7 219 93 315 165 19 15 40 27 47 28 18 3 16 -21 -2 -36 -17 -14 -20
-40 -6 -40 19 0 72 54 88 89 8 20 26 78 39 130 13 51 26 96 29 100 4 3 13 -3
22 -14 22 -30 10 -112 -28 -192 -18 -37 -32 -71 -31 -75 1 -5 -2 -8 -8 -8 -5
0 -10 -4 -10 -10 0 -16 22 -12 36 8 13 16 13 16 14 0 0 -22 13 -23 31 -2 9 11
14 61 17 159 l4 143 -26 17 c-14 9 -24 21 -21 25 2 4 -5 16 -17 26 l-21 19 7
-46 c5 -34 3 -49 -8 -58 -19 -16 -23 -7 -35 68 -6 34 -17 75 -25 92 -19 38
-10 37 32 -3z m-3963 -147 c-3 -5 0 -13 5 -16 8 -5 6 -11 -3 -18 -10 -8 -16
-39 -19 -92 -3 -44 -3 -70 -1 -57 5 27 23 19 23 -11 1 -18 4 -16 19 12 l18 34
27 -57 c28 -59 27 -80 -2 -69 -15 6 -15 5 -4 -10 14 -16 9 -37 -8 -37 -5 0
-17 22 -27 50 -17 49 -17 49 -36 29 -15 -16 -18 -31 -14 -67 3 -26 12 -51 22
-58 11 -8 12 -13 4 -16 -19 -6 5 -91 48 -166 19 -35 33 -66 30 -68 -9 -9 -86
78 -105 120 -35 73 -54 166 -55 266 -1 96 8 145 23 135 9 -6 20 18 20 46 0 26
18 59 31 59 6 0 8 -4 4 -9z m1264 -206 c34 -30 53 -32 176 -20 113 11 185 8
205 -9 8 -8 26 -17 39 -21 35 -11 95 -54 103 -74 3 -10 32 -30 65 -45 32 -15
72 -38 88 -50 32 -25 74 -36 145 -40 67 -4 150 -34 198 -74 51 -40 97 -56 169
-55 46 1 52 -1 57 -23 4 -14 14 -24 24 -24 9 0 28 -12 41 -25 13 -14 35 -28
50 -32 53 -12 137 -61 151 -88 16 -30 46 -45 91 -45 20 0 41 -12 70 -39 39
-39 120 -85 148 -86 15 0 34 -52 25 -67 -3 -4 10 -27 29 -51 73 -92 99 -139
88 -161 -5 -12 -11 -30 -13 -41 -2 -15 -12 -21 -38 -23 -96 -6 -120 -13 -120
-32 0 -14 -10 -20 -40 -25 -25 -4 -40 -12 -40 -21 0 -8 -10 -15 -22 -15 -13
-1 -27 -2 -33 -4 -5 -1 -22 -3 -37 -3 -33 -2 -39 -31 -8 -39 29 -8 29 -92 0
-118 -15 -14 -20 -31 -20 -70 0 -45 -4 -55 -32 -82 -18 -17 -47 -38 -65 -47
-18 -9 -50 -42 -71 -74 -22 -31 -50 -66 -62 -77 -12 -11 -28 -31 -35 -45 -11
-20 -25 -27 -78 -37 -46 -9 -74 -10 -92 -3 -21 8 -43 5 -95 -10 -37 -11 -89
-20 -115 -20 -47 0 -47 0 -33 23 8 12 37 37 64 55 75 50 155 115 149 120 -3 3
-18 -6 -33 -20 -62 -58 -109 -75 -99 -38 3 11 1 20 -4 20 -5 0 -9 -4 -9 -10 0
-5 -8 -10 -17 -10 -9 0 -27 -10 -40 -22 -20 -19 -28 -21 -53 -11 -24 9 -32 8
-46 -8 -19 -21 -59 -25 -69 -8 -5 7 -13 5 -25 -6 -26 -24 -54 -15 -58 18 -2
15 -2 27 0 27 2 0 21 7 43 15 37 13 38 14 12 15 -39 0 -67 17 -67 40 0 16 7
20 34 20 19 0 36 6 39 13 4 9 7 9 18 0 10 -10 18 -8 37 9 19 18 39 24 103 29
44 3 84 10 89 15 6 6 -32 7 -98 2 -59 -3 -109 -4 -111 -2 -3 2 4 11 15 19 23
17 6 19 -33 4 -36 -14 -133 -20 -133 -9 0 15 41 38 60 33 10 -3 21 0 24 6 9
14 73 14 82 0 4 -7 17 0 35 17 24 23 40 28 91 32 82 5 103 13 58 23 -25 5 -9
7 55 7 88 0 199 12 210 24 3 3 -62 5 -144 4 l-151 -2 24 30 c39 51 82 61 181
46 97 -15 101 -13 157 67 28 42 51 54 107 58 14 1 34 3 44 3 45 4 157 141 157
192 0 28 73 89 130 108 36 12 60 27 69 44 18 32 8 58 -22 58 -32 0 -147 -53
-169 -77 -25 -27 -48 -87 -48 -125 -1 -45 -30 -106 -72 -151 -30 -31 -42 -37
-79 -37 -61 -1 -93 -18 -128 -67 -49 -68 -69 -77 -138 -62 -79 17 -122 12
-163 -19 -34 -25 -43 -34 -58 -60 -6 -8 -16 -10 -30 -5 -22 8 -22 9 9 46 21
26 37 36 47 32 9 -3 13 -3 9 1 -16 17 16 34 57 29 35 -4 37 -3 11 4 l-30 9 38
1 c26 1 36 -3 31 -10 -4 -7 0 -9 12 -5 11 3 37 1 59 -4 49 -11 71 1 115 65 35
51 65 69 130 79 24 4 59 18 77 32 18 14 38 22 45 18 7 -4 8 -3 4 5 -4 6 -1 22
7 34 7 12 17 39 20 60 3 21 17 62 30 91 26 57 104 139 124 132 22 -9 23 11 1
30 -12 11 -18 14 -15 7 4 -7 -14 -31 -44 -60 -50 -48 -90 -117 -104 -183 -17
-78 -77 -144 -142 -155 -78 -13 -103 -26 -132 -68 -53 -77 -63 -83 -130 -69
-122 25 -182 5 -241 -81 -14 -20 -41 -44 -60 -53 -19 -9 -44 -22 -55 -27 -63
-33 -76 -38 -85 -32 -22 13 -8 37 33 55 l42 19 -32 0 c-26 1 -33 5 -33 22 0
15 15 27 63 49 l62 28 -47 -5 c-33 -4 -48 -2 -48 6 0 21 82 51 140 51 30 0 91
8 135 16 44 9 103 19 130 23 l50 7 -43 22 c-29 16 -47 20 -55 14 -7 -6 -40
-16 -74 -22 -53 -11 -66 -10 -94 4 -18 9 -38 16 -46 16 -7 0 -13 4 -13 9 0 14
37 23 60 16 12 -4 41 4 75 20 47 23 65 27 119 23 62 -4 65 -3 81 24 23 40 71
62 140 63 34 1 71 7 82 14 12 6 34 11 50 11 l28 1 -27 15 c-25 13 -30 13 -55
-3 -22 -15 -51 -18 -155 -20 -70 -1 -132 -4 -138 -8 -5 -3 -20 -3 -31 0 -16 5
-20 13 -16 31 7 36 -19 30 -64 -16 -22 -22 -43 -40 -47 -40 -19 1 -34 20 -28
35 3 9 3 15 -1 13 -5 -1 -38 -18 -75 -37 -39 -19 -86 -35 -110 -36 -24 -1 -51
-6 -61 -10 -9 -4 -29 -4 -43 -1 -20 5 -25 12 -22 33 2 21 11 28 48 39 25 7 70
28 100 46 30 19 94 47 143 62 48 16 87 33 87 37 0 4 -20 1 -45 -7 -25 -9 -50
-14 -57 -11 -23 7 280 89 342 92 39 1 131 36 124 46 -3 5 12 17 33 25 73 30
103 46 103 55 0 5 -36 -9 -80 -31 -51 -26 -78 -45 -74 -52 4 -7 3 -8 -4 -4 -6
4 -51 -5 -99 -19 -48 -14 -129 -34 -179 -44 -50 -11 -116 -31 -147 -45 -66
-32 -154 -48 -194 -36 l-28 8 35 2 c19 1 44 5 55 9 12 5 -18 8 -75 7 -87 -1
-95 1 -95 18 0 15 14 23 63 36 34 9 86 33 115 52 87 58 132 77 204 88 79 11
134 28 183 59 19 11 53 21 75 22 22 1 54 5 70 9 24 6 16 8 -35 9 l-65 2 28 24
28 25 -24 9 c-19 7 -35 5 -63 -10 -40 -20 -114 -26 -114 -10 0 6 10 17 22 25
32 23 17 20 -44 -8 -29 -13 -74 -33 -101 -45 -56 -25 -130 -27 -181 -6 -35 15
-36 15 -87 -24 -28 -21 -68 -43 -89 -50 -78 -23 -161 -6 -193 40 l-17 23 -22
-21 c-56 -52 -368 -195 -368 -169 0 11 44 144 53 161 12 21 17 39 20 69 1 13
16 24 45 34 50 16 52 26 2 12 -19 -5 -35 -9 -36 -7 -1 1 5 18 14 37 8 19 17
48 19 64 1 16 12 59 23 96 l20 67 67 28 c128 52 176 75 170 81 -3 3 -14 1 -25
-5 -25 -13 -192 -81 -200 -81 -19 0 25 26 69 41 50 18 125 76 113 88 -3 3 -8
1 -12 -4 -27 -37 -152 -96 -152 -72 0 20 13 31 63 56 26 13 46 26 44 27 -2 2
-22 -5 -45 -16 -46 -23 -75 -25 -120 -9 -36 12 -57 3 -142 -61 -35 -26 -81
-48 -128 -62 -89 -26 -88 -35 2 -12 45 11 89 32 137 66 40 27 73 47 76 45 10
-11 -127 -99 -177 -113 -162 -48 -187 -58 -247 -106 -34 -26 -86 -59 -117 -73
-71 -31 -73 -42 -3 -14 50 20 96 50 145 95 24 21 162 74 194 74 25 0 86 29
141 68 29 21 47 29 47 20 0 -13 -26 -31 -100 -70 -19 -10 -28 -18 -20 -18 8 0
33 11 55 25 22 13 43 25 47 25 13 0 1 -33 -16 -45 -9 -7 -13 -15 -7 -16 20 -8
-51 -229 -73 -229 -7 0 -21 -7 -32 -16 -18 -14 -18 -15 4 -4 27 13 35 9 27
-11 -6 -13 -135 -70 -295 -128 -41 -15 -88 -35 -105 -45 -33 -19 -32 -19 110
34 56 20 111 43 123 49 13 7 52 23 88 37 53 20 64 21 64 9 0 -8 -7 -15 -15
-15 -18 0 -97 -31 -92 -36 2 -3 20 3 40 11 42 18 57 19 57 5 0 -5 -5 -10 -11
-10 -14 0 -111 -48 -124 -62 -5 -5 13 1 40 15 28 13 60 28 73 31 34 11 27 -13
-8 -28 -17 -7 -27 -16 -23 -21 5 -4 0 -5 -10 -2 -10 4 -16 3 -12 -2 3 -5 -4
-13 -16 -16 -11 -4 -18 -9 -16 -12 7 -6 70 26 79 41 11 16 10 -25 -3 -86 -6
-29 -18 -58 -26 -65 -13 -10 -14 -24 -9 -67 3 -31 2 -65 -4 -78 -21 -45 -39
-72 -62 -91 -13 -10 -16 -15 -8 -11 8 4 23 14 33 22 16 14 17 13 17 -11 0 -23
-10 -32 -67 -61 -38 -19 -64 -35 -60 -36 4 0 30 11 57 25 27 14 52 25 56 25 3
0 3 -17 0 -37 -4 -21 -7 -51 -7 -67 0 -16 -10 -41 -24 -57 -20 -25 -22 -34
-14 -61 5 -18 9 -33 9 -34 0 -6 -62 -25 -93 -29 -21 -3 -48 -12 -60 -20 -45
-32 -46 -25 -38 221 0 29 6 34 65 60 36 15 63 30 61 32 -2 2 -29 -8 -61 -22
-31 -14 -58 -26 -59 -26 -1 0 -5 8 -7 18 -5 20 -66 40 -185 63 -35 6 -63 15
-63 19 0 5 56 46 125 92 69 45 125 87 125 91 0 5 -17 -4 -37 -20 -31 -24 -88
-63 -228 -155 -6 -4 -17 -3 -23 1 -14 8 103 102 182 148 23 12 37 23 33 23
-14 0 -50 -21 -117 -70 -119 -86 -115 -85 -135 -54 -16 25 -16 26 6 42 13 10
37 25 53 34 17 10 24 17 15 18 -8 0 -30 -11 -49 -25 -19 -14 -37 -25 -41 -25
-4 0 -17 16 -28 36 -26 43 -18 57 37 74 47 15 233 102 228 107 -2 3 -35 -11
-72 -30 -38 -19 -106 -47 -152 -62 -71 -25 -85 -27 -92 -14 -7 11 2 20 36 37
59 30 52 37 -12 13 -97 -37 -108 7 -41 170 43 106 89 179 147 234 17 17 48 53
68 80 36 51 101 117 137 140 14 10 34 11 70 5 81 -14 102 -12 131 15 15 14 34
25 43 25 9 0 39 23 66 50 47 47 52 50 101 50 42 0 59 -5 83 -25z m-494 -52
c-40 -62 -137 -133 -207 -154 -36 -10 -36 -4 0 15 26 14 22 15 -68 17 -52 1
-101 1 -108 0 -6 -1 -20 3 -30 9 -14 9 -12 10 11 5 16 -3 27 -1 27 6 0 7 12 8
33 4 45 -9 16 10 -48 31 -27 9 -56 21 -62 27 -21 16 -15 27 10 18 66 -25 102
-31 183 -31 98 0 137 13 214 69 51 37 74 29 45 -16z m1665 -107 c66 -43 149
-86 167 -87 10 -1 2 -5 -17 -10 -19 -5 -46 -6 -60 -4 -34 7 -194 77 -198 87
-2 4 -9 8 -16 8 -7 0 -21 9 -31 20 -17 19 -17 19 51 14 48 -4 80 -12 104 -28z
m370 10 c30 -8 68 -19 83 -25 16 -6 32 -9 37 -6 5 3 41 0 82 -5 40 -6 88 -11
106 -12 41 -2 51 -15 17 -24 -33 -8 -198 0 -216 11 -7 5 -27 10 -44 12 -16 1
-50 7 -75 12 -79 17 -126 21 -110 11 8 -5 25 -10 38 -10 13 0 22 -6 22 -15 0
-13 -4 -14 -20 -5 -11 6 -20 8 -20 5 0 -3 -11 2 -25 11 -14 9 -22 20 -19 25 3
5 -7 9 -23 9 -22 0 -25 2 -13 10 21 14 116 12 180 -4z m-3160 -31 c-10 -12
-10 -19 -2 -27 7 -7 12 -22 12 -35 0 -13 7 -40 15 -59 8 -20 17 -63 20 -97 3
-34 2 -55 -1 -47 -3 8 -8 22 -12 30 -6 15 -7 25 -11 65 -1 17 -3 17 -11 5 -5
-8 -7 -26 -3 -40 l5 -25 -21 21 c-22 21 -51 108 -51 154 0 20 2 22 11 10 8
-11 9 -9 3 10 -4 14 -11 27 -15 28 -22 8 -6 18 33 21 37 2 40 0 28 -14z m4595
-168 c4 -15 10 -27 14 -27 11 0 6 64 -7 87 -12 21 -11 23 8 20 12 -2 27 -12
33 -24 7 -11 22 -35 34 -53 12 -18 25 -51 28 -72 4 -21 10 -40 14 -43 12 -7
-8 -121 -29 -170 -18 -43 -96 -133 -105 -123 -3 3 4 22 16 42 26 45 22 45 -24
3 -19 -19 -51 -42 -71 -51 -20 -9 -34 -21 -31 -26 11 -18 -45 -47 -97 -51
-166 -11 -259 3 -345 50 -10 6 -49 24 -88 42 -142 64 -160 73 -243 125 -46 30
-88 51 -93 48 -5 -3 -9 0 -9 5 0 6 -11 11 -25 11 -14 0 -25 5 -25 11 0 7 -8
18 -17 26 -10 8 -12 11 -4 7 9 -4 12 -3 8 3 -4 6 -21 13 -39 17 -24 5 -29 9
-19 15 16 10 67 -2 90 -23 29 -26 182 -97 193 -90 7 5 8 2 3 -6 -6 -10 -4 -12
10 -7 9 4 24 2 32 -4 10 -9 20 -9 39 0 21 9 31 8 57 -6 18 -10 35 -22 38 -27
4 -5 12 -6 18 -2 7 5 9 1 5 -8 -3 -9 -11 -13 -18 -9 -6 3 -5 0 2 -8 11 -12 14
-12 22 1 8 12 10 11 10 -5 0 -17 2 -17 10 -5 9 13 11 13 19 0 7 -10 6 -17 -2
-22 -7 -4 6 -15 34 -27 27 -12 49 -29 52 -41 4 -17 13 -20 55 -20 35 0 52 4
56 15 3 8 11 15 18 15 9 0 8 -3 -2 -10 -13 -8 -13 -10 1 -10 9 0 19 7 23 15 5
15 27 22 25 8 -4 -24 4 -25 16 -3 11 19 14 21 15 8 0 -10 2 -18 5 -18 14 0
103 50 115 65 12 14 10 15 -14 11 -15 -3 -34 -10 -42 -17 -7 -6 -21 -9 -30 -5
-8 3 -28 -1 -44 -9 -37 -19 -90 -20 -90 -1 0 9 7 12 23 9 18 -4 19 -3 7 6 -12
8 -7 11 23 11 31 0 37 3 37 21 0 17 3 19 14 10 10 -9 16 -8 26 4 7 8 18 15 24
15 11 0 69 37 127 79 18 14 29 18 25 10 -4 -7 0 -5 8 5 14 17 16 18 16 3 0
-30 18 -18 30 19 10 31 10 37 -5 48 -17 12 -17 13 4 19 16 4 21 13 21 41 0 25
-4 36 -15 36 -8 0 -15 -6 -15 -12 0 -8 -7 -5 -15 6 -13 17 -15 18 -15 3 0 -9
-6 -17 -12 -17 -7 0 -23 -11 -35 -24 -17 -17 -19 -26 -11 -34 9 -9 8 -12 -2
-12 -8 0 -25 -10 -36 -23 -12 -12 -45 -31 -74 -41 -50 -18 -52 -20 -46 -48 5
-28 4 -30 -18 -24 -13 3 -26 2 -28 -4 -4 -14 -98 -24 -98 -11 0 6 6 8 14 5 9
-3 16 4 20 21 5 21 9 23 20 13 10 -10 11 -15 2 -21 -7 -6 -6 -7 4 -4 10 2 14
13 12 30 -3 21 1 27 16 27 10 0 24 -10 30 -22 l11 -23 -2 24 c-2 19 8 29 51
52 63 32 66 35 54 43 -5 3 -26 -4 -48 -14 -41 -21 -79 -27 -69 -10 3 6 15 10
27 10 14 0 18 5 14 15 -3 10 3 16 19 20 14 3 36 7 49 10 45 9 102 75 120 138
l17 57 34 -33 c18 -18 37 -45 40 -60z m-4831 -359 c5 -28 12 -38 25 -38 11 0
24 -12 31 -31 7 -17 24 -47 37 -66 13 -20 22 -38 18 -41 -3 -3 2 -13 10 -22 9
-10 18 -34 20 -55 4 -30 2 -36 -10 -31 -16 6 -15 -13 6 -78 13 -40 4 -44 -29
-12 l-29 27 20 -62 c17 -50 18 -65 8 -81 -10 -17 -9 -20 8 -25 16 -4 21 -13
21 -42 0 -23 -3 -31 -9 -23 -14 22 -23 -15 -15 -65 7 -47 -1 -56 -17 -20 -7
16 -8 7 -5 -38 3 -33 10 -61 16 -63 5 -2 10 -9 10 -15 0 -7 -6 -5 -14 3 -25
27 -50 124 -53 205 -1 44 -2 80 -3 80 -1 0 -3 16 -6 35 -2 19 -7 55 -11 80 -6
43 -7 44 -14 15 -5 -22 -7 -13 -8 36 -1 44 -9 89 -25 131 -35 92 -42 173 -21
223 18 45 27 38 39 -27z m3969 26 c48 -25 159 -104 187 -134 14 -15 40 -35 58
-44 23 -12 32 -22 28 -33 -5 -11 -2 -14 10 -9 12 5 15 2 10 -11 -4 -10 -4 -14
-1 -11 4 4 26 -12 49 -35 24 -23 55 -52 70 -65 15 -12 24 -27 21 -32 -3 -6 -2
-10 3 -10 6 0 8 -9 5 -20 -3 -12 0 -20 6 -20 7 0 9 5 6 10 -9 15 -4 13 76 -25
41 -19 61 -32 44 -28 -16 3 -34 10 -39 14 -6 5 -19 9 -30 8 -12 0 -15 -3 -8
-6 6 -2 10 -8 7 -13 -7 -11 -70 4 -70 17 0 6 -3 15 -7 19 -5 4 -8 2 -8 -4 0
-6 -7 -9 -16 -5 -8 3 -13 11 -10 19 3 7 -3 18 -12 26 -15 12 -16 11 -3 -4 7
-10 9 -18 4 -18 -13 0 -65 55 -58 62 3 2 -1 5 -9 5 -18 0 -73 44 -81 65 -10
29 -142 169 -191 203 -27 19 -65 48 -84 64 -33 28 -33 30 -12 31 13 0 37 -7
55 -16z m1040 -112 c45 -46 67 -111 67 -196 0 -127 -55 -252 -121 -275 -40
-14 -46 -9 -25 21 20 28 20 42 1 34 -18 -6 -18 -7 -4 33 6 17 15 31 20 31 5 0
9 6 9 13 0 6 -12 0 -25 -16 -23 -26 -85 -49 -85 -31 1 16 27 44 40 44 7 0 11
3 8 6 -4 3 0 17 8 32 7 15 9 29 4 32 -5 3 4 25 21 49 16 24 29 54 29 67 0 12
2 28 3 36 2 7 2 10 0 6 -2 -4 -29 -28 -59 -54 -41 -35 -58 -44 -67 -35 -7 7
-7 11 0 11 22 0 123 177 123 216 0 23 14 16 53 -24z m-3838 -311 c-4 -18 -1
-32 8 -39 8 -7 12 -23 9 -37 -4 -22 -1 -25 22 -25 31 0 32 -8 10 -80 -9 -29
-14 -64 -11 -77 3 -15 -1 -23 -9 -23 -8 0 -14 -8 -14 -17 0 -15 2 -16 10 -3 7
10 10 -8 10 -60 0 -52 -3 -70 -10 -60 -5 8 -7 24 -4 35 4 16 3 17 -5 5 -9 -13
-11 -13 -11 2 0 9 5 20 10 23 6 3 10 11 10 16 0 6 -4 8 -8 5 -9 -6 -43 30 -36
37 3 2 -2 7 -11 11 -9 3 -14 2 -11 -2 2 -4 0 -14 -6 -22 -8 -12 -9 -12 -4 3 3
9 1 17 -4 17 -6 0 -5 11 1 27 5 15 8 37 4 50 -3 12 0 25 7 30 20 13 17 63 -4
63 -9 0 -19 4 -22 8 -8 13 8 28 29 27 18 0 20 8 23 63 2 39 7 60 13 56 6 -3 7
-18 4 -33z m3329 -63 c76 3 105 1 111 -8 6 -10 -2 -11 -39 -6 -54 8 -59 1 -13
-19 17 -8 25 -14 17 -15 -8 0 -28 7 -45 16 -20 10 -31 12 -33 4 -3 -8 -8 -8
-18 1 -8 6 -14 8 -14 4 0 -4 -6 -2 -14 4 -10 8 -16 9 -21 2 -5 -10 93 -81 112
-81 4 0 19 -10 33 -21 17 -15 19 -19 7 -15 -12 4 -16 2 -11 -5 4 -8 -1 -9 -17
-5 -19 6 -15 -2 22 -36 60 -57 190 -120 244 -120 15 0 25 -6 25 -14 0 -23
-106 -17 -171 9 -61 26 -185 105 -216 140 -35 38 -81 136 -75 160 3 12 7 17 9
11 2 -7 39 -9 107 -6z m632 -14 c24 -24 26 -30 23 -107 -4 -73 -8 -88 -36
-133 -18 -28 -33 -55 -33 -60 0 -5 14 -15 30 -21 26 -10 30 -16 30 -50 0 -62
-49 -152 -116 -211 -32 -28 -65 -52 -71 -52 -7 0 -13 -7 -13 -15 0 -17 -9 -19
-28 -6 -11 6 -6 17 19 47 18 22 27 33 19 27 -21 -19 -28 -16 -25 11 3 19 -1
23 -13 18 -15 -5 -16 -4 -2 13 14 19 14 19 -10 4 -34 -21 -62 -31 -55 -19 3 6
12 10 19 10 7 0 23 11 35 24 23 24 23 25 2 19 -36 -9 -23 11 32 47 28 19 66
48 82 64 l30 29 -42 -21 c-34 -18 -47 -20 -72 -11 -17 6 -31 15 -31 19 0 5 19
23 43 42 44 34 68 60 61 67 -2 2 -12 -2 -21 -10 -10 -8 1 7 24 33 42 47 60 85
50 110 -3 7 -6 3 -6 -8 -1 -23 -27 -51 -38 -41 -3 4 6 33 20 64 14 32 28 74
32 93 12 60 22 64 61 24z m-3037 -38 c17 -24 43 -54 58 -67 15 -14 45 -51 66
-83 l39 -58 -69 -64 c-71 -66 -99 -77 -106 -44 -4 18 -5 18 -5 -2 0 -42 -2
-45 -27 -45 -21 0 -25 4 -26 31 -1 29 -2 28 -9 -8 -8 -43 -63 -99 -169 -173
l-54 -37 -43 49 c-74 83 -76 114 -22 290 22 73 48 117 48 80 0 -22 10 -14 14
11 2 10 14 24 27 32 21 13 22 13 7 -1 -24 -20 -23 -30 2 -15 11 7 20 18 20 24
0 6 7 17 15 24 13 10 15 9 15 -12 0 -13 -7 -35 -16 -48 l-16 -25 21 24 c12 13
21 36 21 51 0 22 9 32 49 53 54 30 65 33 55 15 -4 -7 6 -1 22 15 16 15 34 27
41 27 7 0 26 -20 42 -44z m-465 -193 c-6 -98 -18 -150 -39 -173 -11 -12 -16
-29 -13 -45 3 -14 -1 -30 -8 -36 -8 -6 -14 -23 -14 -37 0 -16 -4 -22 -9 -17
-17 19 -91 172 -97 202 -6 29 -3 32 42 54 51 25 133 79 120 79 -5 0 -20 -8
-34 -19 -35 -24 -108 -61 -122 -61 -5 0 -10 12 -10 28 0 33 51 72 96 72 16 1
43 7 59 15 17 7 31 14 32 14 1 1 0 -33 -3 -76z m-279 6 c9 -17 14 -33 12 -36
-3 -2 -1 -18 3 -34 5 -17 5 -29 -1 -29 -5 0 -9 11 -9 25 0 14 -5 25 -10 25 -6
0 -10 -19 -8 -45 3 -48 8 -54 28 -30 7 8 16 12 22 9 5 -3 6 6 3 23 -5 21 -4
24 4 13 16 -23 13 -77 -5 -84 -8 -3 -13 -2 -10 2 3 5 -1 9 -8 9 -8 0 -12 -7
-8 -15 4 -11 1 -13 -8 -7 -8 5 -11 3 -8 -6 3 -8 12 -13 19 -12 9 2 15 -5 15
-17 0 -11 -3 -20 -7 -20 -12 0 -40 50 -34 60 3 6 2 10 -3 10 -5 0 -12 29 -14
65 -2 35 -7 68 -11 72 -13 13 -26 -19 -16 -38 12 -24 12 -109 -1 -109 -5 0
-10 4 -10 9 0 4 -13 7 -30 5 -34 -4 -38 8 -15 52 l15 29 0 -30 c1 -34 13 -20
24 29 7 27 6 28 -10 15 -16 -12 -17 -12 -9 1 12 22 66 90 71 90 2 0 11 -14 19
-31z m-51 -178 c12 -1 16 -6 12 -16 -3 -8 0 -14 7 -12 19 3 48 -63 36 -84 -5
-10 -16 -42 -23 -71 -10 -37 -15 -45 -15 -25 -1 15 -7 27 -14 27 -7 0 -18 9
-25 21 -8 12 -19 18 -28 15 -12 -4 -14 8 -13 73 1 73 2 77 23 75 11 -1 29 -3
40 -3z m-954 -141 c0 -5 5 -10 11 -10 5 0 8 4 4 10 -9 14 63 6 78 -9 10 -11 4
-13 -29 -8 -55 6 -74 -12 -64 -58 5 -21 3 -38 -4 -45 -8 -10 -7 -11 4 -8 8 3
31 -1 50 -9 20 -8 46 -11 65 -7 l30 6 -20 -22 c-16 -18 -27 -21 -57 -17 -21 3
-38 1 -38 -3 0 -20 61 -22 93 -4 6 4 3 -3 -8 -15 -15 -17 -26 -21 -48 -17 -19
4 -34 0 -45 -11 -16 -16 -16 -16 5 -11 13 3 26 2 29 -3 3 -5 14 -9 25 -9 16 0
18 -3 9 -19 -9 -17 -6 -20 20 -23 l30 -3 -40 -53 c-42 -56 -55 -94 -17 -52 12
14 31 27 42 28 21 4 22 6 -39 -70 -20 -27 -34 -48 -29 -48 4 0 21 16 36 36 16
19 31 33 34 30 3 -3 -24 -42 -60 -87 -53 -65 -69 -94 -83 -148 -26 -99 -25
-99 -77 -32 -26 32 -47 64 -47 70 0 6 -6 11 -12 11 -22 0 -56 94 -71 194 -5
31 10 96 22 96 4 0 16 -6 26 -14 14 -10 25 -11 47 -2 28 10 32 8 71 -34 23
-25 49 -56 58 -69 13 -21 17 -22 36 -10 22 13 22 13 -7 31 -16 9 -36 31 -45
48 -8 16 -21 30 -29 30 -7 0 -23 11 -35 24 -19 20 -21 28 -12 44 17 33 13 51
-19 84 -19 19 -30 40 -30 58 0 16 -5 32 -12 36 -8 5 -9 -4 -5 -32 8 -49 -4
-74 -27 -55 -8 7 -20 10 -27 6 -31 -20 38 103 76 135 19 16 45 22 45 11 0 -3
-7 -17 -16 -29 -8 -12 -11 -22 -5 -22 5 0 12 -14 16 -30 4 -17 11 -27 17 -24
5 3 8 14 5 23 -4 15 16 45 24 36 2 -2 4 13 5 32 0 19 7 39 15 44 19 12 29 11
29 -1z m3140 -215 l0 -155 -45 0 c-52 0 -102 -18 -127 -46 -9 -11 -35 -53 -57
-95 -35 -66 -50 -81 -100 -112 -32 -20 -69 -52 -82 -72 -23 -33 -92 -75 -124
-75 -9 0 -43 -11 -77 -25 -79 -32 -105 -32 -190 6 -38 17 -82 29 -97 27 -31
-3 -61 16 -61 39 0 7 -7 16 -15 19 -28 11 -15 33 25 45 44 13 51 24 20 32 -31
8 -24 35 15 58 40 24 44 29 15 22 -21 -6 -28 11 -10 22 6 4 48 9 93 12 45 3
84 9 85 14 5 13 66 11 79 -2 8 -8 23 -4 54 12 40 20 53 21 149 16 71 -4 99 -3
88 4 -10 5 -97 14 -195 19 -98 5 -179 10 -180 10 -2 0 -3 4 -3 10 0 19 64 42
122 44 l60 2 60 67 c72 81 123 110 195 111 28 1 49 4 46 9 -8 13 51 29 85 23
29 -4 40 0 73 31 21 20 37 38 34 41 -2 3 -10 0 -17 -6 -7 -5 -34 -13 -61 -17
-26 -4 -50 -11 -53 -16 -3 -5 -10 -9 -16 -9 -6 0 -5 7 3 17 23 27 131 73 172
73 l37 0 0 -155z m-2295 -33 c19 -40 53 -90 75 -112 22 -22 40 -49 40 -60 0
-12 7 -34 15 -50 9 -18 11 -31 5 -35 -6 -3 -10 -10 -10 -15 0 -5 25 2 55 16
65 28 65 28 65 9 0 -8 -4 -15 -9 -15 -5 0 -33 -16 -62 -37 -30 -20 -72 -40
-94 -44 -22 -4 -75 -14 -117 -22 -43 -8 -78 -13 -78 -11 0 10 77 34 107 34 32
0 81 19 111 43 10 8 10 14 -1 31 -7 12 -17 30 -20 41 -7 20 -7 20 8 1 8 -11
18 -17 22 -13 3 4 -1 15 -9 24 -9 10 -21 37 -27 61 -7 23 -16 42 -21 42 -6 0
-6 -10 0 -26 13 -33 13 -47 0 -39 -15 9 -13 2 15 -61 14 -31 25 -58 25 -60 0
-6 -103 -34 -125 -34 -17 0 -28 12 -44 48 -33 72 -51 100 -51 80 0 -9 5 -29
11 -45 24 -59 28 -94 12 -100 -8 -3 -19 -1 -24 4 -8 8 -38 108 -56 183 -5 25
-5 25 11 5 16 -19 17 -19 11 12 -6 29 7 70 25 83 12 8 64 114 61 124 -3 12 22
27 31 18 4 -4 23 -40 43 -80z m1744 -34 c-35 -51 -57 -69 -97 -80 -20 -6 -56
-23 -79 -39 -32 -22 -53 -29 -91 -29 -92 0 -107 20 -39 50 55 24 123 35 132
21 3 -6 11 -11 18 -11 6 0 2 7 -9 15 -19 14 -18 14 4 15 12 0 22 -5 22 -11 0
-5 5 -7 10 -4 6 4 8 11 5 16 -4 5 -2 9 4 9 5 0 12 -5 14 -10 3 -6 4 -5 3 2 -3
16 49 60 88 74 17 7 32 12 34 13 2 0 -7 -14 -19 -31z m-90 -12 c-18 -15 -55
-28 -115 -40 -49 -10 -108 -29 -132 -43 -31 -17 -47 -22 -56 -14 -8 7 -33 7
-77 0 -51 -8 -81 -7 -139 5 -40 9 -75 18 -78 21 -14 14 21 25 108 35 92 10
252 34 335 50 22 4 72 8 110 8 l70 1 -26 -23z m627 -113 c18 -3 35 0 38 6 4 6
27 11 50 11 57 0 96 -34 96 -83 0 -43 12 -53 74 -60 41 -4 56 -12 88 -46 22
-23 44 -41 49 -41 5 0 9 -5 9 -11 0 -5 -6 -7 -12 -3 -9 5 -9 2 1 -9 20 -25 3
-21 -31 8 -38 32 -70 40 -109 26 -55 -19 -85 -14 -111 19 -13 17 -34 44 -47
61 -31 39 -21 47 26 20 l38 -22 -28 25 c-15 14 -45 30 -67 36 -73 20 -162 -21
-175 -80 -3 -16 -19 -44 -34 -63 -15 -19 -35 -54 -45 -78 -36 -89 -52 -113
-86 -132 -57 -32 -108 -40 -177 -26 l-61 12 31 17 c18 9 46 20 62 24 49 12 75
34 95 82 13 29 29 48 45 54 37 14 48 12 41 -6 -3 -8 -2 -12 4 -9 6 3 10 2 10
-4 0 -5 -5 -11 -12 -13 -8 -3 -9 -6 -1 -11 5 -3 15 5 22 19 6 15 7 23 1 19
-21 -13 -9 8 16 28 22 17 25 26 21 53 -3 19 -1 36 4 39 5 4 9 12 9 18 0 7 -4
6 -10 -3 -8 -13 -10 -13 -10 2 0 10 9 22 20 28 11 6 20 17 20 25 0 8 14 31 32
50 26 30 36 36 57 30 14 -3 40 -9 57 -12z m-2790 -127 c-3 -13 -22 -46 -42
-71 -19 -26 -30 -45 -22 -43 7 2 29 25 48 51 19 25 36 44 38 42 11 -11 -65
-108 -102 -130 -22 -14 -34 -25 -25 -25 9 0 28 9 42 20 34 27 50 26 40 -2 -9
-28 -9 -70 2 -94 4 -11 9 -32 10 -49 1 -16 5 -61 8 -100 5 -49 4 -63 -3 -47
-5 12 -16 25 -25 28 -8 4 -15 12 -15 20 0 10 -6 11 -25 4 -21 -8 -34 -5 -68
17 -52 34 -128 92 -144 111 -16 19 2 69 36 99 14 12 20 23 14 23 -7 0 -13 -5
-13 -12 0 -6 -3 -9 -6 -5 -4 3 4 19 16 34 17 20 21 22 16 8 -5 -14 3 -10 30
15 l36 35 -16 -32 c-9 -18 -16 -34 -16 -35 0 -2 42 35 92 83 51 48 95 86 97
84 2 -2 1 -15 -3 -29z m1772 7 c29 -7 25 -33 -8 -51 -31 -16 -159 -10 -210 11
-19 8 -44 17 -55 22 l-20 7 20 8 c22 9 236 11 273 3z m1018 -80 c17 -34 36
-68 42 -75 8 -10 8 -26 0 -58 -6 -27 -8 -97 -4 -177 l6 -132 -34 -39 c-34 -37
-109 -82 -139 -82 -10 0 -17 13 -22 39 -4 26 -17 49 -40 70 -40 36 -53 38 -88
11 -27 -22 -44 -95 -49 -213 l-3 -57 -35 24 -35 24 -36 -42 c-46 -53 -74 -96
-62 -96 5 0 16 12 25 28 9 15 27 37 41 50 l24 23 38 -98 c21 -54 46 -113 57
-131 14 -23 20 -51 20 -95 0 -34 8 -95 18 -134 10 -40 16 -73 14 -73 -1 0 -14
5 -28 11 -19 9 -35 8 -75 -7 -28 -10 -51 -22 -51 -26 0 -12 22 -9 54 7 41 22
67 19 106 -13 51 -41 65 -44 103 -18 18 13 47 26 63 30 16 4 41 18 55 32 25
24 26 24 43 5 10 -11 24 -17 32 -14 8 3 14 -1 14 -11 0 -9 -7 -16 -15 -16 -19
0 -19 -9 2 -32 15 -17 15 -18 -2 -18 -11 0 -15 -5 -12 -15 5 -11 1 -12 -19 -5
-48 19 -77 12 -119 -30 l-41 -40 -32 30 c-42 38 -65 38 -138 -1 -52 -27 -59
-34 -55 -57 1 -15 14 -37 27 -49 24 -22 32 -67 14 -78 -6 -4 -8 -11 -4 -16 3
-5 0 -16 -6 -24 -7 -8 -9 -15 -5 -15 15 0 44 46 39 63 -9 29 13 19 36 -18 l21
-35 -27 -35 c-15 -20 -36 -43 -48 -50 -11 -8 -17 -17 -14 -20 3 -3 21 7 39 22
20 16 27 19 17 7 -29 -34 -20 -40 12 -9 20 19 28 35 24 47 -3 10 -1 18 5 18
25 0 12 -39 -29 -83 -25 -27 -46 -58 -46 -68 -2 -25 3 -24 43 7 28 21 34 23
39 10 8 -22 -20 -48 -35 -33 -8 8 -11 6 -11 -7 0 -12 -5 -16 -14 -13 -8 3 -17
1 -19 -6 -3 -8 -20 -1 -51 20 -54 38 -63 27 -10 -13 31 -24 34 -29 18 -34 -10
-4 -36 -3 -58 2 -23 4 -57 11 -76 15 -19 3 -38 10 -41 16 -10 15 -29 -2 -23
-21 5 -13 4 -14 -4 -3 -8 11 -17 7 -46 -21 -20 -19 -36 -42 -36 -50 0 -9 -6
-21 -14 -28 -8 -6 -13 -17 -10 -25 5 -11 -73 -95 -97 -103 -5 -2 -9 -8 -9 -14
0 -14 -24 -35 -36 -31 -6 2 -17 -3 -24 -12 -7 -8 -23 -15 -35 -15 -26 0 -37
-19 -40 -70 -4 -47 -35 -122 -49 -117 -12 5 -12 9 -1 42 4 14 2 12 -9 -5 -13
-22 -15 -23 -21 -8 -4 10 -12 18 -18 18 -6 0 -19 8 -30 17 -16 14 -19 15 -15
3 2 -8 14 -19 25 -25 12 -5 26 -19 32 -32 6 -13 14 -23 18 -24 5 0 16 -2 26
-4 10 -2 20 2 23 8 5 15 116 15 121 0 5 -15 -66 -26 -146 -24 -71 1 -83 5 -74
26 6 18 -8 20 -25 3 -9 -9 -17 1 -37 43 -15 32 -25 46 -25 33 0 -20 -45 -72
-55 -62 -3 2 4 13 15 23 11 10 20 23 20 29 0 5 -21 -10 -46 -34 l-46 -45 22
43 c13 24 20 45 17 48 -3 3 -24 8 -46 11 -32 4 -46 1 -62 -13 -19 -17 -20 -17
-13 2 7 18 7 18 -16 -1 l-23 -20 14 22 c7 12 10 26 5 30 -4 4 -12 0 -17 -10
-12 -21 -62 -23 -82 -2 -8 8 -17 11 -21 8 -3 -4 -6 4 -6 17 0 19 -2 20 -15 10
-10 -9 -15 -9 -15 -1 0 6 -6 10 -12 9 -8 -2 -13 8 -13 26 0 16 -5 31 -12 33
-15 6 -56 90 -49 102 3 5 -1 14 -9 21 -8 7 -15 19 -15 26 0 24 42 94 56 94 10
0 11 6 5 23 -5 12 -5 31 0 42 4 11 8 30 8 43 1 17 -5 22 -24 22 -31 0 -33 20
-2 21 49 1 102 10 112 19 6 5 70 9 142 9 117 0 223 14 223 29 0 3 -8 14 -17
25 -13 15 -15 21 -5 24 6 3 12 11 12 18 0 14 45 29 60 20 6 -4 10 -2 10 3 0 5
-66 12 -147 15 -82 3 -159 10 -173 15 -24 10 -23 11 11 11 23 1 39 7 43 16 3
8 13 15 21 15 19 0 45 23 45 40 0 6 -5 8 -11 4 -20 -12 -68 -14 -75 -3 -3 6
-16 14 -28 19 -18 7 -22 14 -18 38 3 23 0 30 -17 35 -12 3 -21 10 -21 17 0 6
4 9 9 6 5 -3 11 1 15 9 3 9 19 15 38 16 18 1 25 3 16 6 -10 2 -18 9 -18 14 0
7 239 15 380 12 14 0 90 -2 170 -3 80 -1 134 -5 120 -9 l-25 -7 25 -5 c27 -5
74 13 63 24 -3 4 1 7 9 7 32 0 38 24 17 66 -71 133 -276 361 -345 384 -29 10
-59 10 -143 0 -96 -12 -115 -11 -179 4 -70 18 -72 18 -135 -3 -36 -12 -90 -37
-120 -55 -86 -52 -249 -186 -291 -239 -37 -46 -43 -83 -11 -71 12 5 15 -2 15
-35 0 -50 29 -99 96 -161 64 -60 131 -105 207 -140 76 -36 69 -38 -15 -6 -105
40 -206 93 -239 126 l-31 31 -14 -27 c-8 -14 -14 -34 -14 -43 0 -9 -4 -21 -9
-26 -5 -6 -11 -28 -13 -50 -2 -27 -8 -40 -18 -40 -17 0 -58 58 -67 94 -3 14
-10 29 -15 32 -5 3 -4 17 1 32 7 17 7 28 0 32 -5 4 -7 22 -3 41 4 22 2 34 -5
34 -6 0 -11 11 -11 25 0 14 -7 36 -14 48 -43 64 -33 208 15 244 10 7 22 35 29
63 7 27 17 50 22 50 6 0 8 18 4 47 -4 35 -1 52 10 64 9 10 17 29 18 42 0 14 5
23 9 20 5 -3 6 -11 3 -18 -8 -21 21 -25 38 -6 10 11 37 21 67 24 77 9 121 28
116 49 -3 10 -1 21 4 24 5 3 9 14 9 25 0 18 72 99 88 99 4 -1 19 -18 34 -40
22 -32 25 -44 18 -69 -11 -41 3 -40 21 2 14 32 55 58 113 72 26 5 28 4 17 -9
-8 -9 -11 -16 -8 -16 3 0 13 -3 23 -7 11 -4 15 -3 11 4 -9 15 49 63 75 63 34
0 58 29 58 70 0 32 5 39 35 56 21 11 38 29 42 44 9 36 60 108 81 113 9 2 71 4
138 3 l121 -1 31 -32 c18 -17 29 -33 24 -36 -4 -2 -1 -2 6 -1 6 2 18 1 26 -2
22 -9 -1 -80 -37 -110 -30 -25 -39 -26 -99 -8 -14 4 -18 -1 -19 -23 -1 -15 -1
-31 0 -35 2 -11 -6 -10 -39 7 -32 17 -33 18 -30 82 1 35 -3 44 -24 58 -16 11
-33 14 -43 10 -10 -4 -33 -9 -52 -10 -20 -2 -45 -15 -63 -32 -28 -27 -29 -30
-22 -94 6 -60 4 -69 -15 -88 -13 -13 -34 -21 -55 -21 -30 0 -34 -3 -38 -32 -3
-20 0 -38 8 -46 12 -11 14 -11 12 5 -3 41 2 53 25 53 32 0 67 27 83 64 10 25
13 27 14 10 0 -12 -9 -33 -20 -47 -11 -14 -20 -32 -20 -40 0 -8 -10 -17 -22
-20 -30 -8 -19 -16 13 -10 17 3 28 14 35 35 12 38 29 37 29 -2 0 -33 5 -36 23
-18 9 9 12 9 12 0 0 -7 4 -12 9 -12 5 0 7 9 4 20 -3 11 -8 20 -12 20 -9 0 -41
66 -41 86 0 8 -9 33 -20 55 l-21 40 30 29 c16 17 39 30 50 30 25 0 51 -36 51
-71 0 -17 9 -32 23 -42 12 -8 36 -35 51 -60 16 -25 33 -44 38 -41 5 4 7 11 5
18 -2 6 -8 22 -12 36 -7 22 -6 23 9 11 9 -7 16 -19 16 -26 0 -7 24 -16 60 -22
51 -8 61 -7 65 6 3 9 25 37 49 63 24 25 60 71 80 101 43 65 78 82 141 67 63
-15 110 -12 136 9 14 10 40 26 60 34 52 22 77 63 89 148 6 40 16 80 24 88 7 9
19 31 26 49 18 47 40 37 76 -35z m-2082 10 c10 -21 23 -46 28 -56 15 -30 3
-30 -16 -1 -10 14 -20 23 -23 20 -3 -2 5 -19 17 -36 12 -16 20 -36 18 -42 -2
-6 -10 3 -17 20 -8 18 -19 32 -27 32 -9 0 -5 -13 11 -42 24 -42 34 -95 16 -84
-4 3 -14 26 -21 51 -7 25 -16 45 -20 45 -9 0 6 -63 23 -95 10 -19 9 -19 -10
-2 -11 9 -30 39 -43 67 -40 85 -34 47 9 -60 46 -115 56 -180 13 -85 -36 79
-75 141 -80 126 -2 -6 5 -27 16 -45 45 -76 90 -247 65 -246 -7 0 -42 78 -119
260 -11 28 -24 53 -29 58 -12 12 4 -38 35 -103 15 -33 40 -91 54 -130 15 -38
31 -80 36 -93 12 -28 13 -72 2 -72 -11 0 -53 103 -108 265 -43 128 -64 176
-64 149 0 -6 13 -49 29 -97 27 -78 28 -87 12 -87 -16 0 -47 69 -81 183 -11 34
-3 38 110 68 60 15 89 28 103 45 26 33 39 30 61 -13z m2608 -50 c0 -10 0 -28
-1 -39 -1 -23 21 -42 79 -64 19 -7 39 -17 44 -21 8 -7 -50 -113 -83 -153 -17
-20 -16 -24 -39 131 -10 65 -22 79 -23 27 l-1 -39 -9 30 c-10 30 -6 116 6 135
10 16 25 12 27 -7z m-1907 -117 c-16 -13 -42 -27 -56 -30 -44 -9 -91 -57 -122
-126 -30 -65 -112 -190 -126 -190 -4 0 -14 11 -21 25 -7 13 -19 25 -26 27 -9
2 2 26 31 73 25 39 45 74 45 79 0 26 43 94 69 109 36 21 163 56 206 56 l30 1
-30 -24z m2111 14 c12 -12 -52 -148 -85 -184 -12 -12 -21 -25 -21 -29 0 -11
58 48 95 98 28 37 31 44 11 26 -31 -29 -34 -18 -6 27 21 34 34 40 47 20 10
-16 78 -68 120 -93 18 -10 34 -26 36 -34 3 -9 5 -5 6 9 2 24 2 24 16 6 8 -11
15 -16 15 -12 0 5 7 3 15 -4 12 -10 11 -18 -10 -60 -14 -27 -36 -66 -51 -87
-14 -21 -39 -64 -56 -96 -53 -106 -255 -282 -302 -264 -19 7 -26 93 -13 152 6
28 10 53 9 57 -1 4 18 19 42 33 25 14 57 43 72 63 l27 37 -34 -31 c-43 -39
-94 -74 -108 -74 -6 0 -11 9 -11 20 0 11 4 20 8 20 11 0 59 44 117 110 40 45
36 42 -26 -17 -41 -40 -80 -73 -87 -73 -23 0 -12 35 17 52 16 9 35 27 41 40 9
18 5 16 -20 -9 -17 -18 -35 -33 -41 -33 -20 0 -7 25 34 63 29 27 34 36 17 27
-14 -7 -35 -22 -47 -33 -41 -37 -17 37 41 128 104 162 109 168 132 145z
m-1918 -45 c51 -34 87 -88 74 -112 -17 -31 -70 -76 -81 -68 -7 3 -30 43 -52
87 l-41 81 24 18 c30 24 32 24 76 -6z m-1105 -136 c-3 -11 -13 -25 -22 -32
-38 -28 -141 -175 -141 -201 0 -19 36 1 89 50 62 57 73 74 46 74 -8 0 -12 -6
-9 -13 3 -8 -17 -32 -46 -56 -27 -23 -50 -39 -50 -36 0 18 36 65 46 61 7 -3
20 5 31 16 16 20 17 21 1 15 -32 -11 -19 2 20 22 35 18 74 71 52 71 -5 0 -12
-9 -15 -20 -4 -11 -20 -27 -37 -36 l-30 -15 23 30 c13 17 26 31 29 31 4 0 12
12 19 27 16 35 26 19 36 -56 7 -50 6 -53 -13 -47 -31 10 -58 -36 -134 -231
-12 -29 -24 -53 -28 -53 -17 0 -19 33 -5 63 15 30 15 31 -1 10 -19 -26 -33
-28 -58 -10 -17 12 -17 16 2 73 36 108 62 156 110 206 26 27 51 60 55 74 7 19
12 22 22 14 7 -6 11 -20 8 -31z m2455 -102 c6 0 12 -5 12 -10 0 -5 -7 -6 -16
-3 -15 6 -15 2 4 -54 4 -12 2 -13 -9 -2 -7 6 -16 12 -20 12 -13 0 -20 -33 -9
-40 7 -4 8 -18 5 -33 -7 -25 -8 -26 -31 -10 -19 12 -28 13 -37 4 -8 -8 -6 -11
10 -11 12 0 25 -5 28 -10 4 -7 -3 -9 -22 -4 -27 6 -27 6 -8 -9 17 -14 17 -16
4 -17 -9 0 -26 8 -38 18 l-21 17 26 70 c28 77 37 87 74 79 21 -5 22 -4 10 6
-12 10 -12 11 5 5 11 -4 26 -8 33 -8z m-394 -78 c8 -69 -2 -172 -15 -163 -5 3
-9 -9 -9 -25 0 -35 19 -43 21 -8 2 29 18 -49 18 -88 0 -25 -1 -27 -10 -12 -6
10 -28 29 -50 42 l-39 25 0 78 c0 49 4 72 9 63 5 -8 7 -28 4 -45 -3 -17 0 -47
5 -66 10 -34 10 -34 11 20 1 42 4 51 13 42 21 -21 28 -13 28 26 0 26 -7 45
-20 57 -19 18 -20 17 -21 -6 -1 -18 -3 -16 -9 11 -10 42 -3 80 19 97 30 23 38
14 45 -48z m249 -21 c-9 -23 -32 -65 -50 -92 -18 -28 -33 -56 -33 -62 0 -6
-17 -16 -39 -22 -21 -7 -44 -19 -51 -27 -15 -18 -7 -19 23 -4 22 10 22 10 2
-6 -11 -8 -26 -23 -32 -32 -11 -15 -13 -12 -13 18 0 33 5 38 50 63 66 36 76
54 11 22 -28 -14 -54 -26 -58 -26 -4 0 -9 18 -10 40 l-3 40 72 35 c39 19 87
49 107 65 20 16 37 29 38 30 2 0 -5 -19 -14 -42z m5 -120 c-9 -5 -6 -8 9 -8
31 0 35 -12 17 -61 -16 -47 -54 -202 -54 -222 1 -29 19 21 26 68 8 59 52 175
66 175 17 0 4 -67 -41 -207 -56 -175 -57 -176 -104 -115 -42 55 -43 61 -23
123 7 24 21 79 31 123 13 60 22 80 36 83 11 3 19 9 19 14 0 5 -6 6 -14 3 -11
-4 -11 1 -2 30 10 33 12 34 29 19 13 -13 15 -18 5 -25z m-2463 -88 c21 -16 33
-30 26 -30 -6 0 -11 -4 -11 -10 0 -5 9 -10 21 -10 12 0 17 4 13 11 -4 8 3 9
22 5 16 -3 46 -7 67 -8 20 -1 37 -4 37 -6 0 -2 -20 -27 -45 -54 -25 -28 -45
-54 -45 -59 0 -14 -57 -39 -88 -39 l-29 0 -6 81 c-4 45 -12 87 -18 95 -11 14
-4 54 10 54 5 0 25 -13 46 -30z m2965 -76 c-5 -16 -17 -54 -25 -84 -48 -160
-181 -473 -255 -595 -20 -33 -39 -67 -43 -75 -11 -24 -30 -52 -55 -79 -13 -15
-32 -42 -44 -61 -28 -45 -107 -140 -118 -140 -4 0 -16 12 -25 27 -18 26 -17
27 9 50 15 13 25 27 22 32 -8 12 23 23 37 14 8 -4 7 -1 -1 9 -7 8 -9 23 -6 32
6 15 8 15 24 1 16 -14 18 -13 30 14 6 16 9 35 4 42 -5 9 -2 10 9 6 11 -4 17
-1 17 8 0 8 5 15 10 15 6 0 10 12 10 26 0 14 4 22 10 19 6 -3 7 1 4 9 -3 9 -2
16 3 16 6 0 10 12 10 28 -1 15 1 34 4 42 2 9 -4 16 -19 18 -27 4 -39 27 -24
45 21 27 24 58 7 78 -17 18 -17 19 1 26 26 9 43 34 36 52 -3 8 -1 12 5 8 7 -4
16 6 22 25 13 38 14 41 1 33 -5 -3 -10 1 -10 10 0 11 5 15 14 12 10 -4 13 1
11 19 -2 22 1 24 37 24 33 0 39 3 34 16 -4 10 2 23 14 34 14 12 19 27 17 51
-3 34 -2 34 30 31 34 -4 42 5 21 26 -9 9 -8 15 4 24 9 7 18 20 20 28 3 9 14
-6 28 -37 l24 -51 22 23 c11 12 27 50 35 84 7 34 16 61 20 61 4 0 9 10 12 22
4 12 9 20 11 17 3 -3 1 -19 -4 -35z m-1412 -48 c38 -20 96 -86 85 -97 -5 -5
-25 2 -48 18 -43 30 -69 32 -192 18 -44 -5 -63 -4 -63 4 0 6 5 11 11 11 6 0 9
6 6 14 -7 16 8 32 38 39 43 10 137 6 163 -7z m-1363 -77 c-3 -5 0 -6 8 -3 8 3
18 1 21 -5 13 -20 -14 -50 -68 -76 -38 -18 -56 -34 -58 -48 -2 -18 -9 -22 -34
-20 -19 2 -37 -4 -44 -12 -18 -22 -30 -18 -30 10 0 18 17 42 56 80 51 51 85
72 68 43 -4 -7 -4 -10 0 -6 4 3 8 10 7 15 0 11 62 42 72 36 4 -2 5 -9 2 -14z
m2090 -288 c17 -33 17 -35 0 -48 -23 -16 -49 -17 -63 0 -19 23 -52 163 -52
218 l1 54 48 -95 c27 -52 56 -110 66 -129z m-1825 154 c0 -3 -7 -17 -17 -31
-11 -18 -16 -44 -14 -89 l2 -63 -82 -63 c-44 -35 -107 -85 -138 -110 -78 -64
-91 -67 -91 -24 0 18 -4 37 -10 40 -5 3 -10 1 -10 -6 0 -27 -22 9 -27 43 -3
24 1 39 11 48 14 11 16 8 16 -24 0 -23 4 -35 10 -31 6 4 8 21 5 39 -6 32 -4
35 81 97 125 92 248 177 257 178 4 1 7 -1 7 -4z m947 -47 c39 -10 41 -12 32
-35 -5 -14 -6 -29 -3 -34 3 -6 -21 -9 -63 -7 l-68 3 -4 40 -4 40 -12 -40 c-10
-35 -16 -40 -46 -43 -62 -6 -116 7 -122 29 -8 32 2 48 37 58 37 11 193 5 253
-11z m-972 -198 c-2 -4 -12 -42 -21 -86 -12 -58 -13 -87 -6 -109 6 -16 18 -56
28 -88 9 -33 23 -61 31 -64 7 -3 11 -8 9 -12 -3 -4 -47 -2 -98 3 l-92 11 -13
60 c-15 75 -16 113 -1 70 12 -32 77 -119 85 -112 2 3 -12 26 -31 52 -38 49
-42 61 -26 67 6 2 4 14 -5 31 -7 15 -10 27 -5 27 5 0 21 -27 37 -59 15 -33 31
-60 34 -60 4 -1 -5 35 -18 79 -16 49 -22 86 -17 97 6 15 8 14 11 -7 5 -40 37
-140 45 -140 4 0 10 -20 14 -45 3 -25 10 -48 15 -51 21 -13 -14 148 -36 166
-15 13 -21 84 -9 114 5 13 10 14 20 5 10 -8 15 -5 20 18 13 61 16 66 24 52 5
-7 7 -16 5 -19z m-7 -408 l74 -18 19 -54 c10 -30 19 -58 19 -62 0 -4 -20 -8
-45 -8 -37 0 -51 5 -70 26 -30 33 -31 34 -2 34 18 0 19 -2 7 -10 -13 -8 -12
-10 3 -10 9 0 17 5 17 11 0 6 9 8 20 4 11 -3 20 -3 20 2 0 5 -31 17 -69 26
-50 13 -74 25 -85 42 -9 13 -16 27 -16 30 0 9 33 5 108 -13z m329 -316 c35
-29 67 -46 87 -46 17 0 85 -41 86 -52 0 -4 -9 -16 -21 -27 -24 -22 -40 -19
-82 16 -16 13 -39 23 -52 23 -25 0 -49 22 -37 35 4 5 -1 5 -11 2 -11 -4 -16
-3 -12 4 4 5 0 21 -9 34 -12 18 -12 25 -3 28 21 9 25 8 54 -17z"/>
<path d="M321 6874 c-17 -21 -21 -41 -21 -94 0 -79 12 -94 65 -88 l36 4 -3
-45 c-2 -33 -8 -47 -20 -49 -12 -2 -17 5 -20 25 -2 22 -9 29 -30 31 -26 3 -28
0 -28 -30 0 -47 19 -68 65 -75 31 -4 46 0 68 17 l27 21 0 134 c0 125 -1 136
-22 155 -33 30 -91 27 -117 -6z"/>
<path d="M538 6873 c-25 -4 -28 -9 -28 -42 0 -21 -3 -53 -6 -70 -6 -27 -4 -31
16 -31 13 0 29 8 36 18 21 28 36 2 32 -59 -3 -46 -6 -54 -23 -54 -14 0 -21 8
-23 28 -2 19 -9 27 -23 27 -26 0 -26 -53 1 -80 23 -23 42 -25 73 -9 33 18 37
28 37 100 0 74 -13 95 -55 87 -22 -5 -25 -2 -25 23 0 27 3 29 40 29 33 0 40 3
40 20 0 21 -21 24 -92 13z"/>
<path d="M5325 5213 c-10 -21 -19 -40 -20 -43 -9 -27 -23 -42 -60 -60 -24 -12
-49 -28 -56 -36 -7 -8 -33 -27 -58 -42 -25 -14 -52 -32 -59 -39 -22 -21 -63
-39 -120 -53 -28 -6 -54 -16 -57 -20 -3 -5 5 -7 17 -4 13 3 39 8 58 10 92 13
229 82 281 143 59 67 109 140 91 133 -15 -5 -15 -3 -4 11 8 9 12 21 10 27 -2
7 -12 -6 -23 -27z"/>
</g>
</svg>
